ChironSungHKVF-weight0-Master.ufo
<glyph name="cid40900" format="2">
  <advance height="1000" width="331"/>
  <unicode hex="0022"/>
  <outline>
    <contour>
      <point x="86" y="782" type="curve" smooth="yes"/>
      <point x="63" y="782"/>
      <point x="51" y="767"/>
      <point x="51" y="737" type="curve" smooth="yes"/>
      <point x="51" y="700"/>
      <point x="61" y="625"/>
      <point x="64" y="575" type="curve" smooth="yes"/>
      <point x="73" y="477" type="line"/>
      <point x="98" y="477" type="line"/>
      <point x="106" y="575" type="line" smooth="yes"/>
      <point x="110" y="625"/>
      <point x="121" y="700"/>
      <point x="121" y="737" type="curve" smooth="yes"/>
      <point x="121" y="767"/>
      <point x="108" y="782"/>
    </contour>
    <contour>
      <point x="245" y="782" type="curve" smooth="yes"/>
      <point x="223" y="782"/>
      <point x="210" y="767"/>
      <point x="210" y="737" type="curve" smooth="yes"/>
      <point x="210" y="700"/>
      <point x="220" y="625"/>
      <point x="224" y="575" type="curve" smooth="yes"/>
      <point x="232" y="477" type="line"/>
      <point x="257" y="477" type="line"/>
      <point x="265" y="575" type="line" smooth="yes"/>
      <point x="269" y="625"/>
      <point x="280" y="700"/>
      <point x="280" y="737" type="curve" smooth="yes"/>
      <point x="280" y="767"/>
      <point x="267" y="782"/>
    </contour>
  </outline>
</glyph>
<glyph name="cid41002" format="2">
  <advance height="1000" width="539"/>
  <unicode hex="0023"/>
  <outline>
    <contour>
      <point x="95" y="10" type="line"/>
      <point x="127" y="10" type="line"/>
      <point x="230" y="687" type="line"/>
      <point x="197" y="687" type="line"/>
    </contour>
    <contour>
      <point x="25" y="266" type="line"/>
      <point x="25" y="213" type="line"/>
      <point x="480" y="213" type="line"/>
      <point x="480" y="266" type="line"/>
    </contour>
    <contour>
      <point x="515" y="444" type="line"/>
      <point x="515" y="497" type="line"/>
      <point x="59" y="497" type="line"/>
      <point x="59" y="444" type="line"/>
    </contour>
    <contour>
      <point x="306" y="10" type="line"/>
      <point x="338" y="10" type="line"/>
      <point x="440" y="687" type="line"/>
      <point x="408" y="687" type="line"/>
    </contour>
  </outline>
</glyph>
<glyph name="cid41228" format="2">
  <advance height="1000" width="509"/>
  <unicode hex="0024"/>
  <outline>
    <contour>
      <point x="251" y="-4" type="curve" smooth="yes"/>
      <point x="367" y="-4"/>
      <point x="456" y="63"/>
      <point x="456" y="177" type="curve" smooth="yes"/>
      <point x="456" y="260"/>
      <point x="416" y="324"/>
      <point x="283" y="377" type="curve" smooth="yes"/>
      <point x="253" y="390" type="line" smooth="yes"/>
      <point x="170" y="423"/>
      <point x="127" y="467"/>
      <point x="127" y="534" type="curve" smooth="yes"/>
      <point x="127" y="624"/>
      <point x="188" y="668"/>
      <point x="271" y="668" type="curve" smooth="yes"/>
      <point x="316" y="668"/>
      <point x="353" y="658"/>
      <point x="396" y="623" type="curve"/>
      <point x="352" y="664" type="line"/>
      <point x="375" y="573" type="line" smooth="yes"/>
      <point x="384" y="538"/>
      <point x="400" y="528"/>
      <point x="418" y="528" type="curve" smooth="yes"/>
      <point x="436" y="528"/>
      <point x="448" y="537"/>
      <point x="452" y="555" type="curve"/>
      <point x="436" y="644"/>
      <point x="362" y="701"/>
      <point x="267" y="701" type="curve" smooth="yes"/>
      <point x="160" y="701"/>
      <point x="75" y="634"/>
      <point x="75" y="524" type="curve" smooth="yes"/>
      <point x="75" y="429"/>
      <point x="132" y="375"/>
      <point x="231" y="334" type="curve" smooth="yes"/>
      <point x="268" y="318" type="line" smooth="yes"/>
      <point x="369" y="275"/>
      <point x="402" y="236"/>
      <point x="402" y="168" type="curve" smooth="yes"/>
      <point x="402" y="79"/>
      <point x="341" y="29"/>
      <point x="252" y="29" type="curve" smooth="yes"/>
      <point x="199" y="29"/>
      <point x="156" y="39"/>
      <point x="110" y="76" type="curve"/>
      <point x="153" y="33" type="line"/>
      <point x="131" y="124" type="line" smooth="yes"/>
      <point x="123" y="159"/>
      <point x="106" y="168"/>
      <point x="88" y="168" type="curve" smooth="yes"/>
      <point x="70" y="168"/>
      <point x="58" y="160"/>
      <point x="53" y="141" type="curve"/>
      <point x="69" y="53"/>
      <point x="140" y="-4"/>
    </contour>
    <contour>
      <point x="248" y="-110" type="line"/>
      <point x="278" y="-110" type="line"/>
      <point x="278" y="351" type="line"/>
      <point x="248" y="351" type="line"/>
    </contour>
    <contour>
      <point x="249" y="351" type="line"/>
      <point x="278" y="351" type="line"/>
      <point x="278" y="796" type="line"/>
      <point x="249" y="796" type="line"/>
    </contour>
  </outline>
</glyph>
<glyph name="cid41309" format="2">
  <advance height="1000" width="869"/>
  <unicode hex="0025"/>
  <outline>
    <contour>
      <point x="181" y="289" type="curve" smooth="yes"/>
      <point x="252" y="289"/>
      <point x="318" y="350"/>
      <point x="318" y="503" type="curve" smooth="yes"/>
      <point x="318" y="658"/>
      <point x="252" y="719"/>
      <point x="181" y="719" type="curve" smooth="yes"/>
      <point x="110" y="719"/>
      <point x="44" y="658"/>
      <point x="44" y="503" type="curve" smooth="yes"/>
      <point x="44" y="350"/>
      <point x="110" y="289"/>
    </contour>
    <contour>
      <point x="181" y="313" type="curve" smooth="yes"/>
      <point x="138" y="313"/>
      <point x="96" y="353"/>
      <point x="96" y="503" type="curve" smooth="yes"/>
      <point x="96" y="654"/>
      <point x="138" y="695"/>
      <point x="181" y="695" type="curve" smooth="yes"/>
      <point x="224" y="695"/>
      <point x="265" y="654"/>
      <point x="265" y="503" type="curve" smooth="yes"/>
      <point x="265" y="353"/>
      <point x="224" y="313"/>
    </contour>
    <contour>
      <point x="201" y="-14" type="line"/>
      <point x="692" y="691" type="line"/>
      <point x="668" y="709" type="line"/>
      <point x="178" y="4" type="line"/>
    </contour>
    <contour>
      <point x="690" y="2" type="curve" smooth="yes"/>
      <point x="760" y="2"/>
      <point x="827" y="63"/>
      <point x="827" y="216" type="curve" smooth="yes"/>
      <point x="827" y="371"/>
      <point x="760" y="432"/>
      <point x="690" y="432" type="curve" smooth="yes"/>
      <point x="619" y="432"/>
      <point x="552" y="371"/>
      <point x="552" y="216" type="curve" smooth="yes"/>
      <point x="552" y="63"/>
      <point x="619" y="2"/>
    </contour>
    <contour>
      <point x="690" y="26" type="curve" smooth="yes"/>
      <point x="647" y="26"/>
      <point x="604" y="66"/>
      <point x="604" y="216" type="curve" smooth="yes"/>
      <point x="604" y="367"/>
      <point x="647" y="408"/>
      <point x="690" y="408" type="curve" smooth="yes"/>
      <point x="732" y="408"/>
      <point x="774" y="367"/>
      <point x="774" y="216" type="curve" smooth="yes"/>
      <point x="774" y="66"/>
      <point x="732" y="26"/>
    </contour>
  </outline>
</glyph>
<glyph name="cid40744" format="2">
  <advance height="1000" width="735"/>
  <unicode hex="0026"/>
  <outline>
    <contour>
      <point x="253" y="-4" type="curve" smooth="yes"/>
      <point x="367" y="-4"/>
      <point x="438" y="52"/>
      <point x="487" y="119" type="curve"/>
      <point x="487" y="119"/>
      <point x="491" y="120"/>
      <point x="491" y="120" type="curve"/>
      <point x="491" y="120"/>
      <point x="466" y="137"/>
      <point x="466" y="137" type="curve"/>
      <point x="417" y="72"/>
      <point x="349" y="40"/>
      <point x="267" y="40" type="curve" smooth="yes"/>
      <point x="161" y="40"/>
      <point x="99" y="121"/>
      <point x="99" y="202" type="curve" smooth="yes"/>
      <point x="99" y="274"/>
      <point x="137" y="343"/>
      <point x="236" y="397" type="curve"/>
      <point x="236" y="397"/>
      <point x="224" y="419"/>
      <point x="224" y="419" type="curve"/>
      <point x="224" y="419"/>
      <point x="223" y="416"/>
      <point x="223" y="416" type="curve"/>
      <point x="99" y="356"/>
      <point x="41" y="285"/>
      <point x="41" y="187" type="curve" smooth="yes"/>
      <point x="41" y="83"/>
      <point x="125" y="-4"/>
    </contour>
    <contour>
      <point x="493" y="125" type="curve"/>
      <point x="564" y="221"/>
      <point x="596" y="305"/>
      <point x="621" y="448" type="curve"/>
      <point x="621" y="448"/>
      <point x="584" y="448"/>
      <point x="584" y="448" type="curve"/>
      <point x="564" y="311"/>
      <point x="536" y="234"/>
      <point x="472" y="141" type="curve"/>
      <point x="472" y="141"/>
      <point x="467" y="141"/>
      <point x="467" y="141" type="curve"/>
      <point x="467" y="141"/>
      <point x="493" y="125"/>
    </contour>
    <contour>
      <point x="589" y="412" type="curve"/>
      <point x="589" y="412"/>
      <point x="604" y="412"/>
      <point x="604" y="412" type="curve"/>
      <point x="604" y="412"/>
      <point x="691" y="423"/>
      <point x="691" y="423" type="curve"/>
      <point x="691" y="423"/>
      <point x="691" y="451"/>
      <point x="691" y="451" type="curve"/>
      <point x="691" y="451"/>
      <point x="492" y="451"/>
      <point x="492" y="451" type="curve"/>
      <point x="492" y="451"/>
      <point x="492" y="423"/>
      <point x="492" y="423" type="curve"/>
      <point x="492" y="423"/>
      <point x="589" y="412"/>
    </contour>
    <contour>
      <point x="625" y="1" type="curve" smooth="yes"/>
      <point x="648" y="1"/>
      <point x="668" y="4"/>
      <point x="691" y="9" type="curve"/>
      <point x="691" y="9"/>
      <point x="693" y="36"/>
      <point x="693" y="36" type="curve"/>
      <point x="693" y="36"/>
      <point x="566" y="50"/>
      <point x="566" y="50" type="curve"/>
      <point x="566" y="50"/>
      <point x="612" y="30"/>
      <point x="612" y="30" type="curve"/>
      <point x="496" y="155"/>
      <point x="427" y="229"/>
      <point x="353" y="313" type="curve" smooth="yes"/>
      <point x="298" y="372"/>
      <point x="265" y="408"/>
      <point x="218" y="464" type="curve" smooth="yes"/>
      <point x="176" y="516"/>
      <point x="166" y="550"/>
      <point x="166" y="589" type="curve" smooth="yes"/>
      <point x="166" y="654"/>
      <point x="215" y="698"/>
      <point x="274" y="698" type="curve" smooth="yes"/>
      <point x="333" y="698"/>
      <point x="373" y="657"/>
      <point x="373" y="593" type="curve" smooth="yes"/>
      <point x="373" y="522"/>
      <point x="319" y="474"/>
      <point x="238" y="422" type="curve"/>
      <point x="238" y="422"/>
      <point x="250" y="400"/>
      <point x="250" y="400" type="curve"/>
      <point x="250" y="400"/>
      <point x="251" y="402"/>
      <point x="251" y="402" type="curve"/>
      <point x="358" y="459"/>
      <point x="420" y="513"/>
      <point x="420" y="593" type="curve" smooth="yes"/>
      <point x="420" y="667"/>
      <point x="370" y="724"/>
      <point x="275" y="724" type="curve" smooth="yes"/>
      <point x="186" y="724"/>
      <point x="118" y="668"/>
      <point x="118" y="581" type="curve" smooth="yes"/>
      <point x="118" y="528"/>
      <point x="138" y="480"/>
      <point x="185" y="426" type="curve" smooth="yes"/>
      <point x="242" y="359"/>
      <point x="270" y="327"/>
      <point x="322" y="266" type="curve" smooth="yes"/>
      <point x="386" y="193"/>
      <point x="447" y="125"/>
      <point x="524" y="38" type="curve" smooth="yes"/>
      <point x="550" y="10"/>
      <point x="578" y="1"/>
    </contour>
  </outline>
</glyph>
<glyph name="cid40899" format="2">
  <advance height="1000" width="172"/>
  <unicode hex="0027"/>
  <outline>
    <contour>
      <point x="86" y="782" type="curve" smooth="yes"/>
      <point x="63" y="782"/>
      <point x="51" y="767"/>
      <point x="51" y="737" type="curve" smooth="yes"/>
      <point x="51" y="700"/>
      <point x="61" y="625"/>
      <point x="64" y="575" type="curve"/>
      <point x="64" y="575"/>
      <point x="73" y="477"/>
      <point x="73" y="477" type="curve"/>
      <point x="73" y="477"/>
      <point x="98" y="477"/>
      <point x="98" y="477" type="curve"/>
      <point x="98" y="477"/>
      <point x="106" y="575"/>
      <point x="106" y="575" type="curve"/>
      <point x="110" y="625"/>
      <point x="121" y="700"/>
      <point x="121" y="737" type="curve" smooth="yes"/>
      <point x="121" y="767"/>
      <point x="108" y="782"/>
    </contour>
  </outline>
</glyph>
<glyph name="cid40936" format="2">
  <advance height="1000" width="334"/>
  <unicode hex="0028"/>
  <outline>
    <contour>
      <point x="145" y="299" type="curve" smooth="yes"/>
      <point x="145" y="478"/>
      <point x="187" y="609"/>
      <point x="309" y="786" type="curve"/>
      <point x="291" y="800" type="line"/>
      <point x="154" y="650"/>
      <point x="89" y="486"/>
      <point x="89" y="299" type="curve" smooth="yes"/>
      <point x="89" y="111"/>
      <point x="154" y="-52"/>
      <point x="291" y="-203" type="curve"/>
      <point x="309" y="-189" type="line"/>
      <point x="187" y="-12"/>
      <point x="145" y="119"/>
    </contour>
  </outline>
</glyph>
<glyph name="cid40938" format="2">
  <advance height="1000" width="334"/>
  <unicode hex="0029"/>
  <outline>
    <contour>
      <point x="189" y="298" type="curve" smooth="yes"/>
      <point x="189" y="119"/>
      <point x="147" y="-12"/>
      <point x="25" y="-189" type="curve"/>
      <point x="43" y="-203" type="line"/>
      <point x="180" y="-52"/>
      <point x="244" y="111"/>
      <point x="244" y="298" type="curve" smooth="yes"/>
      <point x="244" y="486"/>
      <point x="180" y="650"/>
      <point x="43" y="800" type="curve"/>
      <point x="25" y="786" type="line"/>
      <point x="147" y="609"/>
      <point x="189" y="478"/>
    </contour>
  </outline>
</glyph>
<glyph name="cid40982" format="2">
  <advance height="1000" width="453"/>
  <unicode hex="002A"/>
  <outline>
    <contour>
      <point x="219" y="579" type="curve"/>
      <point x="219" y="579"/>
      <point x="234" y="579"/>
      <point x="234" y="579" type="curve"/>
      <point x="234" y="579"/>
      <point x="242" y="648"/>
      <point x="242" y="648" type="curve"/>
      <point x="250" y="698"/>
      <point x="256" y="742"/>
      <point x="256" y="762" type="curve" smooth="yes"/>
      <point x="256" y="782"/>
      <point x="243" y="792"/>
      <point x="228" y="792" type="curve" smooth="yes"/>
      <point x="210" y="792"/>
      <point x="200" y="782"/>
      <point x="200" y="762" type="curve" smooth="yes"/>
      <point x="200" y="741"/>
      <point x="205" y="698"/>
      <point x="211" y="648" type="curve"/>
      <point x="211" y="648"/>
      <point x="219" y="579"/>
    </contour>
    <contour>
      <point x="225" y="572" type="curve"/>
      <point x="225" y="572"/>
      <point x="230" y="586"/>
      <point x="230" y="586" type="curve"/>
      <point x="230" y="586"/>
      <point x="166" y="615"/>
      <point x="166" y="615" type="curve"/>
      <point x="121" y="637"/>
      <point x="81" y="656"/>
      <point x="61" y="662" type="curve" smooth="yes"/>
      <point x="43" y="668"/>
      <point x="29" y="661"/>
      <point x="24" y="644" type="curve" smooth="yes"/>
      <point x="19" y="629"/>
      <point x="25" y="615"/>
      <point x="45" y="609" type="curve" smooth="yes"/>
      <point x="64" y="603"/>
      <point x="106" y="594"/>
      <point x="157" y="585" type="curve"/>
      <point x="157" y="585"/>
      <point x="225" y="572"/>
    </contour>
    <contour>
      <point x="233" y="575" type="curve"/>
      <point x="233" y="575"/>
      <point x="222" y="583"/>
      <point x="222" y="583" type="curve"/>
      <point x="222" y="583"/>
      <point x="175" y="533"/>
      <point x="175" y="533" type="curve"/>
      <point x="138" y="495"/>
      <point x="109" y="463"/>
      <point x="98" y="448" type="curve"/>
      <point x="84" y="431"/>
      <point x="88" y="416"/>
      <point x="102" y="406" type="curve" smooth="yes"/>
      <point x="114" y="397"/>
      <point x="130" y="398"/>
      <point x="142" y="415" type="curve"/>
      <point x="155" y="431"/>
      <point x="175" y="469"/>
      <point x="200" y="514" type="curve"/>
      <point x="200" y="514"/>
      <point x="233" y="575"/>
    </contour>
    <contour>
      <point x="233" y="584" type="curve"/>
      <point x="233" y="584"/>
      <point x="222" y="575"/>
      <point x="222" y="575" type="curve"/>
      <point x="222" y="575"/>
      <point x="255" y="514"/>
      <point x="255" y="514" type="curve"/>
      <point x="280" y="469"/>
      <point x="301" y="431"/>
      <point x="312" y="415" type="curve" smooth="yes"/>
      <point x="324" y="398"/>
      <point x="339" y="397"/>
      <point x="353" y="406" type="curve"/>
      <point x="366" y="416"/>
      <point x="369" y="431"/>
      <point x="357" y="447" type="curve" smooth="yes"/>
      <point x="344" y="464"/>
      <point x="316" y="496"/>
      <point x="281" y="533" type="curve"/>
      <point x="281" y="533"/>
      <point x="233" y="584"/>
    </contour>
    <contour>
      <point x="225" y="586" type="curve"/>
      <point x="225" y="586"/>
      <point x="230" y="572"/>
      <point x="230" y="572" type="curve"/>
      <point x="230" y="572"/>
      <point x="297" y="585"/>
      <point x="297" y="585" type="curve"/>
      <point x="347" y="594"/>
      <point x="391" y="603"/>
      <point x="410" y="609" type="curve" smooth="yes"/>
      <point x="430" y="615"/>
      <point x="435" y="629"/>
      <point x="431" y="644" type="curve"/>
      <point x="425" y="661"/>
      <point x="412" y="668"/>
      <point x="392" y="662" type="curve" smooth="yes"/>
      <point x="372" y="656"/>
      <point x="334" y="637"/>
      <point x="287" y="615" type="curve"/>
      <point x="287" y="615"/>
      <point x="225" y="586"/>
    </contour>
  </outline>
</glyph>
<glyph name="cid41338" format="2">
  <advance height="1000" width="545"/>
  <unicode hex="002B"/>
  <outline>
    <contour>
      <point x="252" y="104" type="line"/>
      <point x="294" y="104" type="line"/>
      <point x="294" y="604" type="line"/>
      <point x="252" y="604" type="line"/>
    </contour>
    <contour>
      <point x="510" y="337" type="line"/>
      <point x="510" y="376" type="line"/>
      <point x="35" y="376" type="line"/>
      <point x="35" y="337" type="line"/>
    </contour>
  </outline>
</glyph>
<glyph name="cid40880" format="2">
  <advance height="1000" width="305"/>
  <unicode hex="002C"/>
  <outline>
    <contour>
      <point x="73" y="-154" type="curve"/>
      <point x="150" y="-119"/>
      <point x="203" y="-59"/>
      <point x="203" y="26" type="curve" smooth="yes"/>
      <point x="203" y="46"/>
      <point x="201" y="62"/>
      <point x="196" y="80" type="curve"/>
      <point x="181" y="94"/>
      <point x="166" y="99"/>
      <point x="151" y="99" type="curve" smooth="yes"/>
      <point x="120" y="99"/>
      <point x="103" y="78"/>
      <point x="103" y="52" type="curve" smooth="yes"/>
      <point x="103" y="31"/>
      <point x="114" y="16"/>
      <point x="137" y="2" type="curve"/>
      <point x="137" y="2"/>
      <point x="177" y="-24"/>
      <point x="177" y="-24" type="curve"/>
      <point x="177" y="-24"/>
      <point x="167" y="7"/>
      <point x="167" y="7" type="curve"/>
      <point x="157" y="-62"/>
      <point x="128" y="-93"/>
      <point x="61" y="-128" type="curve"/>
      <point x="61" y="-128"/>
      <point x="73" y="-154"/>
    </contour>
  </outline>
</glyph>
<glyph name="cid40974" format="2">
  <advance height="1000" width="318"/>
  <unicode hex="002F"/>
  <outline>
    <contour>
      <point x="1" y="-156" type="line"/>
      <point x="42" y="-156" type="line"/>
      <point x="317" y="748" type="line"/>
      <point x="277" y="748" type="line"/>
    </contour>
  </outline>
</glyph>
<glyph name="cid40752" format="2">
  <advance height="1000" width="509"/>
  <unicode hex="0030"/>
  <outline>
    <contour>
      <point x="255" y="-4" type="curve" smooth="yes"/>
      <point x="360" y="-4"/>
      <point x="460" y="94"/>
      <point x="460" y="347" type="curve" smooth="yes"/>
      <point x="460" y="601"/>
      <point x="360" y="701"/>
      <point x="255" y="701" type="curve" smooth="yes"/>
      <point x="149" y="701"/>
      <point x="49" y="601"/>
      <point x="49" y="347" type="curve" smooth="yes"/>
      <point x="49" y="94"/>
      <point x="149" y="-4"/>
    </contour>
    <contour>
      <point x="255" y="27" type="curve" smooth="yes"/>
      <point x="183" y="27"/>
      <point x="111" y="104"/>
      <point x="111" y="347" type="curve" smooth="yes"/>
      <point x="111" y="591"/>
      <point x="183" y="669"/>
      <point x="255" y="669" type="curve" smooth="yes"/>
      <point x="326" y="669"/>
      <point x="397" y="591"/>
      <point x="397" y="347" type="curve" smooth="yes"/>
      <point x="397" y="104"/>
      <point x="326" y="27"/>
    </contour>
  </outline>
</glyph>
<glyph name="cid40755" format="2">
  <advance height="1000" width="509"/>
  <unicode hex="0031"/>
  <outline>
    <contour>
      <point x="81" y="10" type="curve"/>
      <point x="81" y="10"/>
      <point x="447" y="10"/>
      <point x="447" y="10" type="curve"/>
      <point x="447" y="10"/>
      <point x="447" y="36"/>
      <point x="447" y="36" type="curve"/>
      <point x="447" y="36"/>
      <point x="288" y="51"/>
      <point x="288" y="51" type="curve"/>
      <point x="288" y="51"/>
      <point x="244" y="51"/>
      <point x="244" y="51" type="curve"/>
      <point x="244" y="51"/>
      <point x="81" y="36"/>
      <point x="81" y="36" type="curve"/>
      <point x="81" y="36"/>
      <point x="81" y="10"/>
    </contour>
    <contour>
      <point x="235" y="10" type="curve"/>
      <point x="235" y="10"/>
      <point x="297" y="10"/>
      <point x="297" y="10" type="curve"/>
      <point x="295" y="83"/>
      <point x="294" y="160"/>
      <point x="294" y="237" type="curve"/>
      <point x="294" y="237"/>
      <point x="294" y="516"/>
      <point x="294" y="516" type="curve"/>
      <point x="294" y="516"/>
      <point x="298" y="685"/>
      <point x="298" y="685" type="curve"/>
      <point x="298" y="685"/>
      <point x="285" y="695"/>
      <point x="285" y="695" type="curve"/>
      <point x="285" y="695"/>
      <point x="90" y="642"/>
      <point x="90" y="642" type="curve"/>
      <point x="90" y="642"/>
      <point x="90" y="614"/>
      <point x="90" y="614" type="curve"/>
      <point x="90" y="614"/>
      <point x="238" y="638"/>
      <point x="238" y="638" type="curve"/>
      <point x="238" y="638"/>
      <point x="238" y="237"/>
      <point x="238" y="237" type="curve"/>
      <point x="238" y="160"/>
      <point x="238" y="83"/>
    </contour>
  </outline>
</glyph>
<glyph name="cid40757" format="2">
  <advance height="1000" width="509"/>
  <unicode hex="0032"/>
  <outline>
    <contour>
      <point x="51" y="10" type="line"/>
      <point x="464" y="10" type="line"/>
      <point x="464" y="64" type="line"/>
      <point x="95" y="64" type="line"/>
      <point x="95" y="81" type="line"/>
      <point x="85" y="48" type="line"/>
      <point x="149" y="115"/>
      <point x="211" y="183"/>
      <point x="245" y="220" type="curve" smooth="yes"/>
      <point x="386" y="370"/>
      <point x="432" y="442"/>
      <point x="432" y="526" type="curve" smooth="yes"/>
      <point x="432" y="634"/>
      <point x="369" y="701"/>
      <point x="245" y="701" type="curve" smooth="yes"/>
      <point x="153" y="701"/>
      <point x="70" y="651"/>
      <point x="51" y="557" type="curve"/>
      <point x="57" y="540"/>
      <point x="69" y="530"/>
      <point x="86" y="530" type="curve" smooth="yes"/>
      <point x="107" y="530"/>
      <point x="119" y="544"/>
      <point x="127" y="575" type="curve" smooth="yes"/>
      <point x="154" y="667" type="line"/>
      <point x="114" y="632" type="line"/>
      <point x="157" y="661"/>
      <point x="194" y="669"/>
      <point x="232" y="669" type="curve" smooth="yes"/>
      <point x="319" y="669"/>
      <point x="371" y="615"/>
      <point x="371" y="522" type="curve" smooth="yes"/>
      <point x="371" y="443"/>
      <point x="323" y="362"/>
      <point x="226" y="249" type="curve" smooth="yes"/>
      <point x="178" y="194"/>
      <point x="115" y="122"/>
      <point x="51" y="52" type="curve"/>
    </contour>
  </outline>
</glyph>
<glyph name="cid40758" format="2">
  <advance height="1000" width="509"/>
  <unicode hex="0033"/>
  <outline>
    <contour>
      <point x="237" y="-4" type="curve" smooth="yes"/>
      <point x="365" y="-4"/>
      <point x="456" y="74"/>
      <point x="456" y="190" type="curve" smooth="yes"/>
      <point x="456" y="293"/>
      <point x="388" y="362"/>
      <point x="258" y="369" type="curve"/>
      <point x="258" y="369"/>
      <point x="258" y="359"/>
      <point x="258" y="359" type="curve"/>
      <point x="369" y="376"/>
      <point x="435" y="449"/>
      <point x="435" y="535" type="curve" smooth="yes"/>
      <point x="435" y="631"/>
      <point x="363" y="701"/>
      <point x="249" y="701" type="curve" smooth="yes"/>
      <point x="163" y="701"/>
      <point x="86" y="660"/>
      <point x="67" y="573" type="curve"/>
      <point x="72" y="555"/>
      <point x="84" y="549"/>
      <point x="100" y="549" type="curve" smooth="yes"/>
      <point x="123" y="549"/>
      <point x="133" y="561"/>
      <point x="140" y="589" type="curve"/>
      <point x="140" y="589"/>
      <point x="162" y="667"/>
      <point x="162" y="667" type="curve"/>
      <point x="162" y="667"/>
      <point x="130" y="640"/>
      <point x="130" y="640" type="curve"/>
      <point x="168" y="663"/>
      <point x="202" y="669"/>
      <point x="239" y="669" type="curve" smooth="yes"/>
      <point x="326" y="669"/>
      <point x="375" y="615"/>
      <point x="375" y="533" type="curve" smooth="yes"/>
      <point x="375" y="438"/>
      <point x="308" y="380"/>
      <point x="212" y="380" type="curve"/>
      <point x="212" y="380"/>
      <point x="170" y="380"/>
      <point x="170" y="380" type="curve"/>
      <point x="170" y="380"/>
      <point x="170" y="348"/>
      <point x="170" y="348" type="curve"/>
      <point x="170" y="348"/>
      <point x="216" y="348"/>
      <point x="216" y="348" type="curve"/>
      <point x="337" y="348"/>
      <point x="395" y="288"/>
      <point x="395" y="189" type="curve" smooth="yes"/>
      <point x="395" y="93"/>
      <point x="336" y="27"/>
      <point x="227" y="27" type="curve" smooth="yes"/>
      <point x="185" y="27"/>
      <point x="151" y="36"/>
      <point x="114" y="58" type="curve"/>
      <point x="114" y="58"/>
      <point x="147" y="25"/>
      <point x="147" y="25" type="curve"/>
      <point x="147" y="25"/>
      <point x="122" y="109"/>
      <point x="122" y="109" type="curve"/>
      <point x="113" y="140"/>
      <point x="103" y="154"/>
      <point x="82" y="154" type="curve" smooth="yes"/>
      <point x="64" y="154"/>
      <point x="52" y="144"/>
      <point x="46" y="128" type="curve"/>
      <point x="68" y="39"/>
      <point x="140" y="-4"/>
    </contour>
  </outline>
</glyph>
<glyph name="cid40761" format="2">
  <advance height="1000" width="509"/>
  <unicode hex="0034"/>
  <outline>
    <contour>
      <point x="320" y="-9" type="curve"/>
      <point x="320" y="-9"/>
      <point x="375" y="-9"/>
      <point x="375" y="-9" type="curve"/>
      <point x="375" y="-9"/>
      <point x="375" y="696"/>
      <point x="375" y="696" type="curve"/>
      <point x="375" y="696"/>
      <point x="337" y="696"/>
      <point x="337" y="696" type="curve"/>
      <point x="337" y="696"/>
      <point x="29" y="226"/>
      <point x="29" y="226" type="curve"/>
      <point x="29" y="226"/>
      <point x="29" y="189"/>
      <point x="29" y="189" type="curve"/>
      <point x="29" y="189"/>
      <point x="492" y="189"/>
      <point x="492" y="189" type="curve"/>
      <point x="492" y="189"/>
      <point x="492" y="235"/>
      <point x="492" y="235" type="curve"/>
      <point x="492" y="235"/>
      <point x="64" y="235"/>
      <point x="64" y="235" type="curve"/>
      <point x="64" y="235"/>
      <point x="64" y="248"/>
      <point x="64" y="248" type="curve"/>
      <point x="64" y="248"/>
      <point x="55" y="213"/>
      <point x="55" y="213" type="curve"/>
      <point x="55" y="213"/>
      <point x="197" y="430"/>
      <point x="197" y="430" type="curve"/>
      <point x="197" y="430"/>
      <point x="337" y="646"/>
      <point x="337" y="646" type="curve"/>
      <point x="337" y="646"/>
      <point x="309" y="635"/>
      <point x="309" y="635" type="curve"/>
      <point x="309" y="635"/>
      <point x="320" y="635"/>
      <point x="320" y="635" type="curve"/>
      <point x="320" y="635"/>
      <point x="320" y="218"/>
      <point x="320" y="218" type="curve"/>
      <point x="320" y="218"/>
      <point x="320" y="203"/>
      <point x="320" y="203" type="curve"/>
      <point x="320" y="203"/>
      <point x="320" y="-9"/>
    </contour>
  </outline>
</glyph>
<glyph name="cid40764" format="2">
  <advance height="1000" width="509"/>
  <unicode hex="0035"/>
  <outline>
    <contour>
      <point x="226" y="-4" type="curve" smooth="yes"/>
      <point x="367" y="-4"/>
      <point x="459" y="84"/>
      <point x="459" y="213" type="curve" smooth="yes"/>
      <point x="459" y="347"/>
      <point x="372" y="421"/>
      <point x="242" y="421" type="curve" smooth="yes"/>
      <point x="191" y="421"/>
      <point x="148" y="411"/>
      <point x="99" y="385" type="curve"/>
      <point x="126" y="376" type="line"/>
      <point x="145" y="662" type="line"/>
      <point x="128" y="632" type="line"/>
      <point x="442" y="632" type="line"/>
      <point x="442" y="687" type="line"/>
      <point x="114" y="687" type="line"/>
      <point x="93" y="366" type="line"/>
      <point x="113" y="359" type="line"/>
      <point x="149" y="377"/>
      <point x="186" y="383"/>
      <point x="229" y="383" type="curve" smooth="yes"/>
      <point x="331" y="383"/>
      <point x="398" y="325"/>
      <point x="398" y="209" type="curve" smooth="yes"/>
      <point x="398" y="96"/>
      <point x="335" y="27"/>
      <point x="220" y="27" type="curve" smooth="yes"/>
      <point x="177" y="27"/>
      <point x="145" y="36"/>
      <point x="108" y="58" type="curve"/>
      <point x="141" y="27" type="line"/>
      <point x="114" y="110" type="line" smooth="yes"/>
      <point x="105" y="142"/>
      <point x="95" y="152"/>
      <point x="75" y="152" type="curve" smooth="yes"/>
      <point x="57" y="152"/>
      <point x="45" y="144"/>
      <point x="40" y="128" type="curve"/>
      <point x="60" y="41"/>
      <point x="129" y="-4"/>
    </contour>
  </outline>
</glyph>
<glyph name="cid40769" format="2">
  <advance height="1000" width="509"/>
  <unicode hex="0036"/>
  <outline>
    <contour>
      <point x="258" y="-4" type="curve" smooth="yes"/>
      <point x="367" y="-4"/>
      <point x="461" y="84"/>
      <point x="461" y="216" type="curve" smooth="yes"/>
      <point x="461" y="338"/>
      <point x="391" y="421"/>
      <point x="279" y="421" type="curve" smooth="yes"/>
      <point x="202" y="421"/>
      <point x="139" y="382"/>
      <point x="86" y="306" type="curve"/>
      <point x="82" y="306" type="line"/>
      <point x="99" y="295" type="line"/>
      <point x="151" y="358"/>
      <point x="204" y="382"/>
      <point x="261" y="382" type="curve" smooth="yes"/>
      <point x="345" y="382"/>
      <point x="400" y="324"/>
      <point x="400" y="214" type="curve" smooth="yes"/>
      <point x="400" y="95"/>
      <point x="339" y="27"/>
      <point x="259" y="27" type="curve" smooth="yes"/>
      <point x="166" y="27"/>
      <point x="108" y="112"/>
      <point x="108" y="266" type="curve" smooth="yes"/>
      <point x="108" y="466"/>
      <point x="218" y="628"/>
      <point x="444" y="678" type="curve"/>
      <point x="439" y="701" type="line"/>
      <point x="193" y="669"/>
      <point x="47" y="482"/>
      <point x="47" y="273" type="curve" smooth="yes"/>
      <point x="47" y="104"/>
      <point x="124" y="-4"/>
    </contour>
  </outline>
</glyph>
<glyph name="cid40771" format="2">
  <advance height="1000" width="509"/>
  <unicode hex="0037"/>
  <outline>
    <contour>
      <point x="149" y="10" type="curve"/>
      <point x="149" y="10"/>
      <point x="205" y="10"/>
      <point x="205" y="10" type="curve"/>
      <point x="205" y="10"/>
      <point x="457" y="653"/>
      <point x="457" y="653" type="curve"/>
      <point x="457" y="653"/>
      <point x="457" y="687"/>
      <point x="457" y="687" type="curve"/>
      <point x="457" y="687"/>
      <point x="50" y="687"/>
      <point x="50" y="687" type="curve"/>
      <point x="50" y="687"/>
      <point x="50" y="632"/>
      <point x="50" y="632" type="curve"/>
      <point x="50" y="632"/>
      <point x="418" y="632"/>
      <point x="418" y="632" type="curve"/>
      <point x="418" y="632"/>
      <point x="422" y="620"/>
      <point x="422" y="620" type="curve"/>
      <point x="422" y="620"/>
      <point x="422" y="655"/>
      <point x="422" y="655" type="curve"/>
      <point x="422" y="655"/>
      <point x="141" y="17"/>
      <point x="141" y="17" type="curve"/>
      <point x="141" y="17"/>
      <point x="149" y="10"/>
    </contour>
  </outline>
</glyph>
<glyph name="cid40776" format="2">
  <advance height="1000" width="509"/>
  <unicode hex="0038"/>
  <outline>
    <contour>
      <point x="254" y="-4" type="curve" smooth="yes"/>
      <point x="374" y="-4"/>
      <point x="460" y="67"/>
      <point x="460" y="169" type="curve" smooth="yes"/>
      <point x="460" y="261"/>
      <point x="404" y="319"/>
      <point x="277" y="376" type="curve" smooth="yes"/>
      <point x="165" y="426"/>
      <point x="126" y="478"/>
      <point x="126" y="545" type="curve" smooth="yes"/>
      <point x="126" y="622"/>
      <point x="185" y="669"/>
      <point x="255" y="669" type="curve" smooth="yes"/>
      <point x="334" y="669"/>
      <point x="378" y="611"/>
      <point x="378" y="539" type="curve" smooth="yes"/>
      <point x="378" y="468"/>
      <point x="340" y="420"/>
      <point x="246" y="367" type="curve"/>
      <point x="271" y="351" type="line"/>
      <point x="271" y="358" type="line"/>
      <point x="390" y="409"/>
      <point x="430" y="478"/>
      <point x="430" y="540" type="curve" smooth="yes"/>
      <point x="430" y="636"/>
      <point x="361" y="701"/>
      <point x="256" y="701" type="curve" smooth="yes"/>
      <point x="154" y="701"/>
      <point x="72" y="635"/>
      <point x="72" y="533" type="curve" smooth="yes"/>
      <point x="72" y="452"/>
      <point x="120" y="389"/>
      <point x="228" y="340" type="curve" smooth="yes"/>
      <point x="355" y="282"/>
      <point x="402" y="233"/>
      <point x="402" y="164" type="curve" smooth="yes"/>
      <point x="402" y="84"/>
      <point x="345" y="27"/>
      <point x="254" y="27" type="curve" smooth="yes"/>
      <point x="162" y="27"/>
      <point x="105" y="85"/>
      <point x="105" y="166" type="curve" smooth="yes"/>
      <point x="105" y="245"/>
      <point x="151" y="293"/>
      <point x="252" y="346" type="curve"/>
      <point x="224" y="362" type="line"/>
      <point x="224" y="355" type="line"/>
      <point x="110" y="303"/>
      <point x="49" y="247"/>
      <point x="49" y="162" type="curve" smooth="yes"/>
      <point x="49" y="60"/>
      <point x="126" y="-4"/>
    </contour>
  </outline>
</glyph>
<glyph name="cid40779" format="2">
  <advance height="1000" width="509"/>
  <unicode hex="0039"/>
  <outline>
    <contour>
      <point x="87" y="-5" type="curve"/>
      <point x="336" y="64"/>
      <point x="453" y="232"/>
      <point x="453" y="430" type="curve" smooth="yes"/>
      <point x="453" y="601"/>
      <point x="375" y="701"/>
      <point x="249" y="701" type="curve" smooth="yes"/>
      <point x="131" y="701"/>
      <point x="41" y="613"/>
      <point x="41" y="486" type="curve" smooth="yes"/>
      <point x="41" y="358"/>
      <point x="126" y="281"/>
      <point x="239" y="281" type="curve" smooth="yes"/>
      <point x="320" y="281"/>
      <point x="383" y="322"/>
      <point x="423" y="396" type="curve"/>
      <point x="423" y="396"/>
      <point x="428" y="396"/>
      <point x="428" y="396" type="curve"/>
      <point x="428" y="396"/>
      <point x="412" y="403"/>
      <point x="412" y="403" type="curve"/>
      <point x="368" y="349"/>
      <point x="315" y="321"/>
      <point x="256" y="321" type="curve" smooth="yes"/>
      <point x="167" y="321"/>
      <point x="100" y="380"/>
      <point x="100" y="489" type="curve" smooth="yes"/>
      <point x="100" y="603"/>
      <point x="166" y="669"/>
      <point x="246" y="669" type="curve" smooth="yes"/>
      <point x="333" y="669"/>
      <point x="393" y="588"/>
      <point x="393" y="421" type="curve" smooth="yes"/>
      <point x="393" y="234"/>
      <point x="296" y="97"/>
      <point x="80" y="21" type="curve"/>
      <point x="80" y="21"/>
      <point x="87" y="-5"/>
    </contour>
  </outline>
</glyph>
<glyph name="cid40884" format="2">
  <advance height="1000" width="305"/>
  <unicode hex="003A"/>
  <outline>
    <contour>
      <point x="153" y="-2" type="curve" smooth="yes"/>
      <point x="182" y="-2"/>
      <point x="205" y="21"/>
      <point x="205" y="50" type="curve" smooth="yes"/>
      <point x="205" y="79"/>
      <point x="182" y="102"/>
      <point x="153" y="102" type="curve" smooth="yes"/>
      <point x="123" y="102"/>
      <point x="100" y="79"/>
      <point x="100" y="50" type="curve" smooth="yes"/>
      <point x="100" y="21"/>
      <point x="123" y="-2"/>
    </contour>
    <contour>
      <point x="153" y="378" type="curve" smooth="yes"/>
      <point x="182" y="378"/>
      <point x="205" y="402"/>
      <point x="205" y="430" type="curve" smooth="yes"/>
      <point x="205" y="459"/>
      <point x="182" y="482"/>
      <point x="153" y="482" type="curve" smooth="yes"/>
      <point x="123" y="482"/>
      <point x="100" y="459"/>
      <point x="100" y="430" type="curve" smooth="yes"/>
      <point x="100" y="402"/>
      <point x="123" y="378"/>
    </contour>
  </outline>
</glyph>
<glyph name="cid40885" format="2">
  <advance height="1000" width="305"/>
  <unicode hex="003B"/>
  <outline>
    <contour>
      <point x="73" y="-154" type="line"/>
      <point x="150" y="-119"/>
      <point x="203" y="-59"/>
      <point x="203" y="26" type="curve" smooth="yes"/>
      <point x="203" y="46"/>
      <point x="201" y="62"/>
      <point x="196" y="80" type="curve"/>
      <point x="181" y="94"/>
      <point x="166" y="99"/>
      <point x="151" y="99" type="curve" smooth="yes"/>
      <point x="120" y="99"/>
      <point x="103" y="78"/>
      <point x="103" y="52" type="curve" smooth="yes"/>
      <point x="103" y="31"/>
      <point x="114" y="16"/>
      <point x="137" y="2" type="curve" smooth="yes"/>
      <point x="177" y="-24" type="line"/>
      <point x="167" y="7" type="line"/>
      <point x="157" y="-62"/>
      <point x="128" y="-93"/>
      <point x="61" y="-128" type="curve"/>
    </contour>
    <contour>
      <point x="153" y="378" type="curve" smooth="yes"/>
      <point x="182" y="378"/>
      <point x="205" y="402"/>
      <point x="205" y="430" type="curve" smooth="yes"/>
      <point x="205" y="459"/>
      <point x="182" y="482"/>
      <point x="153" y="482" type="curve" smooth="yes"/>
      <point x="123" y="482"/>
      <point x="100" y="459"/>
      <point x="100" y="430" type="curve" smooth="yes"/>
      <point x="100" y="402"/>
      <point x="123" y="378"/>
    </contour>
  </outline>
</glyph>
<glyph name="cid41354" format="2">
  <advance height="1000" width="545"/>
  <unicode hex="003C"/>
  <outline>
    <contour>
      <point x="63" y="341" type="line"/>
      <point x="461" y="103" type="line"/>
      <point x="482" y="138" type="line"/>
      <point x="98" y="365" type="line"/>
      <point x="98" y="348" type="line"/>
      <point x="482" y="574" type="line"/>
      <point x="461" y="609" type="line"/>
      <point x="63" y="372" type="line"/>
    </contour>
  </outline>
</glyph>
<glyph name="cid41353" format="2">
  <advance height="1000" width="545"/>
  <unicode hex="003D"/>
  <outline>
    <contour>
      <point x="510" y="233" type="curve"/>
      <point x="510" y="233"/>
      <point x="510" y="272"/>
      <point x="510" y="272" type="curve"/>
      <point x="510" y="272"/>
      <point x="35" y="272"/>
      <point x="35" y="272" type="curve"/>
      <point x="35" y="272"/>
      <point x="35" y="233"/>
      <point x="35" y="233" type="curve"/>
      <point x="35" y="233"/>
      <point x="510" y="233"/>
    </contour>
    <contour>
      <point x="510" y="441" type="curve"/>
      <point x="510" y="441"/>
      <point x="510" y="480"/>
      <point x="510" y="480" type="curve"/>
      <point x="510" y="480"/>
      <point x="35" y="480"/>
      <point x="35" y="480" type="curve"/>
      <point x="35" y="480"/>
      <point x="35" y="441"/>
      <point x="35" y="441" type="curve"/>
      <point x="35" y="441"/>
      <point x="510" y="441"/>
    </contour>
  </outline>
</glyph>
<glyph name="cid41355" format="2">
  <advance height="1000" width="545"/>
  <unicode hex="003E"/>
  <outline>
    <contour>
      <point x="482" y="371" type="line"/>
      <point x="84" y="609" type="line"/>
      <point x="63" y="574" type="line"/>
      <point x="447" y="347" type="line"/>
      <point x="447" y="364" type="line"/>
      <point x="63" y="138" type="line"/>
      <point x="84" y="103" type="line"/>
      <point x="482" y="340" type="line"/>
    </contour>
  </outline>
</glyph>
<glyph name="cid40895" format="2">
  <advance height="1000" width="400"/>
  <unicode hex="003F"/>
  <outline>
    <contour>
      <point x="147" y="-1" type="curve" smooth="yes"/>
      <point x="175" y="-1"/>
      <point x="196" y="20"/>
      <point x="196" y="46" type="curve" smooth="yes"/>
      <point x="196" y="73"/>
      <point x="175" y="94"/>
      <point x="147" y="94" type="curve" smooth="yes"/>
      <point x="120" y="94"/>
      <point x="99" y="73"/>
      <point x="99" y="46" type="curve" smooth="yes"/>
      <point x="99" y="20"/>
      <point x="120" y="-1"/>
    </contour>
    <contour>
      <point x="343" y="511" type="curve" smooth="yes"/>
      <point x="343" y="639"/>
      <point x="219" y="708"/>
      <point x="112" y="729" type="curve"/>
      <point x="87" y="722"/>
      <point x="74" y="710"/>
      <point x="74" y="688" type="curve" smooth="yes"/>
      <point x="74" y="668"/>
      <point x="85" y="653"/>
      <point x="128" y="646" type="curve" smooth="yes"/>
      <point x="293" y="620" type="line"/>
      <point x="192" y="677" type="line"/>
      <point x="265" y="633"/>
      <point x="305" y="586"/>
      <point x="305" y="524" type="curve" smooth="yes"/>
      <point x="305" y="476"/>
      <point x="285" y="446"/>
      <point x="231" y="417" type="curve"/>
      <point x="188" y="397" type="line" smooth="yes"/>
      <point x="130" y="369"/>
      <point x="112" y="350"/>
      <point x="112" y="320" type="curve" smooth="yes"/>
      <point x="112" y="303"/>
      <point x="116" y="287"/>
      <point x="125" y="250" type="curve" smooth="yes"/>
      <point x="134" y="211" type="line"/>
      <point x="160" y="211" type="line"/>
      <point x="157" y="284" type="line" smooth="yes"/>
      <point x="156" y="319"/>
      <point x="166" y="330"/>
      <point x="212" y="353" type="curve" smooth="yes"/>
      <point x="248" y="370" type="line" smooth="yes"/>
      <point x="311" y="401"/>
      <point x="343" y="443"/>
    </contour>
  </outline>
</glyph>
<glyph name="cid40999" format="2">
  <advance height="1000" width="856"/>
  <unicode hex="0040"/>
  <outline>
    <contour>
      <point x="353" y="64" type="curve" smooth="yes"/>
      <point x="417" y="64"/>
      <point x="469" y="114"/>
      <point x="525" y="191" type="curve"/>
      <point x="525" y="191"/>
      <point x="526" y="192"/>
      <point x="526" y="192" type="curve"/>
      <point x="526" y="192"/>
      <point x="519" y="202"/>
      <point x="519" y="202" type="curve"/>
      <point x="450" y="128"/>
      <point x="410" y="107"/>
      <point x="371" y="107" type="curve" smooth="yes"/>
      <point x="324" y="107"/>
      <point x="295" y="142"/>
      <point x="295" y="212" type="curve" smooth="yes"/>
      <point x="295" y="331"/>
      <point x="380" y="467"/>
      <point x="474" y="467" type="curve" smooth="yes"/>
      <point x="510" y="467"/>
      <point x="537" y="450"/>
      <point x="558" y="409" type="curve"/>
      <point x="558" y="409"/>
      <point x="580" y="447"/>
      <point x="580" y="447" type="curve"/>
      <point x="551" y="485"/>
      <point x="520" y="501"/>
      <point x="483" y="501" type="curve" smooth="yes"/>
      <point x="359" y="501"/>
      <point x="245" y="332"/>
      <point x="245" y="194" type="curve" smooth="yes"/>
      <point x="245" y="105"/>
      <point x="294" y="64"/>
    </contour>
    <contour>
      <point x="591" y="64" type="curve" smooth="yes"/>
      <point x="691" y="64"/>
      <point x="821" y="163"/>
      <point x="821" y="358" type="curve" smooth="yes"/>
      <point x="821" y="558"/>
      <point x="693" y="698"/>
      <point x="489" y="698" type="curve" smooth="yes"/>
      <point x="229" y="698"/>
      <point x="35" y="479"/>
      <point x="35" y="217" type="curve" smooth="yes"/>
      <point x="35" y="-20"/>
      <point x="190" y="-151"/>
      <point x="401" y="-151" type="curve" smooth="yes"/>
      <point x="471" y="-151"/>
      <point x="539" y="-137"/>
      <point x="598" y="-106" type="curve"/>
      <point x="598" y="-106"/>
      <point x="589" y="-86"/>
      <point x="589" y="-86" type="curve"/>
      <point x="536" y="-111"/>
      <point x="484" y="-122"/>
      <point x="412" y="-122" type="curve" smooth="yes"/>
      <point x="228" y="-122"/>
      <point x="80" y="0"/>
      <point x="80" y="223" type="curve" smooth="yes"/>
      <point x="80" y="463"/>
      <point x="251" y="669"/>
      <point x="484" y="669" type="curve" smooth="yes"/>
      <point x="658" y="669"/>
      <point x="781" y="553"/>
      <point x="781" y="363" type="curve" smooth="yes"/>
      <point x="781" y="186"/>
      <point x="683" y="96"/>
      <point x="602" y="96" type="curve" smooth="yes"/>
      <point x="552" y="96"/>
      <point x="532" y="128"/>
      <point x="544" y="185" type="curve"/>
      <point x="544" y="185"/>
      <point x="604" y="487"/>
      <point x="604" y="487" type="curve"/>
      <point x="604" y="487"/>
      <point x="590" y="497"/>
      <point x="590" y="497" type="curve"/>
      <point x="590" y="497"/>
      <point x="552" y="463"/>
      <point x="552" y="463" type="curve"/>
      <point x="552" y="463"/>
      <point x="495" y="174"/>
      <point x="495" y="174" type="curve"/>
      <point x="495" y="174"/>
      <point x="497" y="164"/>
      <point x="497" y="164" type="curve"/>
      <point x="493" y="104"/>
      <point x="527" y="64"/>
    </contour>
  </outline>
</glyph>
<glyph name="cid40005" format="2">
  <advance height="1000" width="675"/>
  <unicode hex="0041"/>
  <outline>
    <contour>
      <point x="9" y="10" type="curve"/>
      <point x="9" y="10"/>
      <point x="227" y="10"/>
      <point x="227" y="10" type="curve"/>
      <point x="227" y="10"/>
      <point x="227" y="38"/>
      <point x="227" y="38" type="curve"/>
      <point x="227" y="38"/>
      <point x="121" y="48"/>
      <point x="121" y="48" type="curve"/>
      <point x="121" y="48"/>
      <point x="104" y="48"/>
      <point x="104" y="48" type="curve"/>
      <point x="104" y="48"/>
      <point x="9" y="38"/>
      <point x="9" y="38" type="curve"/>
      <point x="9" y="38"/>
      <point x="9" y="10"/>
    </contour>
    <contour>
      <point x="81" y="10" type="curve"/>
      <point x="81" y="10"/>
      <point x="118" y="10"/>
      <point x="118" y="10" type="curve"/>
      <point x="118" y="10"/>
      <point x="326" y="650"/>
      <point x="326" y="650" type="curve"/>
      <point x="326" y="650"/>
      <point x="330" y="662"/>
      <point x="330" y="662" type="curve"/>
      <point x="330" y="662"/>
      <point x="311" y="662"/>
      <point x="311" y="662" type="curve"/>
      <point x="311" y="662"/>
      <point x="525" y="10"/>
      <point x="525" y="10" type="curve"/>
      <point x="525" y="10"/>
      <point x="590" y="10"/>
      <point x="590" y="10" type="curve"/>
      <point x="590" y="10"/>
      <point x="353" y="717"/>
      <point x="353" y="717" type="curve"/>
      <point x="353" y="717"/>
      <point x="315" y="717"/>
      <point x="315" y="717" type="curve"/>
      <point x="315" y="717"/>
      <point x="81" y="10"/>
    </contour>
    <contour>
      <point x="185" y="254" type="curve"/>
      <point x="185" y="254"/>
      <point x="471" y="254"/>
      <point x="471" y="254" type="curve"/>
      <point x="471" y="254"/>
      <point x="471" y="287"/>
      <point x="471" y="287" type="curve"/>
      <point x="471" y="287"/>
      <point x="185" y="287"/>
      <point x="185" y="287" type="curve"/>
      <point x="185" y="287"/>
      <point x="185" y="254"/>
    </contour>
    <contour>
      <point x="407" y="10" type="curve"/>
      <point x="407" y="10"/>
      <point x="668" y="10"/>
      <point x="668" y="10" type="curve"/>
      <point x="668" y="10"/>
      <point x="668" y="38"/>
      <point x="668" y="38" type="curve"/>
      <point x="668" y="38"/>
      <point x="551" y="48"/>
      <point x="551" y="48" type="curve"/>
      <point x="551" y="48"/>
      <point x="530" y="48"/>
      <point x="530" y="48" type="curve"/>
      <point x="530" y="48"/>
      <point x="407" y="38"/>
      <point x="407" y="38" type="curve"/>
      <point x="407" y="38"/>
      <point x="407" y="10"/>
    </contour>
  </outline>
</glyph>
<glyph name="cid40013" format="2">
  <advance height="1000" width="614"/>
  <unicode hex="0045"/>
  <outline>
    <contour>
      <point x="52" y="10" type="curve"/>
      <point x="52" y="10"/>
      <point x="186" y="10"/>
      <point x="186" y="10" type="curve"/>
      <point x="186" y="10"/>
      <point x="186" y="48"/>
      <point x="186" y="48" type="curve"/>
      <point x="186" y="48"/>
      <point x="176" y="48"/>
      <point x="176" y="48" type="curve"/>
      <point x="176" y="48"/>
      <point x="52" y="38"/>
      <point x="52" y="38" type="curve"/>
      <point x="52" y="38"/>
      <point x="52" y="10"/>
    </contour>
    <contour>
      <point x="152" y="10" type="curve"/>
      <point x="152" y="10"/>
      <point x="219" y="10"/>
      <point x="219" y="10" type="curve"/>
      <point x="216" y="113"/>
      <point x="216" y="226"/>
      <point x="216" y="352" type="curve"/>
      <point x="216" y="352"/>
      <point x="216" y="378"/>
      <point x="216" y="378" type="curve"/>
      <point x="216" y="496"/>
      <point x="216" y="608"/>
      <point x="219" y="710" type="curve"/>
      <point x="219" y="710"/>
      <point x="152" y="710"/>
      <point x="152" y="710" type="curve"/>
      <point x="155" y="607"/>
      <point x="155" y="495"/>
      <point x="155" y="386" type="curve"/>
      <point x="155" y="386"/>
      <point x="155" y="334"/>
      <point x="155" y="334" type="curve"/>
      <point x="155" y="225"/>
      <point x="155" y="112"/>
    </contour>
    <contour>
      <point x="185" y="10" type="curve"/>
      <point x="185" y="10"/>
      <point x="562" y="10"/>
      <point x="562" y="10" type="curve"/>
      <point x="562" y="10"/>
      <point x="572" y="185"/>
      <point x="572" y="185" type="curve"/>
      <point x="572" y="185"/>
      <point x="536" y="185"/>
      <point x="536" y="185" type="curve"/>
      <point x="536" y="185"/>
      <point x="508" y="24"/>
      <point x="508" y="24" type="curve"/>
      <point x="508" y="24"/>
      <point x="534" y="43"/>
      <point x="534" y="43" type="curve"/>
      <point x="534" y="43"/>
      <point x="185" y="43"/>
      <point x="185" y="43" type="curve"/>
      <point x="185" y="43"/>
      <point x="185" y="10"/>
    </contour>
    <contour>
      <point x="185" y="349" type="curve"/>
      <point x="185" y="349"/>
      <point x="411" y="349"/>
      <point x="411" y="349" type="curve"/>
      <point x="411" y="349"/>
      <point x="411" y="382"/>
      <point x="411" y="382" type="curve"/>
      <point x="411" y="382"/>
      <point x="185" y="382"/>
      <point x="185" y="382" type="curve"/>
      <point x="185" y="382"/>
      <point x="185" y="349"/>
    </contour>
    <contour>
      <point x="406" y="249" type="curve"/>
      <point x="406" y="249"/>
      <point x="435" y="249"/>
      <point x="435" y="249" type="curve"/>
      <point x="435" y="249"/>
      <point x="435" y="482"/>
      <point x="435" y="482" type="curve"/>
      <point x="435" y="482"/>
      <point x="406" y="482"/>
      <point x="406" y="482" type="curve"/>
      <point x="406" y="482"/>
      <point x="391" y="377"/>
      <point x="391" y="377" type="curve"/>
      <point x="391" y="377"/>
      <point x="391" y="357"/>
      <point x="391" y="357" type="curve"/>
      <point x="391" y="357"/>
      <point x="406" y="249"/>
    </contour>
    <contour>
      <point x="52" y="682" type="curve"/>
      <point x="52" y="682"/>
      <point x="176" y="671"/>
      <point x="176" y="671" type="curve"/>
      <point x="176" y="671"/>
      <point x="186" y="671"/>
      <point x="186" y="671" type="curve"/>
      <point x="186" y="671"/>
      <point x="186" y="710"/>
      <point x="186" y="710" type="curve"/>
      <point x="186" y="710"/>
      <point x="52" y="710"/>
      <point x="52" y="710" type="curve"/>
      <point x="52" y="710"/>
      <point x="52" y="682"/>
    </contour>
    <contour>
      <point x="518" y="537" type="curve"/>
      <point x="518" y="537"/>
      <point x="554" y="537"/>
      <point x="554" y="537" type="curve"/>
      <point x="554" y="537"/>
      <point x="545" y="710"/>
      <point x="545" y="710" type="curve"/>
      <point x="545" y="710"/>
      <point x="185" y="710"/>
      <point x="185" y="710" type="curve"/>
      <point x="185" y="710"/>
      <point x="185" y="677"/>
      <point x="185" y="677" type="curve"/>
      <point x="185" y="677"/>
      <point x="518" y="677"/>
      <point x="518" y="677" type="curve"/>
      <point x="518" y="677"/>
      <point x="491" y="697"/>
      <point x="491" y="697" type="curve"/>
      <point x="491" y="697"/>
      <point x="518" y="537"/>
    </contour>
  </outline>
</glyph>
<glyph name="cid40023" format="2">
  <advance height="1000" width="372"/>
  <unicode hex="004A"/>
  <outline>
    <contour>
      <point x="63" y="-122" type="curve" smooth="yes"/>
      <point x="108" y="-122"/>
      <point x="145" y="-104"/>
      <point x="177" y="-64" type="curve" smooth="yes"/>
      <point x="216" y="-15"/>
      <point x="230" y="44"/>
      <point x="230" y="197" type="curve" smooth="yes"/>
      <point x="230" y="385" type="line" smooth="yes"/>
      <point x="230" y="496"/>
      <point x="230" y="604"/>
      <point x="233" y="710" type="curve"/>
      <point x="167" y="710" type="line"/>
      <point x="171" y="368"/>
      <point x="172" y="272"/>
      <point x="172" y="141" type="curve" smooth="yes"/>
      <point x="172" y="4"/>
      <point x="152" y="-58"/>
      <point x="107" y="-92" type="curve"/>
      <point x="107" y="-98" type="line"/>
      <point x="128" y="-98" type="line"/>
      <point x="128" y="-92" type="line"/>
      <point x="105" y="-75" type="line" smooth="yes"/>
      <point x="81" y="-57"/>
      <point x="64" y="-49"/>
      <point x="42" y="-49" type="curve" smooth="yes"/>
      <point x="17" y="-49"/>
      <point x="-3" y="-61"/>
      <point x="-7" y="-84" type="curve"/>
      <point x="-2" y="-112"/>
      <point x="29" y="-122"/>
    </contour>
    <contour>
      <point x="54" y="682" type="line"/>
      <point x="189" y="671" type="line"/>
      <point x="208" y="671" type="line"/>
      <point x="333" y="682" type="line"/>
      <point x="333" y="710" type="line"/>
      <point x="54" y="710" type="line"/>
    </contour>
  </outline>
</glyph>
<glyph name="cid40027" format="2">
  <advance height="1000" width="590"/>
  <unicode hex="004C"/>
  <outline>
    <contour>
      <point x="52" y="10" type="curve"/>
      <point x="52" y="10"/>
      <point x="186" y="10"/>
      <point x="186" y="10" type="curve"/>
      <point x="186" y="10"/>
      <point x="186" y="48"/>
      <point x="186" y="48" type="curve"/>
      <point x="186" y="48"/>
      <point x="176" y="48"/>
      <point x="176" y="48" type="curve"/>
      <point x="176" y="48"/>
      <point x="52" y="38"/>
      <point x="52" y="38" type="curve"/>
      <point x="52" y="38"/>
      <point x="52" y="10"/>
    </contour>
    <contour>
      <point x="152" y="10" type="curve"/>
      <point x="152" y="10"/>
      <point x="219" y="10"/>
      <point x="219" y="10" type="curve"/>
      <point x="216" y="112"/>
      <point x="216" y="225"/>
      <point x="216" y="318" type="curve"/>
      <point x="216" y="318"/>
      <point x="216" y="371"/>
      <point x="216" y="371" type="curve"/>
      <point x="216" y="495"/>
      <point x="216" y="607"/>
      <point x="219" y="710" type="curve"/>
      <point x="219" y="710"/>
      <point x="152" y="710"/>
      <point x="152" y="710" type="curve"/>
      <point x="155" y="608"/>
      <point x="155" y="496"/>
      <point x="155" y="386" type="curve"/>
      <point x="155" y="386"/>
      <point x="155" y="334"/>
      <point x="155" y="334" type="curve"/>
      <point x="155" y="226"/>
      <point x="155" y="113"/>
    </contour>
    <contour>
      <point x="185" y="10" type="curve"/>
      <point x="185" y="10"/>
      <point x="543" y="10"/>
      <point x="543" y="10" type="curve"/>
      <point x="543" y="10"/>
      <point x="553" y="193"/>
      <point x="553" y="193" type="curve"/>
      <point x="553" y="193"/>
      <point x="516" y="193"/>
      <point x="516" y="193" type="curve"/>
      <point x="516" y="193"/>
      <point x="486" y="25"/>
      <point x="486" y="25" type="curve"/>
      <point x="486" y="25"/>
      <point x="511" y="43"/>
      <point x="511" y="43" type="curve"/>
      <point x="511" y="43"/>
      <point x="185" y="43"/>
      <point x="185" y="43" type="curve"/>
      <point x="185" y="43"/>
      <point x="185" y="10"/>
    </contour>
    <contour>
      <point x="52" y="682" type="curve"/>
      <point x="52" y="682"/>
      <point x="176" y="671"/>
      <point x="176" y="671" type="curve"/>
      <point x="176" y="671"/>
      <point x="194" y="671"/>
      <point x="194" y="671" type="curve"/>
      <point x="194" y="671"/>
      <point x="319" y="682"/>
      <point x="319" y="682" type="curve"/>
      <point x="319" y="682"/>
      <point x="319" y="710"/>
      <point x="319" y="710" type="curve"/>
      <point x="319" y="710"/>
      <point x="52" y="710"/>
      <point x="52" y="710" type="curve"/>
      <point x="52" y="710"/>
      <point x="52" y="682"/>
    </contour>
  </outline>
</glyph>
<glyph name="cid40041" format="2">
  <advance height="1000" width="593"/>
  <unicode hex="0050"/>
  <outline>
    <contour>
      <point x="52" y="10" type="curve"/>
      <point x="52" y="10"/>
      <point x="327" y="10"/>
      <point x="327" y="10" type="curve"/>
      <point x="327" y="10"/>
      <point x="327" y="38"/>
      <point x="327" y="38" type="curve"/>
      <point x="327" y="38"/>
      <point x="196" y="48"/>
      <point x="196" y="48" type="curve"/>
      <point x="196" y="48"/>
      <point x="176" y="48"/>
      <point x="176" y="48" type="curve"/>
      <point x="176" y="48"/>
      <point x="52" y="38"/>
      <point x="52" y="38" type="curve"/>
      <point x="52" y="38"/>
      <point x="52" y="10"/>
    </contour>
    <contour>
      <point x="152" y="10" type="curve"/>
      <point x="152" y="10"/>
      <point x="219" y="10"/>
      <point x="219" y="10" type="curve"/>
      <point x="216" y="113"/>
      <point x="216" y="222"/>
      <point x="216" y="325" type="curve"/>
      <point x="216" y="325"/>
      <point x="216" y="386"/>
      <point x="216" y="386" type="curve"/>
      <point x="216" y="496"/>
      <point x="216" y="608"/>
      <point x="219" y="710" type="curve"/>
      <point x="219" y="710"/>
      <point x="152" y="710"/>
      <point x="152" y="710" type="curve"/>
      <point x="155" y="607"/>
      <point x="155" y="495"/>
      <point x="155" y="386" type="curve"/>
      <point x="155" y="386"/>
      <point x="155" y="334"/>
      <point x="155" y="334" type="curve"/>
      <point x="155" y="225"/>
      <point x="155" y="112"/>
    </contour>
    <contour>
      <point x="184" y="299" type="curve"/>
      <point x="184" y="299"/>
      <point x="280" y="299"/>
      <point x="280" y="299" type="curve"/>
      <point x="475" y="299"/>
      <point x="557" y="392"/>
      <point x="557" y="508" type="curve" smooth="yes"/>
      <point x="557" y="630"/>
      <point x="476" y="710"/>
      <point x="314" y="710" type="curve"/>
      <point x="314" y="710"/>
      <point x="184" y="710"/>
      <point x="184" y="710" type="curve"/>
      <point x="184" y="710"/>
      <point x="184" y="678"/>
      <point x="184" y="678" type="curve"/>
      <point x="184" y="678"/>
      <point x="302" y="678"/>
      <point x="302" y="678" type="curve"/>
      <point x="436" y="678"/>
      <point x="493" y="617"/>
      <point x="493" y="508" type="curve" smooth="yes"/>
      <point x="493" y="405"/>
      <point x="435" y="331"/>
      <point x="280" y="331" type="curve"/>
      <point x="280" y="331"/>
      <point x="184" y="331"/>
      <point x="184" y="331" type="curve"/>
      <point x="184" y="331"/>
      <point x="184" y="299"/>
    </contour>
    <contour>
      <point x="52" y="682" type="curve"/>
      <point x="52" y="682"/>
      <point x="176" y="671"/>
      <point x="176" y="671" type="curve"/>
      <point x="176" y="671"/>
      <point x="186" y="671"/>
      <point x="186" y="671" type="curve"/>
      <point x="186" y="671"/>
      <point x="186" y="710"/>
      <point x="186" y="710" type="curve"/>
      <point x="186" y="710"/>
      <point x="52" y="710"/>
      <point x="52" y="710" type="curve"/>
      <point x="52" y="710"/>
      <point x="52" y="682"/>
    </contour>
  </outline>
</glyph>
<glyph name="cid40042" format="2">
  <advance height="1000" width="722"/>
  <unicode hex="0051"/>
  <outline>
    <contour>
      <point x="510" y="-205" type="curve" smooth="yes"/>
      <point x="547" y="-205"/>
      <point x="593" y="-196"/>
      <point x="626" y="-174" type="curve"/>
      <point x="626" y="-174"/>
      <point x="619" y="-150"/>
      <point x="619" y="-150" type="curve"/>
      <point x="587" y="-163"/>
      <point x="558" y="-168"/>
      <point x="527" y="-168" type="curve" smooth="yes"/>
      <point x="438" y="-168"/>
      <point x="381" y="-97"/>
      <point x="388" y="16" type="curve"/>
      <point x="388" y="16"/>
      <point x="328" y="17"/>
      <point x="328" y="17" type="curve"/>
      <point x="328" y="17"/>
      <point x="328" y="0"/>
      <point x="328" y="0" type="curve"/>
      <point x="328" y="-105"/>
      <point x="385" y="-205"/>
    </contour>
    <contour>
      <point x="361" y="-5" type="curve" smooth="yes"/>
      <point x="525" y="-5"/>
      <point x="665" y="135"/>
      <point x="665" y="359" type="curve" smooth="yes"/>
      <point x="665" y="589"/>
      <point x="525" y="724"/>
      <point x="361" y="724" type="curve" smooth="yes"/>
      <point x="198" y="724"/>
      <point x="57" y="584"/>
      <point x="57" y="359" type="curve" smooth="yes"/>
      <point x="57" y="130"/>
      <point x="197" y="-5"/>
    </contour>
    <contour>
      <point x="361" y="29" type="curve" smooth="yes"/>
      <point x="208" y="29"/>
      <point x="127" y="182"/>
      <point x="127" y="359" type="curve" smooth="yes"/>
      <point x="127" y="537"/>
      <point x="208" y="691"/>
      <point x="361" y="691" type="curve" smooth="yes"/>
      <point x="515" y="691"/>
      <point x="595" y="537"/>
      <point x="595" y="359" type="curve" smooth="yes"/>
      <point x="595" y="182"/>
      <point x="515" y="29"/>
    </contour>
  </outline>
</glyph>
<glyph name="cid40050" format="2">
  <advance height="1000" width="677"/>
  <unicode hex="0056"/>
  <outline>
    <contour>
      <point x="328" y="2" type="curve"/>
      <point x="328" y="2"/>
      <point x="358" y="2"/>
      <point x="358" y="2" type="curve"/>
      <point x="358" y="2"/>
      <point x="591" y="710"/>
      <point x="591" y="710" type="curve"/>
      <point x="591" y="710"/>
      <point x="552" y="710"/>
      <point x="552" y="710" type="curve"/>
      <point x="552" y="710"/>
      <point x="348" y="82"/>
      <point x="348" y="82" type="curve"/>
      <point x="348" y="82"/>
      <point x="344" y="68"/>
      <point x="344" y="68" type="curve"/>
      <point x="344" y="68"/>
      <point x="362" y="68"/>
      <point x="362" y="68" type="curve"/>
      <point x="362" y="68"/>
      <point x="148" y="710"/>
      <point x="148" y="710" type="curve"/>
      <point x="148" y="710"/>
      <point x="82" y="710"/>
      <point x="82" y="710" type="curve"/>
      <point x="82" y="710"/>
      <point x="328" y="2"/>
    </contour>
    <contour>
      <point x="8" y="682" type="curve"/>
      <point x="8" y="682"/>
      <point x="124" y="671"/>
      <point x="124" y="671" type="curve"/>
      <point x="124" y="671"/>
      <point x="142" y="671"/>
      <point x="142" y="671" type="curve"/>
      <point x="142" y="671"/>
      <point x="266" y="681"/>
      <point x="266" y="681" type="curve"/>
      <point x="266" y="681"/>
      <point x="266" y="710"/>
      <point x="266" y="710" type="curve"/>
      <point x="266" y="710"/>
      <point x="8" y="710"/>
      <point x="8" y="710" type="curve"/>
      <point x="8" y="710"/>
      <point x="8" y="682"/>
    </contour>
    <contour>
      <point x="437" y="681" type="curve"/>
      <point x="437" y="681"/>
      <point x="548" y="671"/>
      <point x="548" y="671" type="curve"/>
      <point x="548" y="671"/>
      <point x="565" y="671"/>
      <point x="565" y="671" type="curve"/>
      <point x="565" y="671"/>
      <point x="668" y="682"/>
      <point x="668" y="682" type="curve"/>
      <point x="668" y="682"/>
      <point x="668" y="710"/>
      <point x="668" y="710" type="curve"/>
      <point x="668" y="710"/>
      <point x="437" y="710"/>
      <point x="437" y="710" type="curve"/>
      <point x="437" y="710"/>
      <point x="437" y="681"/>
    </contour>
  </outline>
</glyph>
<glyph name="cid40056" format="2">
  <advance height="1000" width="986"/>
  <unicode hex="0057"/>
  <outline>
    <contour>
      <point x="287" y="3" type="line"/>
      <point x="317" y="3" type="line"/>
      <point x="499" y="616" type="line"/>
      <point x="503" y="630" type="line"/>
      <point x="486" y="630" type="line"/>
      <point x="676" y="3" type="line"/>
      <point x="706" y="3" type="line"/>
      <point x="893" y="710" type="line"/>
      <point x="857" y="710" type="line"/>
      <point x="697" y="96" type="line"/>
      <point x="693" y="81" type="line"/>
      <point x="708" y="81" type="line"/>
      <point x="522" y="710" type="line"/>
      <point x="495" y="710" type="line"/>
      <point x="310" y="98" type="line"/>
      <point x="306" y="84" type="line"/>
      <point x="322" y="84" type="line"/>
      <point x="156" y="710" type="line"/>
      <point x="92" y="710" type="line"/>
    </contour>
    <contour>
      <point x="12" y="682" type="line"/>
      <point x="129" y="671" type="line"/>
      <point x="147" y="671" type="line"/>
      <point x="266" y="682" type="line"/>
      <point x="266" y="710" type="line"/>
      <point x="12" y="710" type="line"/>
    </contour>
    <contour>
      <point x="385" y="682" type="line"/>
      <point x="500" y="671" type="line"/>
      <point x="519" y="671" type="line"/>
      <point x="635" y="682" type="line"/>
      <point x="635" y="710" type="line"/>
      <point x="385" y="710" type="line"/>
    </contour>
    <contour>
      <point x="747" y="682" type="line"/>
      <point x="855" y="671" type="line"/>
      <point x="872" y="671" type="line"/>
      <point x="977" y="682" type="line"/>
      <point x="977" y="710" type="line"/>
      <point x="747" y="710" type="line"/>
    </contour>
  </outline>
</glyph>
<glyph name="cid40060" format="2">
  <advance height="1000" width="564"/>
  <unicode hex="005A"/>
  <outline>
    <contour>
      <point x="26" y="10" type="line"/>
      <point x="528" y="10" type="line"/>
      <point x="539" y="189" type="line"/>
      <point x="501" y="189" type="line"/>
      <point x="470" y="25" type="line"/>
      <point x="497" y="43" type="line"/>
      <point x="294" y="43" type="line"/>
      <point x="95" y="43" type="line"/>
      <point x="95" y="54" type="line"/>
      <point x="87" y="26" type="line"/>
      <point x="516" y="684" type="line"/>
      <point x="516" y="710" type="line"/>
      <point x="47" y="710" type="line"/>
      <point x="37" y="533" type="line"/>
      <point x="75" y="533" type="line"/>
      <point x="106" y="696" type="line"/>
      <point x="78" y="677" type="line"/>
      <point x="264" y="677" type="line"/>
      <point x="449" y="677" type="line"/>
      <point x="449" y="665" type="line"/>
      <point x="457" y="694" type="line"/>
      <point x="26" y="36" type="line"/>
    </contour>
  </outline>
</glyph>
<glyph name="cid40940" format="2">
  <advance height="1000" width="316"/>
  <unicode hex="005B"/>
  <outline>
    <contour>
      <point x="103" y="-155" type="curve"/>
      <point x="103" y="-155"/>
      <point x="159" y="-155"/>
      <point x="159" y="-155" type="curve"/>
      <point x="156" y="-50"/>
      <point x="156" y="65"/>
      <point x="156" y="174" type="curve"/>
      <point x="156" y="174"/>
      <point x="156" y="425"/>
      <point x="156" y="425" type="curve"/>
      <point x="156" y="535"/>
      <point x="156" y="651"/>
      <point x="159" y="754" type="curve"/>
      <point x="159" y="754"/>
      <point x="103" y="754"/>
      <point x="103" y="754" type="curve"/>
      <point x="106" y="650"/>
      <point x="106" y="534"/>
      <point x="106" y="425" type="curve"/>
      <point x="106" y="425"/>
      <point x="106" y="174"/>
      <point x="106" y="174" type="curve"/>
      <point x="106" y="63"/>
      <point x="106" y="-52"/>
    </contour>
    <contour>
      <point x="129" y="-155" type="curve"/>
      <point x="129" y="-155"/>
      <point x="275" y="-155"/>
      <point x="275" y="-155" type="curve"/>
      <point x="275" y="-155"/>
      <point x="275" y="-126"/>
      <point x="275" y="-126" type="curve"/>
      <point x="275" y="-126"/>
      <point x="147" y="-116"/>
      <point x="147" y="-116" type="curve"/>
      <point x="147" y="-116"/>
      <point x="129" y="-116"/>
      <point x="129" y="-116" type="curve"/>
      <point x="129" y="-116"/>
      <point x="129" y="-155"/>
    </contour>
    <contour>
      <point x="129" y="714" type="curve"/>
      <point x="129" y="714"/>
      <point x="147" y="714"/>
      <point x="147" y="714" type="curve"/>
      <point x="147" y="714"/>
      <point x="275" y="724"/>
      <point x="275" y="724" type="curve"/>
      <point x="275" y="724"/>
      <point x="275" y="754"/>
      <point x="275" y="754" type="curve"/>
      <point x="275" y="754"/>
      <point x="129" y="754"/>
      <point x="129" y="754" type="curve"/>
      <point x="129" y="754"/>
      <point x="129" y="714"/>
    </contour>
  </outline>
</glyph>
<glyph name="cid40978" format="2">
  <advance height="1000" width="318"/>
  <unicode hex="005C"/>
  <outline>
    <contour>
      <point x="317" y="-156" type="curve"/>
      <point x="317" y="-156"/>
      <point x="42" y="748"/>
      <point x="42" y="748" type="curve"/>
      <point x="42" y="748"/>
      <point x="1" y="748"/>
      <point x="1" y="748" type="curve"/>
      <point x="1" y="748"/>
      <point x="276" y="-156"/>
      <point x="276" y="-156" type="curve"/>
      <point x="276" y="-156"/>
      <point x="317" y="-156"/>
    </contour>
  </outline>
</glyph>
<glyph name="cid40941" format="2">
  <advance height="1000" width="316"/>
  <unicode hex="005D"/>
  <outline>
    <contour>
      <point x="213" y="754" type="curve"/>
      <point x="213" y="754"/>
      <point x="157" y="754"/>
      <point x="157" y="754" type="curve"/>
      <point x="160" y="649"/>
      <point x="160" y="533"/>
      <point x="160" y="424" type="curve"/>
      <point x="160" y="424"/>
      <point x="160" y="173"/>
      <point x="160" y="173" type="curve"/>
      <point x="160" y="63"/>
      <point x="160" y="-52"/>
      <point x="157" y="-155" type="curve"/>
      <point x="157" y="-155"/>
      <point x="213" y="-155"/>
      <point x="213" y="-155" type="curve"/>
      <point x="210" y="-51"/>
      <point x="210" y="64"/>
      <point x="210" y="173" type="curve"/>
      <point x="210" y="173"/>
      <point x="210" y="424"/>
      <point x="210" y="424" type="curve"/>
      <point x="210" y="535"/>
      <point x="210" y="651"/>
    </contour>
    <contour>
      <point x="187" y="754" type="curve"/>
      <point x="187" y="754"/>
      <point x="42" y="754"/>
      <point x="42" y="754" type="curve"/>
      <point x="42" y="754"/>
      <point x="42" y="724"/>
      <point x="42" y="724" type="curve"/>
      <point x="42" y="724"/>
      <point x="170" y="714"/>
      <point x="170" y="714" type="curve"/>
      <point x="170" y="714"/>
      <point x="187" y="714"/>
      <point x="187" y="714" type="curve"/>
      <point x="187" y="714"/>
      <point x="187" y="754"/>
    </contour>
    <contour>
      <point x="187" y="-116" type="curve"/>
      <point x="187" y="-116"/>
      <point x="170" y="-116"/>
      <point x="170" y="-116" type="curve"/>
      <point x="170" y="-116"/>
      <point x="42" y="-126"/>
      <point x="42" y="-126" type="curve"/>
      <point x="42" y="-126"/>
      <point x="42" y="-155"/>
      <point x="42" y="-155" type="curve"/>
      <point x="42" y="-155"/>
      <point x="187" y="-155"/>
      <point x="187" y="-155" type="curve"/>
      <point x="187" y="-155"/>
      <point x="187" y="-116"/>
    </contour>
  </outline>
</glyph>
<glyph name="cid41362" format="2">
  <advance height="1000" width="545"/>
  <unicode hex="005E"/>
  <outline>
    <contour>
      <point x="90" y="252" type="curve"/>
      <point x="90" y="252"/>
      <point x="122" y="230"/>
      <point x="122" y="230" type="curve"/>
      <point x="122" y="230"/>
      <point x="286" y="496"/>
      <point x="286" y="496" type="curve"/>
      <point x="286" y="496"/>
      <point x="258" y="496"/>
      <point x="258" y="496" type="curve"/>
      <point x="258" y="496"/>
      <point x="426" y="230"/>
      <point x="426" y="230" type="curve"/>
      <point x="426" y="230"/>
      <point x="458" y="252"/>
      <point x="458" y="252" type="curve"/>
      <point x="458" y="252"/>
      <point x="291" y="518"/>
      <point x="291" y="518" type="curve"/>
      <point x="291" y="518"/>
      <point x="253" y="518"/>
      <point x="253" y="518" type="curve"/>
      <point x="253" y="518"/>
      <point x="90" y="252"/>
    </contour>
  </outline>
</glyph>
<glyph name="cid40933" format="2">
  <advance height="1000" width="524"/>
  <unicode hex="005F"/>
  <outline>
    <contour>
      <point x="-5" y="-58" type="curve"/>
      <point x="-5" y="-58"/>
      <point x="529" y="-58"/>
      <point x="529" y="-58" type="curve"/>
      <point x="529" y="-58"/>
      <point x="529" y="-15"/>
      <point x="529" y="-15" type="curve"/>
      <point x="529" y="-15"/>
      <point x="-5" y="-15"/>
      <point x="-5" y="-15" type="curve"/>
      <point x="-5" y="-15"/>
      <point x="-5" y="-58"/>
    </contour>
  </outline>
</glyph>
<glyph name="cid41521" format="2">
  <advance height="1000" width="416"/>
  <unicode hex="0060"/>
  <outline>
    <contour>
      <point x="258" y="601" type="line"/>
      <point x="225" y="650"/>
      <point x="189" y="701"/>
      <point x="159" y="744" type="curve" smooth="yes"/>
      <point x="140" y="771"/>
      <point x="128" y="781"/>
      <point x="114" y="781" type="curve" smooth="yes"/>
      <point x="100" y="781"/>
      <point x="86" y="772"/>
      <point x="86" y="754" type="curve" smooth="yes"/>
      <point x="86" y="741"/>
      <point x="95" y="729"/>
      <point x="119" y="705" type="curve" smooth="yes"/>
      <point x="154" y="671"/>
      <point x="193" y="632"/>
      <point x="240" y="587" type="curve"/>
    </contour>
  </outline>
</glyph>
<glyph name="cid40064" format="2">
  <advance height="1000" width="592"/>
  <unicode hex="0062"/>
  <outline>
    <contour>
      <point x="41" y="10" type="line"/>
      <point x="177" y="3" type="line"/>
      <point x="183" y="89" type="line"/>
      <point x="183" y="90" type="line"/>
      <point x="183" y="406" type="line"/>
      <point x="181" y="416" type="line"/>
      <point x="181" y="619" type="line"/>
      <point x="184" y="776" type="line"/>
      <point x="171" y="784" type="line"/>
      <point x="38" y="756" type="line"/>
      <point x="38" y="731" type="line"/>
      <point x="127" y="724" type="line"/>
      <point x="127" y="228" type="line" smooth="yes"/>
      <point x="127" y="175"/>
      <point x="126" y="100"/>
      <point x="125" y="45" type="curve"/>
      <point x="41" y="36" type="line"/>
    </contour>
    <contour>
      <point x="335" y="-4" type="curve" smooth="yes"/>
      <point x="454" y="-4"/>
      <point x="542" y="98"/>
      <point x="542" y="261" type="curve" smooth="yes"/>
      <point x="542" y="415"/>
      <point x="459" y="510"/>
      <point x="345" y="510" type="curve" smooth="yes"/>
      <point x="283" y="510"/>
      <point x="219" y="480"/>
      <point x="167" y="408" type="curve"/>
      <point x="156" y="408" type="line"/>
      <point x="165" y="376" type="line"/>
      <point x="226" y="447"/>
      <point x="278" y="471"/>
      <point x="329" y="471" type="curve" smooth="yes"/>
      <point x="418" y="471"/>
      <point x="482" y="397"/>
      <point x="482" y="256" type="curve" smooth="yes"/>
      <point x="482" y="104"/>
      <point x="410" y="36"/>
      <point x="327" y="36" type="curve" smooth="yes"/>
      <point x="270" y="36"/>
      <point x="220" y="62"/>
      <point x="165" y="125" type="curve"/>
      <point x="157" y="94" type="line"/>
      <point x="167" y="94" type="line"/>
      <point x="218" y="20"/>
      <point x="279" y="-4"/>
    </contour>
  </outline>
</glyph>
<glyph name="cid40070" format="2">
  <advance height="1000" width="361"/>
  <unicode hex="0066"/>
  <outline>
    <contour>
      <point x="36" y="10" type="line"/>
      <point x="287" y="10" type="line"/>
      <point x="287" y="36" type="line"/>
      <point x="165" y="48" type="line"/>
      <point x="149" y="48" type="line"/>
      <point x="36" y="36" type="line"/>
    </contour>
    <contour>
      <point x="125" y="10" type="curve"/>
      <point x="189" y="10" type="line"/>
      <point x="186" y="78"/>
      <point x="185" y="157"/>
      <point x="185" y="228" type="curve" smooth="yes"/>
      <point x="185" y="473" type="line" smooth="yes"/>
      <point x="181" y="609"/>
      <point x="197" y="665"/>
      <point x="226" y="711" type="curve" smooth="yes"/>
      <point x="251" y="748"/>
      <point x="284" y="769"/>
      <point x="322" y="773" type="curve"/>
      <point x="322" y="781" type="line"/>
      <point x="279" y="781" type="line"/>
      <point x="279" y="773" type="line"/>
      <point x="311" y="748" type="line" smooth="yes"/>
      <point x="337" y="729"/>
      <point x="356" y="718"/>
      <point x="378" y="718" type="curve" smooth="yes"/>
      <point x="404" y="718"/>
      <point x="419" y="733"/>
      <point x="420" y="752" type="curve"/>
      <point x="412" y="780"/>
      <point x="375" y="795"/>
      <point x="335" y="795" type="curve" smooth="yes"/>
      <point x="291" y="795"/>
      <point x="249" y="780"/>
      <point x="212" y="745" type="curve" smooth="yes"/>
      <point x="157" y="693"/>
      <point x="133" y="622"/>
      <point x="129" y="494" type="curve" smooth="yes"/>
      <point x="129" y="487" type="line"/>
      <point x="151" y="501" type="line"/>
      <point x="35" y="490" type="line"/>
      <point x="35" y="461" type="line"/>
      <point x="129" y="461" type="line"/>
      <point x="129" y="228" type="line" smooth="yes"/>
      <point x="129" y="157"/>
      <point x="128" y="78"/>
    </contour>
    <contour>
      <point x="156" y="461" type="line"/>
      <point x="337" y="461" type="line"/>
      <point x="337" y="497" type="line"/>
      <point x="156" y="497" type="line"/>
    </contour>
  </outline>
</glyph>
<glyph name="cid40077" format="2">
  <advance height="1000" width="284"/>
  <unicode hex="006A"/>
  <outline>
    <contour>
      <point x="8" y="-254" type="curve" smooth="yes"/>
      <point x="56" y="-254"/>
      <point x="86" y="-239"/>
      <point x="118" y="-206" type="curve" smooth="yes"/>
      <point x="175" y="-150"/>
      <point x="181" y="-71"/>
      <point x="181" y="110" type="curve"/>
      <point x="181" y="110"/>
      <point x="181" y="370"/>
      <point x="181" y="370" type="curve"/>
      <point x="181" y="370"/>
      <point x="184" y="499"/>
      <point x="184" y="499" type="curve"/>
      <point x="184" y="499"/>
      <point x="172" y="507"/>
      <point x="172" y="507" type="curve"/>
      <point x="172" y="507"/>
      <point x="35" y="472"/>
      <point x="35" y="472" type="curve"/>
      <point x="35" y="472"/>
      <point x="35" y="446"/>
      <point x="35" y="446" type="curve"/>
      <point x="35" y="446"/>
      <point x="124" y="441"/>
      <point x="124" y="441" type="curve"/>
      <point x="126" y="392"/>
      <point x="127" y="342"/>
      <point x="127" y="277" type="curve"/>
      <point x="127" y="277"/>
      <point x="127" y="89"/>
      <point x="127" y="89" type="curve"/>
      <point x="127" y="-46"/>
      <point x="122" y="-138"/>
      <point x="96" y="-183" type="curve" smooth="yes"/>
      <point x="83" y="-205"/>
      <point x="66" y="-220"/>
      <point x="47" y="-227" type="curve"/>
      <point x="47" y="-227"/>
      <point x="47" y="-235"/>
      <point x="47" y="-235" type="curve"/>
      <point x="47" y="-235"/>
      <point x="77" y="-235"/>
      <point x="77" y="-235" type="curve"/>
      <point x="77" y="-235"/>
      <point x="77" y="-229"/>
      <point x="77" y="-229" type="curve"/>
      <point x="77" y="-229"/>
      <point x="42" y="-206"/>
      <point x="42" y="-206" type="curve"/>
      <point x="19" y="-191"/>
      <point x="-1" y="-183"/>
      <point x="-21" y="-183" type="curve" smooth="yes"/>
      <point x="-46" y="-183"/>
      <point x="-62" y="-195"/>
      <point x="-68" y="-216" type="curve"/>
      <point x="-63" y="-234"/>
      <point x="-40" y="-254"/>
    </contour>
    <contour>
      <point x="149" y="639" type="curve" smooth="yes"/>
      <point x="176" y="639"/>
      <point x="198" y="658"/>
      <point x="198" y="687" type="curve" smooth="yes"/>
      <point x="198" y="715"/>
      <point x="176" y="735"/>
      <point x="149" y="735" type="curve" smooth="yes"/>
      <point x="122" y="735"/>
      <point x="99" y="715"/>
      <point x="99" y="687" type="curve" smooth="yes"/>
      <point x="99" y="658"/>
      <point x="122" y="639"/>
    </contour>
  </outline>
</glyph>
<glyph name="cid40078" format="2">
  <advance height="1000" width="556"/>
  <unicode hex="006B"/>
  <outline>
    <contour>
      <point x="38" y="10" type="curve"/>
      <point x="38" y="10"/>
      <point x="266" y="10"/>
      <point x="266" y="10" type="curve"/>
      <point x="266" y="10"/>
      <point x="266" y="36"/>
      <point x="266" y="36" type="curve"/>
      <point x="266" y="36"/>
      <point x="161" y="48"/>
      <point x="161" y="48" type="curve"/>
      <point x="161" y="48"/>
      <point x="146" y="48"/>
      <point x="146" y="48" type="curve"/>
      <point x="146" y="48"/>
      <point x="38" y="36"/>
      <point x="38" y="36" type="curve"/>
      <point x="38" y="36"/>
      <point x="38" y="10"/>
    </contour>
    <contour>
      <point x="124" y="10" type="curve"/>
      <point x="124" y="10"/>
      <point x="186" y="10"/>
      <point x="186" y="10" type="curve"/>
      <point x="184" y="66"/>
      <point x="183" y="161"/>
      <point x="183" y="228" type="curve"/>
      <point x="183" y="228"/>
      <point x="183" y="619"/>
      <point x="183" y="619" type="curve"/>
      <point x="183" y="619"/>
      <point x="186" y="776"/>
      <point x="186" y="776" type="curve"/>
      <point x="186" y="776"/>
      <point x="173" y="784"/>
      <point x="173" y="784" type="curve"/>
      <point x="173" y="784"/>
      <point x="38" y="756"/>
      <point x="38" y="756" type="curve"/>
      <point x="38" y="756"/>
      <point x="38" y="731"/>
      <point x="38" y="731" type="curve"/>
      <point x="38" y="731"/>
      <point x="127" y="724"/>
      <point x="127" y="724" type="curve"/>
      <point x="127" y="724"/>
      <point x="127" y="228"/>
      <point x="127" y="228" type="curve"/>
      <point x="127" y="161"/>
      <point x="126" y="66"/>
    </contour>
    <contour>
      <point x="156" y="172" type="curve"/>
      <point x="156" y="172"/>
      <point x="472" y="497"/>
      <point x="472" y="497" type="curve"/>
      <point x="472" y="497"/>
      <point x="428" y="497"/>
      <point x="428" y="497" type="curve"/>
      <point x="428" y="497"/>
      <point x="293" y="357"/>
      <point x="293" y="357" type="curve"/>
      <point x="293" y="357"/>
      <point x="159" y="217"/>
      <point x="159" y="217" type="curve"/>
      <point x="159" y="217"/>
      <point x="156" y="217"/>
      <point x="156" y="217" type="curve"/>
      <point x="156" y="217"/>
      <point x="156" y="172"/>
    </contour>
    <contour>
      <point x="433" y="10" type="curve"/>
      <point x="433" y="10"/>
      <point x="553" y="10"/>
      <point x="553" y="10" type="curve"/>
      <point x="553" y="10"/>
      <point x="553" y="36"/>
      <point x="553" y="36" type="curve"/>
      <point x="553" y="36"/>
      <point x="477" y="44"/>
      <point x="477" y="44" type="curve"/>
      <point x="477" y="44"/>
      <point x="297" y="334"/>
      <point x="297" y="334" type="curve"/>
      <point x="297" y="334"/>
      <point x="257" y="295"/>
      <point x="257" y="295" type="curve"/>
      <point x="257" y="295"/>
      <point x="433" y="10"/>
    </contour>
    <contour>
      <point x="301" y="470" type="curve"/>
      <point x="301" y="470"/>
      <point x="402" y="456"/>
      <point x="402" y="456" type="curve"/>
      <point x="402" y="456"/>
      <point x="420" y="458"/>
      <point x="420" y="458" type="curve"/>
      <point x="420" y="458"/>
      <point x="530" y="470"/>
      <point x="530" y="470" type="curve"/>
      <point x="530" y="470"/>
      <point x="530" y="497"/>
      <point x="530" y="497" type="curve"/>
      <point x="530" y="497"/>
      <point x="301" y="497"/>
      <point x="301" y="497" type="curve"/>
      <point x="301" y="497"/>
      <point x="301" y="470"/>
    </contour>
  </outline>
</glyph>
<glyph name="cid40086" format="2">
  <advance height="1000" width="593"/>
  <unicode hex="0070"/>
  <outline>
    <contour>
      <point x="41" y="-246" type="curve"/>
      <point x="41" y="-246"/>
      <point x="284" y="-246"/>
      <point x="284" y="-246" type="curve"/>
      <point x="284" y="-246"/>
      <point x="284" y="-220"/>
      <point x="284" y="-220" type="curve"/>
      <point x="284" y="-220"/>
      <point x="164" y="-207"/>
      <point x="164" y="-207" type="curve"/>
      <point x="164" y="-207"/>
      <point x="149" y="-207"/>
      <point x="149" y="-207" type="curve"/>
      <point x="149" y="-207"/>
      <point x="41" y="-220"/>
      <point x="41" y="-220" type="curve"/>
      <point x="41" y="-220"/>
      <point x="41" y="-246"/>
    </contour>
    <contour>
      <point x="126" y="-246" type="curve"/>
      <point x="126" y="-246"/>
      <point x="187" y="-246"/>
      <point x="187" y="-246" type="curve"/>
      <point x="185" y="-189"/>
      <point x="184" y="-94"/>
      <point x="184" y="-26" type="curve"/>
      <point x="184" y="-26"/>
      <point x="184" y="83"/>
      <point x="184" y="83" type="curve"/>
      <point x="184" y="83"/>
      <point x="185" y="89"/>
      <point x="185" y="89" type="curve"/>
      <point x="185" y="89"/>
      <point x="185" y="409"/>
      <point x="185" y="409" type="curve"/>
      <point x="185" y="409"/>
      <point x="184" y="414"/>
      <point x="184" y="414" type="curve"/>
      <point x="184" y="414"/>
      <point x="180" y="499"/>
      <point x="180" y="499" type="curve"/>
      <point x="180" y="499"/>
      <point x="167" y="507"/>
      <point x="167" y="507" type="curve"/>
      <point x="167" y="507"/>
      <point x="38" y="472"/>
      <point x="38" y="472" type="curve"/>
      <point x="38" y="472"/>
      <point x="38" y="446"/>
      <point x="38" y="446" type="curve"/>
      <point x="38" y="446"/>
      <point x="126" y="441"/>
      <point x="126" y="441" type="curve"/>
      <point x="128" y="392"/>
      <point x="129" y="341"/>
      <point x="129" y="276" type="curve"/>
      <point x="129" y="276"/>
      <point x="129" y="-27"/>
      <point x="129" y="-27" type="curve"/>
      <point x="129" y="-95"/>
      <point x="128" y="-189"/>
    </contour>
    <contour>
      <point x="336" y="-4" type="curve" smooth="yes"/>
      <point x="456" y="-4"/>
      <point x="543" y="96"/>
      <point x="543" y="259" type="curve" smooth="yes"/>
      <point x="543" y="414"/>
      <point x="460" y="510"/>
      <point x="345" y="510" type="curve" smooth="yes"/>
      <point x="285" y="510"/>
      <point x="223" y="480"/>
      <point x="172" y="411" type="curve"/>
      <point x="172" y="411"/>
      <point x="157" y="411"/>
      <point x="157" y="411" type="curve"/>
      <point x="157" y="411"/>
      <point x="166" y="376"/>
      <point x="166" y="376" type="curve"/>
      <point x="227" y="446"/>
      <point x="279" y="471"/>
      <point x="331" y="471" type="curve" smooth="yes"/>
      <point x="418" y="471"/>
      <point x="483" y="397"/>
      <point x="483" y="255" type="curve" smooth="yes"/>
      <point x="483" y="102"/>
      <point x="411" y="36"/>
      <point x="326" y="36" type="curve" smooth="yes"/>
      <point x="268" y="36"/>
      <point x="222" y="59"/>
      <point x="166" y="122" type="curve"/>
      <point x="166" y="122"/>
      <point x="157" y="87"/>
      <point x="157" y="87" type="curve"/>
      <point x="157" y="87"/>
      <point x="172" y="87"/>
      <point x="172" y="87" type="curve"/>
      <point x="222" y="17"/>
      <point x="281" y="-4"/>
    </contour>
  </outline>
</glyph>
<glyph name="cid40088" format="2">
  <advance height="1000" width="565"/>
  <unicode hex="0071"/>
  <outline>
    <contour>
      <point x="312" y="-246" type="curve"/>
      <point x="312" y="-246"/>
      <point x="555" y="-246"/>
      <point x="555" y="-246" type="curve"/>
      <point x="555" y="-246"/>
      <point x="555" y="-220"/>
      <point x="555" y="-220" type="curve"/>
      <point x="555" y="-220"/>
      <point x="448" y="-207"/>
      <point x="448" y="-207" type="curve"/>
      <point x="448" y="-207"/>
      <point x="433" y="-207"/>
      <point x="433" y="-207" type="curve"/>
      <point x="433" y="-207"/>
      <point x="312" y="-220"/>
      <point x="312" y="-220" type="curve"/>
      <point x="312" y="-220"/>
      <point x="312" y="-246"/>
    </contour>
    <contour>
      <point x="254" y="-4" type="curve" smooth="yes"/>
      <point x="318" y="-4"/>
      <point x="374" y="26"/>
      <point x="420" y="93" type="curve"/>
      <point x="420" y="93"/>
      <point x="431" y="93"/>
      <point x="431" y="93" type="curve"/>
      <point x="431" y="93"/>
      <point x="421" y="126"/>
      <point x="421" y="126" type="curve"/>
      <point x="372" y="63"/>
      <point x="328" y="36"/>
      <point x="268" y="36" type="curve" smooth="yes"/>
      <point x="179" y="36"/>
      <point x="110" y="105"/>
      <point x="110" y="247" type="curve" smooth="yes"/>
      <point x="110" y="401"/>
      <point x="185" y="471"/>
      <point x="275" y="471" type="curve" smooth="yes"/>
      <point x="328" y="471"/>
      <point x="370" y="448"/>
      <point x="423" y="389" type="curve"/>
      <point x="423" y="389"/>
      <point x="432" y="421"/>
      <point x="432" y="421" type="curve"/>
      <point x="432" y="421"/>
      <point x="421" y="421"/>
      <point x="421" y="421" type="curve"/>
      <point x="374" y="486"/>
      <point x="318" y="510"/>
      <point x="265" y="510" type="curve" smooth="yes"/>
      <point x="146" y="510"/>
      <point x="50" y="409"/>
      <point x="50" y="246" type="curve" smooth="yes"/>
      <point x="50" y="95"/>
      <point x="135" y="-4"/>
    </contour>
    <contour>
      <point x="409" y="-246" type="curve"/>
      <point x="409" y="-246"/>
      <point x="470" y="-246"/>
      <point x="470" y="-246" type="curve"/>
      <point x="468" y="-178"/>
      <point x="467" y="-98"/>
      <point x="467" y="-26" type="curve"/>
      <point x="467" y="-26"/>
      <point x="467" y="365"/>
      <point x="467" y="365" type="curve"/>
      <point x="467" y="365"/>
      <point x="470" y="498"/>
      <point x="470" y="498" type="curve"/>
      <point x="470" y="498"/>
      <point x="453" y="504"/>
      <point x="453" y="504" type="curve"/>
      <point x="453" y="504"/>
      <point x="411" y="425"/>
      <point x="411" y="425" type="curve"/>
      <point x="411" y="425"/>
      <point x="411" y="423"/>
      <point x="411" y="423" type="curve"/>
      <point x="411" y="423"/>
      <point x="411" y="99"/>
      <point x="411" y="99" type="curve"/>
      <point x="411" y="99"/>
      <point x="412" y="92"/>
      <point x="412" y="92" type="curve"/>
      <point x="412" y="92"/>
      <point x="412" y="-26"/>
      <point x="412" y="-26" type="curve"/>
      <point x="412" y="-98"/>
      <point x="411" y="-178"/>
    </contour>
  </outline>
</glyph>
<glyph name="cid40090" format="2">
  <advance height="1000" width="423"/>
  <unicode hex="0072"/>
  <outline>
    <contour>
      <point x="44" y="10" type="line"/>
      <point x="279" y="10" type="line"/>
      <point x="279" y="36" type="line"/>
      <point x="166" y="48" type="line"/>
      <point x="150" y="48" type="line"/>
      <point x="44" y="36" type="line"/>
    </contour>
    <contour>
      <point x="125" y="10" type="curve"/>
      <point x="188" y="10" type="line"/>
      <point x="186" y="57"/>
      <point x="185" y="164"/>
      <point x="185" y="228" type="curve" smooth="yes"/>
      <point x="185" y="360" type="line"/>
      <point x="185" y="363" type="line"/>
      <point x="179" y="499" type="line"/>
      <point x="167" y="507" type="line"/>
      <point x="37" y="472" type="line"/>
      <point x="37" y="446" type="line"/>
      <point x="126" y="441" type="line"/>
      <point x="128" y="392"/>
      <point x="129" y="343"/>
      <point x="129" y="278" type="curve" smooth="yes"/>
      <point x="129" y="228" type="line" smooth="yes"/>
      <point x="129" y="164"/>
      <point x="128" y="57"/>
    </contour>
    <contour>
      <point x="183" y="311" type="line"/>
      <point x="217" y="407"/>
      <point x="267" y="461"/>
      <point x="336" y="477" type="curve"/>
      <point x="289" y="475" type="line"/>
      <point x="313" y="454" type="line" smooth="yes"/>
      <point x="332" y="437"/>
      <point x="348" y="427"/>
      <point x="369" y="427" type="curve" smooth="yes"/>
      <point x="398" y="427"/>
      <point x="414" y="444"/>
      <point x="415" y="477" type="curve"/>
      <point x="406" y="496"/>
      <point x="378" y="510"/>
      <point x="345" y="510" type="curve" smooth="yes"/>
      <point x="278" y="510"/>
      <point x="212" y="451"/>
      <point x="181" y="359" type="curve"/>
      <point x="168" y="359" type="line"/>
    </contour>
  </outline>
</glyph>
<glyph name="cid40093" format="2">
  <advance height="1000" width="336"/>
  <unicode hex="0074"/>
  <outline>
    <contour>
      <point x="139" y="461" type="line"/>
      <point x="311" y="461" type="line"/>
      <point x="311" y="497" type="line"/>
      <point x="139" y="497" type="line"/>
    </contour>
    <contour>
      <point x="217" y="-4" type="curve" smooth="yes"/>
      <point x="262" y="-4"/>
      <point x="295" y="12"/>
      <point x="320" y="40" type="curve"/>
      <point x="306" y="58" type="line"/>
      <point x="281" y="42"/>
      <point x="261" y="34"/>
      <point x="232" y="34" type="curve" smooth="yes"/>
      <point x="190" y="34"/>
      <point x="166" y="60"/>
      <point x="166" y="120" type="curve" smooth="yes"/>
      <point x="166" y="470" type="line"/>
      <point x="166" y="482" type="line"/>
      <point x="173" y="646" type="line"/>
      <point x="135" y="646" type="line"/>
      <point x="110" y="481" type="line"/>
      <point x="135" y="501" type="line"/>
      <point x="12" y="490" type="line"/>
      <point x="12" y="461" type="line"/>
      <point x="110" y="461" type="line"/>
      <point x="110" y="197" type="line" smooth="yes"/>
      <point x="110" y="163"/>
      <point x="109" y="143"/>
      <point x="109" y="114" type="curve" smooth="yes"/>
      <point x="109" y="36"/>
      <point x="145" y="-4"/>
    </contour>
  </outline>
</glyph>
<glyph name="cid40096" format="2">
  <advance height="1000" width="513"/>
  <unicode hex="0076"/>
  <outline>
    <contour>
      <point x="244" y="4" type="curve"/>
      <point x="244" y="4"/>
      <point x="274" y="4"/>
      <point x="274" y="4" type="curve"/>
      <point x="274" y="4"/>
      <point x="458" y="497"/>
      <point x="458" y="497" type="curve"/>
      <point x="458" y="497"/>
      <point x="419" y="497"/>
      <point x="419" y="497" type="curve"/>
      <point x="419" y="497"/>
      <point x="267" y="70"/>
      <point x="267" y="70" type="curve"/>
      <point x="267" y="70"/>
      <point x="263" y="59"/>
      <point x="263" y="59" type="curve"/>
      <point x="263" y="59"/>
      <point x="279" y="59"/>
      <point x="279" y="59" type="curve"/>
      <point x="279" y="59"/>
      <point x="115" y="497"/>
      <point x="115" y="497" type="curve"/>
      <point x="115" y="497"/>
      <point x="49" y="497"/>
      <point x="49" y="497" type="curve"/>
      <point x="49" y="497"/>
      <point x="244" y="4"/>
    </contour>
    <contour>
      <point x="-3" y="470" type="curve"/>
      <point x="-3" y="470"/>
      <point x="92" y="458"/>
      <point x="92" y="458" type="curve"/>
      <point x="92" y="458"/>
      <point x="108" y="458"/>
      <point x="108" y="458" type="curve"/>
      <point x="108" y="458"/>
      <point x="217" y="470"/>
      <point x="217" y="470" type="curve"/>
      <point x="217" y="470"/>
      <point x="217" y="497"/>
      <point x="217" y="497" type="curve"/>
      <point x="217" y="497"/>
      <point x="-3" y="497"/>
      <point x="-3" y="497" type="curve"/>
      <point x="-3" y="497"/>
      <point x="-3" y="470"/>
    </contour>
    <contour>
      <point x="320" y="470" type="curve"/>
      <point x="320" y="470"/>
      <point x="418" y="458"/>
      <point x="418" y="458" type="curve"/>
      <point x="418" y="458"/>
      <point x="432" y="458"/>
      <point x="432" y="458" type="curve"/>
      <point x="432" y="458"/>
      <point x="508" y="470"/>
      <point x="508" y="470" type="curve"/>
      <point x="508" y="470"/>
      <point x="508" y="497"/>
      <point x="508" y="497" type="curve"/>
      <point x="508" y="497"/>
      <point x="320" y="497"/>
      <point x="320" y="497" type="curve"/>
      <point x="320" y="497"/>
      <point x="320" y="470"/>
    </contour>
  </outline>
</glyph>
<glyph name="cid40097" format="2">
  <advance height="1000" width="783"/>
  <unicode hex="0077"/>
  <outline>
    <contour>
      <point x="226" y="4" type="line"/>
      <point x="252" y="4" type="line"/>
      <point x="401" y="430" type="line"/>
      <point x="406" y="442" type="line"/>
      <point x="387" y="442" type="line"/>
      <point x="538" y="4" type="line"/>
      <point x="564" y="4" type="line"/>
      <point x="726" y="497" type="line"/>
      <point x="687" y="497" type="line"/>
      <point x="556" y="76" type="line"/>
      <point x="552" y="62" type="line"/>
      <point x="570" y="62" type="line"/>
      <point x="418" y="497" type="line"/>
      <point x="392" y="497" type="line"/>
      <point x="244" y="77" type="line"/>
      <point x="239" y="62" type="line"/>
      <point x="258" y="62" type="line"/>
      <point x="116" y="497" type="line"/>
      <point x="53" y="497" type="line"/>
    </contour>
    <contour>
      <point x="0" y="470" type="line"/>
      <point x="90" y="458" type="line"/>
      <point x="106" y="458" type="line"/>
      <point x="213" y="470" type="line"/>
      <point x="213" y="497" type="line"/>
      <point x="0" y="497" type="line"/>
    </contour>
    <contour>
      <point x="304" y="470" type="line"/>
      <point x="398" y="458" type="line"/>
      <point x="417" y="458" type="line"/>
      <point x="509" y="470" type="line"/>
      <point x="509" y="497" type="line"/>
      <point x="304" y="497" type="line"/>
    </contour>
    <contour>
      <point x="591" y="470" type="line"/>
      <point x="690" y="458" type="line"/>
      <point x="703" y="458" type="line"/>
      <point x="775" y="470" type="line"/>
      <point x="775" y="497" type="line"/>
      <point x="591" y="497" type="line"/>
    </contour>
  </outline>
</glyph>
<glyph name="cid40104" format="2">
  <advance height="1000" width="466"/>
  <unicode hex="007A"/>
  <outline>
    <contour>
      <point x="43" y="10" type="line"/>
      <point x="424" y="10" type="line"/>
      <point x="433" y="166" type="line"/>
      <point x="399" y="166" type="line"/>
      <point x="368" y="20" type="line"/>
      <point x="394" y="39" type="line"/>
      <point x="240" y="39" type="line"/>
      <point x="103" y="39" type="line"/>
      <point x="103" y="58" type="line"/>
      <point x="96" y="20" type="line"/>
      <point x="417" y="472" type="line"/>
      <point x="417" y="497" type="line"/>
      <point x="53" y="497" type="line"/>
      <point x="47" y="354" type="line"/>
      <point x="80" y="351" type="line"/>
      <point x="109" y="485" type="line"/>
      <point x="81" y="467" type="line"/>
      <point x="227" y="467" type="line"/>
      <point x="357" y="467" type="line"/>
      <point x="364" y="458" type="line"/>
      <point x="364" y="485" type="line"/>
      <point x="43" y="35" type="line"/>
    </contour>
  </outline>
</glyph>
<glyph name="cid40945" format="2">
  <advance height="1000" width="356"/>
  <unicode hex="007B"/>
  <outline>
    <contour>
      <point x="44" y="286" type="curve"/>
      <point x="134" y="275"/>
      <point x="173" y="241"/>
      <point x="173" y="187" type="curve" smooth="yes"/>
      <point x="173" y="134"/>
      <point x="124" y="55"/>
      <point x="124" y="-28" type="curve" smooth="yes"/>
      <point x="124" y="-109"/>
      <point x="171" y="-155"/>
      <point x="283" y="-155" type="curve"/>
      <point x="283" y="-155"/>
      <point x="323" y="-155"/>
      <point x="323" y="-155" type="curve"/>
      <point x="323" y="-155"/>
      <point x="323" y="-127"/>
      <point x="323" y="-127" type="curve"/>
      <point x="323" y="-127"/>
      <point x="290" y="-124"/>
      <point x="290" y="-124" type="curve"/>
      <point x="200" y="-117"/>
      <point x="175" y="-92"/>
      <point x="175" y="-25" type="curve" smooth="yes"/>
      <point x="175" y="55"/>
      <point x="208" y="126"/>
      <point x="208" y="180" type="curve" smooth="yes"/>
      <point x="208" y="249"/>
      <point x="168" y="299"/>
      <point x="68" y="303" type="curve"/>
      <point x="68" y="303"/>
      <point x="68" y="295"/>
      <point x="68" y="295" type="curve"/>
      <point x="168" y="300"/>
      <point x="208" y="349"/>
      <point x="208" y="419" type="curve" smooth="yes"/>
      <point x="208" y="472"/>
      <point x="175" y="544"/>
      <point x="175" y="624" type="curve" smooth="yes"/>
      <point x="175" y="690"/>
      <point x="200" y="715"/>
      <point x="290" y="722" type="curve"/>
      <point x="290" y="722"/>
      <point x="323" y="726"/>
      <point x="323" y="726" type="curve"/>
      <point x="323" y="726"/>
      <point x="323" y="754"/>
      <point x="323" y="754" type="curve"/>
      <point x="323" y="754"/>
      <point x="283" y="754"/>
      <point x="283" y="754" type="curve"/>
      <point x="171" y="754"/>
      <point x="124" y="707"/>
      <point x="124" y="627" type="curve" smooth="yes"/>
      <point x="124" y="544"/>
      <point x="173" y="466"/>
      <point x="173" y="412" type="curve" smooth="yes"/>
      <point x="173" y="357"/>
      <point x="134" y="323"/>
      <point x="44" y="313" type="curve"/>
      <point x="44" y="313"/>
      <point x="44" y="286"/>
    </contour>
  </outline>
</glyph>
<glyph name="cid40976" format="2">
  <advance height="1000" width="296"/>
  <unicode hex="007C"/>
  <outline>
    <contour>
      <point x="127" y="-250" type="line"/>
      <point x="170" y="-250" type="line"/>
      <point x="170" y="790" type="line"/>
      <point x="127" y="790" type="line"/>
    </contour>
  </outline>
</glyph>
<glyph name="cid40946" format="2">
  <advance height="1000" width="356"/>
  <unicode hex="007D"/>
  <outline>
    <contour>
      <point x="312" y="313" type="line"/>
      <point x="222" y="323"/>
      <point x="183" y="357"/>
      <point x="183" y="411" type="curve" smooth="yes"/>
      <point x="183" y="464"/>
      <point x="232" y="544"/>
      <point x="232" y="627" type="curve" smooth="yes"/>
      <point x="232" y="707"/>
      <point x="185" y="754"/>
      <point x="73" y="754" type="curve" smooth="yes"/>
      <point x="32" y="754" type="line"/>
      <point x="32" y="726" type="line"/>
      <point x="66" y="722" type="line" smooth="yes"/>
      <point x="156" y="715"/>
      <point x="181" y="690"/>
      <point x="181" y="624" type="curve" smooth="yes"/>
      <point x="181" y="544"/>
      <point x="148" y="472"/>
      <point x="148" y="419" type="curve" smooth="yes"/>
      <point x="148" y="349"/>
      <point x="187" y="299"/>
      <point x="288" y="295" type="curve"/>
      <point x="288" y="303" type="line"/>
      <point x="187" y="298"/>
      <point x="148" y="249"/>
      <point x="148" y="180" type="curve" smooth="yes"/>
      <point x="148" y="126"/>
      <point x="181" y="55"/>
      <point x="181" y="-25" type="curve" smooth="yes"/>
      <point x="181" y="-92"/>
      <point x="156" y="-117"/>
      <point x="66" y="-124" type="curve" smooth="yes"/>
      <point x="32" y="-127" type="line"/>
      <point x="32" y="-155" type="line"/>
      <point x="73" y="-155" type="line" smooth="yes"/>
      <point x="185" y="-155"/>
      <point x="232" y="-109"/>
      <point x="232" y="-28" type="curve" smooth="yes"/>
      <point x="232" y="55"/>
      <point x="183" y="133"/>
      <point x="183" y="186" type="curve" smooth="yes"/>
      <point x="183" y="241"/>
      <point x="222" y="275"/>
      <point x="312" y="286" type="curve"/>
    </contour>
  </outline>
</glyph>
<glyph name="cid41366" format="2">
  <advance height="1000" width="545"/>
  <unicode hex="007E"/>
  <outline>
    <contour>
      <point x="288" y="381" type="curve" smooth="yes"/>
      <point x="254" y="416"/>
      <point x="219" y="436"/>
      <point x="175" y="436" type="curve" smooth="yes"/>
      <point x="106" y="436"/>
      <point x="64" y="390"/>
      <point x="58" y="312" type="curve"/>
      <point x="58" y="312"/>
      <point x="94" y="305"/>
      <point x="94" y="305" type="curve"/>
      <point x="103" y="373"/>
      <point x="132" y="397"/>
      <point x="172" y="397" type="curve" smooth="yes"/>
      <point x="205" y="397"/>
      <point x="229" y="383"/>
      <point x="260" y="353" type="curve" smooth="yes"/>
      <point x="295" y="318"/>
      <point x="328" y="298"/>
      <point x="373" y="298" type="curve" smooth="yes"/>
      <point x="442" y="298"/>
      <point x="483" y="347"/>
      <point x="489" y="424" type="curve"/>
      <point x="489" y="424"/>
      <point x="454" y="429"/>
      <point x="454" y="429" type="curve"/>
      <point x="444" y="363"/>
      <point x="415" y="339"/>
      <point x="376" y="339" type="curve" smooth="yes"/>
      <point x="344" y="339"/>
      <point x="319" y="351"/>
    </contour>
  </outline>
</glyph>
<glyph name="cid40891" format="2">
  <advance height="1000" width="280"/>
  <unicode hex="00A1"/>
  <outline>
    <contour>
      <point x="139" y="511" type="curve" smooth="yes"/>
      <point x="112" y="511"/>
      <point x="92" y="489"/>
      <point x="92" y="463" type="curve" smooth="yes"/>
      <point x="92" y="436"/>
      <point x="112" y="416"/>
      <point x="139" y="416" type="curve" smooth="yes"/>
      <point x="166" y="416"/>
      <point x="187" y="436"/>
      <point x="187" y="463" type="curve" smooth="yes"/>
      <point x="187" y="489"/>
      <point x="166" y="511"/>
    </contour>
    <contour>
      <point x="139" y="-218" type="curve" smooth="yes"/>
      <point x="163" y="-218"/>
      <point x="178" y="-204"/>
      <point x="178" y="-172" type="curve" smooth="yes"/>
      <point x="178" y="-122"/>
      <point x="170" y="-35"/>
      <point x="161" y="104" type="curve" smooth="yes"/>
      <point x="152" y="299" type="line"/>
      <point x="127" y="299" type="line"/>
      <point x="118" y="104" type="line" smooth="yes"/>
      <point x="109" y="-35"/>
      <point x="101" y="-122"/>
      <point x="101" y="-172" type="curve" smooth="yes"/>
      <point x="101" y="-204"/>
      <point x="115" y="-218"/>
    </contour>
  </outline>
</glyph>
<glyph name="cid41229" format="2">
  <advance height="1000" width="509"/>
  <unicode hex="00A2"/>
  <outline>
    <contour>
      <point x="290" y="-40" type="line"/>
      <point x="290" y="701" type="line"/>
      <point x="259" y="701" type="line"/>
      <point x="259" y="-40" type="line"/>
    </contour>
    <contour>
      <point x="284" y="565" type="curve" smooth="yes"/>
      <point x="320" y="565"/>
      <point x="355" y="556"/>
      <point x="392" y="529" type="curve"/>
      <point x="355" y="563" type="line"/>
      <point x="378" y="492" type="line"/>
      <point x="386" y="459"/>
      <point x="399" y="445"/>
      <point x="421" y="445" type="curve" smooth="yes"/>
      <point x="440" y="445"/>
      <point x="452" y="455"/>
      <point x="456" y="475" type="curve"/>
      <point x="435" y="549"/>
      <point x="367" y="596"/>
      <point x="285" y="596" type="curve" smooth="yes"/>
      <point x="164" y="596"/>
      <point x="51" y="500"/>
      <point x="51" y="337" type="curve" smooth="yes"/>
      <point x="51" y="178"/>
      <point x="144" y="79"/>
      <point x="275" y="79" type="curve" smooth="yes"/>
      <point x="361" y="79"/>
      <point x="422" y="118"/>
      <point x="458" y="186" type="curve"/>
      <point x="440" y="197" type="line"/>
      <point x="402" y="149"/>
      <point x="346" y="123"/>
      <point x="285" y="123" type="curve" smooth="yes"/>
      <point x="181" y="123"/>
      <point x="110" y="210"/>
      <point x="110" y="343" type="curve" smooth="yes"/>
      <point x="110" y="478"/>
      <point x="184" y="565"/>
    </contour>
  </outline>
</glyph>
<glyph name="cid41230" format="2">
  <advance height="1000" width="509"/>
  <unicode hex="00A3"/>
  <outline>
    <contour>
      <point x="41" y="317" type="line"/>
      <point x="395" y="317" type="line"/>
      <point x="395" y="352" type="line"/>
      <point x="41" y="352" type="line"/>
    </contour>
    <contour>
      <point x="40" y="10" type="line"/>
      <point x="471" y="10" type="line"/>
      <point x="471" y="64" type="line"/>
      <point x="94" y="64" type="line"/>
      <point x="94" y="78" type="line"/>
      <point x="77" y="46" type="line"/>
      <point x="156" y="99"/>
      <point x="198" y="170"/>
      <point x="198" y="269" type="curve" smooth="yes"/>
      <point x="198" y="371"/>
      <point x="158" y="426"/>
      <point x="158" y="524" type="curve" smooth="yes"/>
      <point x="158" y="616"/>
      <point x="208" y="669"/>
      <point x="287" y="669" type="curve" smooth="yes"/>
      <point x="323" y="669"/>
      <point x="355" y="660"/>
      <point x="397" y="634" type="curve"/>
      <point x="354" y="666" type="line"/>
      <point x="383" y="585" type="line"/>
      <point x="392" y="553"/>
      <point x="405" y="540"/>
      <point x="424" y="540" type="curve" smooth="yes"/>
      <point x="440" y="540"/>
      <point x="451" y="549"/>
      <point x="458" y="564" type="curve"/>
      <point x="438" y="645"/>
      <point x="370" y="701"/>
      <point x="280" y="701" type="curve" smooth="yes"/>
      <point x="172" y="701"/>
      <point x="97" y="627"/>
      <point x="97" y="521" type="curve" smooth="yes"/>
      <point x="97" y="415"/>
      <point x="157" y="364"/>
      <point x="157" y="260" type="curve" smooth="yes"/>
      <point x="157" y="172"/>
      <point x="118" y="100"/>
      <point x="40" y="45" type="curve"/>
    </contour>
  </outline>
</glyph>
<glyph name="cid41227" format="2">
  <advance height="1000" width="510"/>
  <unicode hex="00A4"/>
  <outline>
    <contour>
      <point x="371" y="459" type="line"/>
      <point x="418" y="494" type="line"/>
      <point x="457" y="519"/>
      <point x="476" y="534"/>
      <point x="476" y="553" type="curve" smooth="yes"/>
      <point x="476" y="566"/>
      <point x="464" y="579"/>
      <point x="449" y="579" type="curve" smooth="yes"/>
      <point x="432" y="579"/>
      <point x="416" y="558"/>
      <point x="390" y="520" type="curve" smooth="yes"/>
      <point x="358" y="473" type="line"/>
    </contour>
    <contour>
      <point x="127" y="356" type="curve" smooth="yes"/>
      <point x="127" y="433"/>
      <point x="184" y="487"/>
      <point x="256" y="487" type="curve" smooth="yes"/>
      <point x="327" y="487"/>
      <point x="384" y="433"/>
      <point x="384" y="356" type="curve" smooth="yes"/>
      <point x="384" y="280"/>
      <point x="327" y="224"/>
      <point x="256" y="224" type="curve" smooth="yes"/>
      <point x="185" y="224"/>
      <point x="127" y="278"/>
    </contour>
    <contour>
      <point x="88" y="356" type="curve" smooth="yes"/>
      <point x="88" y="258"/>
      <point x="165" y="191"/>
      <point x="256" y="191" type="curve" smooth="yes"/>
      <point x="345" y="191"/>
      <point x="421" y="258"/>
      <point x="421" y="356" type="curve" smooth="yes"/>
      <point x="421" y="455"/>
      <point x="345" y="522"/>
      <point x="256" y="522" type="curve" smooth="yes"/>
      <point x="165" y="522"/>
      <point x="88" y="455"/>
    </contour>
    <contour>
      <point x="153" y="473" type="line"/>
      <point x="121" y="520" type="line" smooth="yes"/>
      <point x="95" y="559"/>
      <point x="79" y="580"/>
      <point x="61" y="580" type="curve" smooth="yes"/>
      <point x="47" y="580"/>
      <point x="34" y="567"/>
      <point x="34" y="553" type="curve" smooth="yes"/>
      <point x="34" y="535"/>
      <point x="55" y="519"/>
      <point x="93" y="494" type="curve"/>
      <point x="139" y="460" type="line"/>
    </contour>
    <contour>
      <point x="139" y="252" type="line"/>
      <point x="93" y="219" type="line" smooth="yes"/>
      <point x="54" y="193"/>
      <point x="34" y="177"/>
      <point x="34" y="160" type="curve" smooth="yes"/>
      <point x="34" y="145"/>
      <point x="46" y="133"/>
      <point x="60" y="133" type="curve" smooth="yes"/>
      <point x="79" y="133"/>
      <point x="95" y="154"/>
      <point x="121" y="192" type="curve" smooth="yes"/>
      <point x="153" y="240" type="line"/>
    </contour>
    <contour>
      <point x="357" y="239" type="line"/>
      <point x="390" y="192" type="line" smooth="yes"/>
      <point x="416" y="152"/>
      <point x="432" y="133"/>
      <point x="449" y="133" type="curve" smooth="yes"/>
      <point x="464" y="133"/>
      <point x="476" y="145"/>
      <point x="476" y="159" type="curve" smooth="yes"/>
      <point x="476" y="177"/>
      <point x="456" y="193"/>
      <point x="418" y="219" type="curve" smooth="yes"/>
      <point x="370" y="252" type="line"/>
    </contour>
  </outline>
</glyph>
<glyph name="cid41231" format="2">
  <advance height="1000" width="509"/>
  <unicode hex="00A5"/>
  <outline>
    <contour>
      <point x="269" y="261" type="curve"/>
      <point x="269" y="261"/>
      <point x="462" y="687"/>
      <point x="462" y="687" type="curve"/>
      <point x="462" y="687"/>
      <point x="425" y="687"/>
      <point x="425" y="687" type="curve"/>
      <point x="425" y="687"/>
      <point x="265" y="323"/>
      <point x="265" y="323" type="curve"/>
      <point x="265" y="323"/>
      <point x="260" y="313"/>
      <point x="260" y="313" type="curve"/>
      <point x="260" y="313"/>
      <point x="275" y="313"/>
      <point x="275" y="313" type="curve"/>
      <point x="275" y="313"/>
      <point x="110" y="687"/>
      <point x="110" y="687" type="curve"/>
      <point x="110" y="687"/>
      <point x="46" y="687"/>
      <point x="46" y="687" type="curve"/>
      <point x="46" y="687"/>
      <point x="242" y="259"/>
      <point x="242" y="259" type="curve"/>
      <point x="242" y="259"/>
      <point x="269" y="261"/>
    </contour>
    <contour>
      <point x="89" y="649" type="curve"/>
      <point x="89" y="649"/>
      <point x="104" y="649"/>
      <point x="104" y="649" type="curve"/>
      <point x="104" y="649"/>
      <point x="218" y="660"/>
      <point x="218" y="660" type="curve"/>
      <point x="218" y="660"/>
      <point x="218" y="687"/>
      <point x="218" y="687" type="curve"/>
      <point x="218" y="687"/>
      <point x="-6" y="687"/>
      <point x="-6" y="687" type="curve"/>
      <point x="-6" y="687"/>
      <point x="-6" y="660"/>
      <point x="-6" y="660" type="curve"/>
      <point x="-6" y="660"/>
      <point x="89" y="649"/>
    </contour>
    <contour>
      <point x="245" y="48" type="curve"/>
      <point x="245" y="48"/>
      <point x="116" y="38"/>
      <point x="116" y="38" type="curve"/>
      <point x="116" y="38"/>
      <point x="116" y="10"/>
      <point x="116" y="10" type="curve"/>
      <point x="116" y="10"/>
      <point x="393" y="10"/>
      <point x="393" y="10" type="curve"/>
      <point x="393" y="10"/>
      <point x="393" y="38"/>
      <point x="393" y="38" type="curve"/>
      <point x="393" y="38"/>
      <point x="264" y="48"/>
      <point x="264" y="48" type="curve"/>
      <point x="264" y="48"/>
      <point x="245" y="48"/>
    </contour>
    <contour>
      <point x="227" y="196" type="curve"/>
      <point x="227" y="138"/>
      <point x="226" y="91"/>
      <point x="225" y="10" type="curve"/>
      <point x="225" y="10"/>
      <point x="284" y="10"/>
      <point x="284" y="10" type="curve"/>
      <point x="283" y="92"/>
      <point x="282" y="138"/>
      <point x="282" y="196" type="curve"/>
      <point x="282" y="196"/>
      <point x="282" y="317"/>
      <point x="282" y="317" type="curve"/>
      <point x="282" y="317"/>
      <point x="227" y="317"/>
      <point x="227" y="317" type="curve"/>
      <point x="227" y="317"/>
      <point x="227" y="196"/>
    </contour>
    <contour>
      <point x="423" y="649" type="curve"/>
      <point x="423" y="649"/>
      <point x="435" y="649"/>
      <point x="435" y="649" type="curve"/>
      <point x="435" y="649"/>
      <point x="515" y="660"/>
      <point x="515" y="660" type="curve"/>
      <point x="515" y="660"/>
      <point x="515" y="687"/>
      <point x="515" y="687" type="curve"/>
      <point x="515" y="687"/>
      <point x="318" y="687"/>
      <point x="318" y="687" type="curve"/>
      <point x="318" y="687"/>
      <point x="318" y="660"/>
      <point x="318" y="660" type="curve"/>
      <point x="318" y="660"/>
      <point x="423" y="649"/>
    </contour>
    <contour>
      <point x="56" y="167" type="curve"/>
      <point x="56" y="167"/>
      <point x="453" y="167"/>
      <point x="453" y="167" type="curve"/>
      <point x="453" y="167"/>
      <point x="453" y="200"/>
      <point x="453" y="200" type="curve"/>
      <point x="453" y="200"/>
      <point x="56" y="200"/>
      <point x="56" y="200" type="curve"/>
      <point x="56" y="200"/>
      <point x="56" y="167"/>
    </contour>
    <contour>
      <point x="56" y="289" type="curve"/>
      <point x="56" y="289"/>
      <point x="453" y="289"/>
      <point x="453" y="289" type="curve"/>
      <point x="453" y="289"/>
      <point x="453" y="322"/>
      <point x="453" y="322" type="curve"/>
      <point x="453" y="322"/>
      <point x="56" y="322"/>
      <point x="56" y="322" type="curve"/>
      <point x="56" y="322"/>
      <point x="56" y="289"/>
    </contour>
  </outline>
</glyph>
<glyph name="cid40980" format="2">
  <advance height="1000" width="296"/>
  <unicode hex="00A6"/>
  <outline>
    <contour>
      <point x="127" y="-250" type="line"/>
      <point x="170" y="-250" type="line"/>
      <point x="170" y="218" type="line"/>
      <point x="127" y="218" type="line"/>
    </contour>
    <contour>
      <point x="170" y="343" type="line"/>
      <point x="170" y="790" type="line"/>
      <point x="127" y="790" type="line"/>
      <point x="127" y="343" type="line"/>
    </contour>
  </outline>
</glyph>
<glyph name="cid40988" format="2">
  <advance height="1000" width="500"/>
  <unicode hex="00A7"/>
  <outline>
    <contour>
      <point x="230" y="-101" type="curve" smooth="yes"/>
      <point x="346" y="-101"/>
      <point x="400" y="-42"/>
      <point x="400" y="38" type="curve" smooth="yes"/>
      <point x="400" y="100"/>
      <point x="368" y="138"/>
      <point x="323" y="166" type="curve"/>
      <point x="323" y="166"/>
      <point x="322" y="171"/>
      <point x="322" y="171" type="curve"/>
      <point x="297" y="186"/>
      <point x="266" y="202"/>
      <point x="234" y="217" type="curve" smooth="yes"/>
      <point x="135" y="262"/>
      <point x="106" y="291"/>
      <point x="106" y="345" type="curve" smooth="yes"/>
      <point x="106" y="394"/>
      <point x="130" y="433"/>
      <point x="201" y="458" type="curve"/>
      <point x="201" y="458"/>
      <point x="188" y="486"/>
      <point x="188" y="486" type="curve"/>
      <point x="188" y="486"/>
      <point x="188" y="478"/>
      <point x="188" y="478" type="curve"/>
      <point x="99" y="452"/>
      <point x="58" y="397"/>
      <point x="58" y="331" type="curve" smooth="yes"/>
      <point x="58" y="251"/>
      <point x="113" y="211"/>
      <point x="209" y="167" type="curve" smooth="yes"/>
      <point x="311" y="120"/>
      <point x="353" y="90"/>
      <point x="353" y="28" type="curve" smooth="yes"/>
      <point x="353" y="-36"/>
      <point x="310" y="-72"/>
      <point x="226" y="-72" type="curve" smooth="yes"/>
      <point x="194" y="-72"/>
      <point x="170" y="-65"/>
      <point x="145" y="-50" type="curve"/>
      <point x="145" y="-50"/>
      <point x="170" y="-74"/>
      <point x="170" y="-74" type="curve"/>
      <point x="170" y="-74"/>
      <point x="139" y="1"/>
      <point x="139" y="1" type="curve"/>
      <point x="129" y="25"/>
      <point x="115" y="37"/>
      <point x="97" y="37" type="curve" smooth="yes"/>
      <point x="81" y="37"/>
      <point x="70" y="30"/>
      <point x="64" y="11" type="curve"/>
      <point x="76" y="-56"/>
      <point x="141" y="-101"/>
    </contour>
    <contour>
      <point x="272" y="724" type="curve" smooth="yes"/>
      <point x="159" y="724"/>
      <point x="103" y="665"/>
      <point x="103" y="588" type="curve" smooth="yes"/>
      <point x="103" y="533"/>
      <point x="128" y="496"/>
      <point x="177" y="467" type="curve"/>
      <point x="177" y="467"/>
      <point x="178" y="462"/>
      <point x="178" y="462" type="curve"/>
      <point x="203" y="446"/>
      <point x="233" y="429"/>
      <point x="267" y="415" type="curve" smooth="yes"/>
      <point x="366" y="370"/>
      <point x="398" y="339"/>
      <point x="398" y="288" type="curve" smooth="yes"/>
      <point x="398" y="236"/>
      <point x="369" y="198"/>
      <point x="303" y="173" type="curve"/>
      <point x="303" y="173"/>
      <point x="315" y="145"/>
      <point x="315" y="145" type="curve"/>
      <point x="315" y="145"/>
      <point x="315" y="152"/>
      <point x="315" y="152" type="curve"/>
      <point x="404" y="178"/>
      <point x="446" y="234"/>
      <point x="446" y="298" type="curve" smooth="yes"/>
      <point x="446" y="376"/>
      <point x="397" y="416"/>
      <point x="293" y="463" type="curve" smooth="yes"/>
      <point x="193" y="509"/>
      <point x="152" y="535"/>
      <point x="152" y="599" type="curve" smooth="yes"/>
      <point x="152" y="660"/>
      <point x="192" y="696"/>
      <point x="276" y="696" type="curve" smooth="yes"/>
      <point x="309" y="696"/>
      <point x="333" y="689"/>
      <point x="360" y="672" type="curve"/>
      <point x="360" y="672"/>
      <point x="330" y="698"/>
      <point x="330" y="698" type="curve"/>
      <point x="330" y="698"/>
      <point x="360" y="624"/>
      <point x="360" y="624" type="curve"/>
      <point x="370" y="599"/>
      <point x="384" y="586"/>
      <point x="402" y="586" type="curve" smooth="yes"/>
      <point x="418" y="586"/>
      <point x="430" y="594"/>
      <point x="435" y="612" type="curve"/>
      <point x="422" y="681"/>
      <point x="357" y="724"/>
    </contour>
  </outline>
</glyph>
<glyph name="cid41536" format="2">
  <advance height="1000" width="416"/>
  <unicode hex="00A8"/>
  <outline>
    <contour>
      <point x="107" y="650" type="curve" smooth="yes"/>
      <point x="132" y="650"/>
      <point x="152" y="667"/>
      <point x="152" y="693" type="curve" smooth="yes"/>
      <point x="152" y="719"/>
      <point x="132" y="737"/>
      <point x="107" y="737" type="curve" smooth="yes"/>
      <point x="84" y="737"/>
      <point x="63" y="719"/>
      <point x="63" y="693" type="curve" smooth="yes"/>
      <point x="63" y="667"/>
      <point x="84" y="650"/>
    </contour>
    <contour>
      <point x="309" y="650" type="curve" smooth="yes"/>
      <point x="332" y="650"/>
      <point x="353" y="667"/>
      <point x="353" y="693" type="curve" smooth="yes"/>
      <point x="353" y="719"/>
      <point x="332" y="737"/>
      <point x="309" y="737" type="curve" smooth="yes"/>
      <point x="284" y="737"/>
      <point x="264" y="719"/>
      <point x="264" y="693" type="curve" smooth="yes"/>
      <point x="264" y="667"/>
      <point x="284" y="650"/>
    </contour>
  </outline>
</glyph>
<glyph name="cid40991" format="2">
  <advance height="1000" width="787"/>
  <unicode hex="00A9"/>
  <outline>
    <contour>
      <point x="394" y="-5" type="curve" smooth="yes"/>
      <point x="593" y="-5"/>
      <point x="756" y="135"/>
      <point x="756" y="362" type="curve" smooth="yes"/>
      <point x="756" y="588"/>
      <point x="593" y="724"/>
      <point x="394" y="724" type="curve" smooth="yes"/>
      <point x="194" y="724"/>
      <point x="31" y="588"/>
      <point x="31" y="362" type="curve" smooth="yes"/>
      <point x="31" y="135"/>
      <point x="194" y="-5"/>
    </contour>
    <contour>
      <point x="394" y="25" type="curve" smooth="yes"/>
      <point x="210" y="25"/>
      <point x="69" y="152"/>
      <point x="69" y="362" type="curve" smooth="yes"/>
      <point x="69" y="570"/>
      <point x="210" y="694"/>
      <point x="394" y="694" type="curve" smooth="yes"/>
      <point x="578" y="694"/>
      <point x="720" y="568"/>
      <point x="720" y="362" type="curve" smooth="yes"/>
      <point x="720" y="156"/>
      <point x="578" y="25"/>
    </contour>
    <contour>
      <point x="409" y="146" type="curve" smooth="yes"/>
      <point x="452" y="146"/>
      <point x="491" y="155"/>
      <point x="530" y="177" type="curve"/>
      <point x="530" y="177"/>
      <point x="534" y="271"/>
      <point x="534" y="271" type="curve"/>
      <point x="534" y="271"/>
      <point x="503" y="271"/>
      <point x="503" y="271" type="curve"/>
      <point x="503" y="271"/>
      <point x="487" y="175"/>
      <point x="487" y="175" type="curve"/>
      <point x="487" y="175"/>
      <point x="518" y="208"/>
      <point x="518" y="208" type="curve"/>
      <point x="485" y="183"/>
      <point x="445" y="174"/>
      <point x="412" y="174" type="curve" smooth="yes"/>
      <point x="323" y="174"/>
      <point x="260" y="242"/>
      <point x="260" y="363" type="curve" smooth="yes"/>
      <point x="260" y="482"/>
      <point x="324" y="553"/>
      <point x="414" y="553" type="curve" smooth="yes"/>
      <point x="450" y="553"/>
      <point x="480" y="542"/>
      <point x="515" y="518" type="curve"/>
      <point x="515" y="518"/>
      <point x="482" y="552"/>
      <point x="482" y="552" type="curve"/>
      <point x="482" y="552"/>
      <point x="499" y="455"/>
      <point x="499" y="455" type="curve"/>
      <point x="499" y="455"/>
      <point x="529" y="455"/>
      <point x="529" y="455" type="curve"/>
      <point x="529" y="455"/>
      <point x="526" y="549"/>
      <point x="526" y="549" type="curve"/>
      <point x="488" y="572"/>
      <point x="454" y="580"/>
      <point x="410" y="580" type="curve" smooth="yes"/>
      <point x="293" y="580"/>
      <point x="208" y="490"/>
      <point x="208" y="363" type="curve" smooth="yes"/>
      <point x="208" y="234"/>
      <point x="289" y="146"/>
    </contour>
  </outline>
</glyph>
<glyph name="cid41133" format="2">
  <advance height="1000" width="348"/>
  <unicode hex="00AA"/>
  <outline>
    <contour>
      <point x="285" y="449" type="curve" smooth="yes"/>
      <point x="308" y="449"/>
      <point x="326" y="458"/>
      <point x="338" y="481" type="curve"/>
      <point x="338" y="481"/>
      <point x="328" y="492"/>
      <point x="328" y="492" type="curve"/>
      <point x="317" y="481"/>
      <point x="309" y="477"/>
      <point x="298" y="477" type="curve" smooth="yes"/>
      <point x="282" y="477"/>
      <point x="274" y="489"/>
      <point x="274" y="522" type="curve"/>
      <point x="274" y="522"/>
      <point x="274" y="674"/>
      <point x="274" y="674" type="curve"/>
      <point x="274" y="753"/>
      <point x="240" y="785"/>
      <point x="171" y="785" type="curve" smooth="yes"/>
      <point x="103" y="785"/>
      <point x="54" y="753"/>
      <point x="41" y="704" type="curve"/>
      <point x="43" y="688"/>
      <point x="52" y="680"/>
      <point x="67" y="680" type="curve" smooth="yes"/>
      <point x="82" y="680"/>
      <point x="93" y="690"/>
      <point x="98" y="710" type="curve"/>
      <point x="98" y="710"/>
      <point x="112" y="762"/>
      <point x="112" y="762" type="curve"/>
      <point x="112" y="762"/>
      <point x="87" y="743"/>
      <point x="87" y="743" type="curve"/>
      <point x="114" y="757"/>
      <point x="135" y="761"/>
      <point x="157" y="761" type="curve" smooth="yes"/>
      <point x="206" y="761"/>
      <point x="226" y="742"/>
      <point x="226" y="675" type="curve"/>
      <point x="226" y="675"/>
      <point x="226" y="519"/>
      <point x="226" y="519" type="curve"/>
      <point x="226" y="519"/>
      <point x="226" y="518"/>
      <point x="226" y="518" type="curve"/>
      <point x="226" y="475"/>
      <point x="244" y="449"/>
    </contour>
    <contour>
      <point x="119" y="446" type="curve" smooth="yes"/>
      <point x="162" y="446"/>
      <point x="190" y="467"/>
      <point x="230" y="508" type="curve"/>
      <point x="230" y="508"/>
      <point x="245" y="523"/>
      <point x="245" y="523" type="curve"/>
      <point x="245" y="523"/>
      <point x="231" y="530"/>
      <point x="231" y="530" type="curve"/>
      <point x="189" y="494"/>
      <point x="167" y="480"/>
      <point x="138" y="480" type="curve" smooth="yes"/>
      <point x="107" y="480"/>
      <point x="80" y="498"/>
      <point x="80" y="537" type="curve" smooth="yes"/>
      <point x="80" y="566"/>
      <point x="97" y="592"/>
      <point x="151" y="612" type="curve" smooth="yes"/>
      <point x="179" y="622"/>
      <point x="215" y="631"/>
      <point x="250" y="640" type="curve"/>
      <point x="250" y="640"/>
      <point x="250" y="659"/>
      <point x="250" y="659" type="curve"/>
      <point x="213" y="651"/>
      <point x="176" y="641"/>
      <point x="139" y="630" type="curve" smooth="yes"/>
      <point x="57" y="605"/>
      <point x="30" y="572"/>
      <point x="30" y="528" type="curve" smooth="yes"/>
      <point x="30" y="475"/>
      <point x="69" y="446"/>
    </contour>
  </outline>
</glyph>
<glyph name="cid40917" format="2">
  <advance height="1000" width="491"/>
  <unicode hex="00AB"/>
  <outline>
    <contour>
      <point x="245" y="59" type="curve"/>
      <point x="245" y="59"/>
      <point x="263" y="78"/>
      <point x="263" y="78" type="curve"/>
      <point x="263" y="78"/>
      <point x="71" y="285"/>
      <point x="71" y="285" type="curve"/>
      <point x="71" y="285"/>
      <point x="71" y="254"/>
      <point x="71" y="254" type="curve"/>
      <point x="71" y="254"/>
      <point x="263" y="461"/>
      <point x="263" y="461" type="curve"/>
      <point x="263" y="461"/>
      <point x="245" y="479"/>
      <point x="245" y="479" type="curve"/>
      <point x="245" y="479"/>
      <point x="26" y="286"/>
      <point x="26" y="286" type="curve"/>
      <point x="26" y="286"/>
      <point x="26" y="253"/>
      <point x="26" y="253" type="curve"/>
      <point x="26" y="253"/>
      <point x="245" y="59"/>
    </contour>
    <contour>
      <point x="445" y="59" type="curve"/>
      <point x="445" y="59"/>
      <point x="463" y="78"/>
      <point x="463" y="78" type="curve"/>
      <point x="463" y="78"/>
      <point x="270" y="285"/>
      <point x="270" y="285" type="curve"/>
      <point x="270" y="285"/>
      <point x="270" y="254"/>
      <point x="270" y="254" type="curve"/>
      <point x="270" y="254"/>
      <point x="463" y="461"/>
      <point x="463" y="461" type="curve"/>
      <point x="463" y="461"/>
      <point x="445" y="479"/>
      <point x="445" y="479" type="curve"/>
      <point x="445" y="479"/>
      <point x="226" y="286"/>
      <point x="226" y="286" type="curve"/>
      <point x="226" y="286"/>
      <point x="226" y="253"/>
      <point x="226" y="253" type="curve"/>
      <point x="226" y="253"/>
      <point x="445" y="59"/>
    </contour>
  </outline>
</glyph>
<glyph name="cid41369" format="2">
  <advance height="1000" width="545"/>
  <unicode hex="00AC"/>
  <outline>
    <contour>
      <point x="35" y="376" type="line"/>
      <point x="479" y="376" type="line"/>
      <point x="467" y="391" type="line"/>
      <point x="467" y="185" type="line"/>
      <point x="510" y="185" type="line"/>
      <point x="510" y="416" type="line"/>
      <point x="35" y="416" type="line"/>
    </contour>
  </outline>
</glyph>
<glyph name="cid40994" format="2">
  <advance height="1000" width="476"/>
  <unicode hex="00AE"/>
  <outline>
    <contour>
      <point x="345" y="458" type="curve"/>
      <point x="345" y="458"/>
      <point x="305" y="462"/>
      <point x="305" y="462" type="curve"/>
      <point x="305" y="462"/>
      <point x="322" y="452"/>
      <point x="322" y="452" type="curve"/>
      <point x="322" y="452"/>
      <point x="305" y="510"/>
      <point x="305" y="510" type="curve"/>
      <point x="296" y="536"/>
      <point x="279" y="548"/>
      <point x="243" y="549" type="curve"/>
      <point x="243" y="549"/>
      <point x="238" y="545"/>
      <point x="238" y="545" type="curve"/>
      <point x="292" y="546"/>
      <point x="316" y="573"/>
      <point x="316" y="602" type="curve" smooth="yes"/>
      <point x="316" y="635"/>
      <point x="289" y="656"/>
      <point x="239" y="656" type="curve"/>
      <point x="239" y="656"/>
      <point x="197" y="656"/>
      <point x="197" y="656" type="curve"/>
      <point x="197" y="656"/>
      <point x="197" y="642"/>
      <point x="197" y="642" type="curve"/>
      <point x="197" y="642"/>
      <point x="233" y="642"/>
      <point x="233" y="642" type="curve"/>
      <point x="267" y="642"/>
      <point x="281" y="626"/>
      <point x="281" y="600" type="curve" smooth="yes"/>
      <point x="281" y="575"/>
      <point x="265" y="554"/>
      <point x="234" y="554" type="curve"/>
      <point x="234" y="554"/>
      <point x="197" y="554"/>
      <point x="197" y="554" type="curve"/>
      <point x="197" y="554"/>
      <point x="197" y="540"/>
      <point x="197" y="540" type="curve"/>
      <point x="197" y="540"/>
      <point x="231" y="540"/>
      <point x="231" y="540" type="curve"/>
      <point x="253" y="540"/>
      <point x="263" y="532"/>
      <point x="268" y="513" type="curve"/>
      <point x="268" y="513"/>
      <point x="283" y="466"/>
      <point x="283" y="466" type="curve"/>
      <point x="287" y="449"/>
      <point x="296" y="444"/>
      <point x="319" y="444" type="curve" smooth="yes"/>
      <point x="330" y="444"/>
      <point x="335" y="444"/>
      <point x="345" y="446" type="curve"/>
      <point x="345" y="446"/>
      <point x="345" y="458"/>
    </contour>
    <contour>
      <point x="192" y="462" type="curve"/>
      <point x="192" y="462"/>
      <point x="152" y="458"/>
      <point x="152" y="458" type="curve"/>
      <point x="152" y="458"/>
      <point x="152" y="446"/>
      <point x="152" y="446" type="curve"/>
      <point x="152" y="446"/>
      <point x="243" y="446"/>
      <point x="243" y="446" type="curve"/>
      <point x="243" y="446"/>
      <point x="243" y="458"/>
      <point x="243" y="458" type="curve"/>
      <point x="243" y="458"/>
      <point x="201" y="462"/>
      <point x="201" y="462" type="curve"/>
      <point x="201" y="462"/>
      <point x="192" y="462"/>
    </contour>
    <contour>
      <point x="192" y="639" type="curve"/>
      <point x="192" y="639"/>
      <point x="199" y="641"/>
      <point x="199" y="641" type="curve"/>
      <point x="199" y="641"/>
      <point x="199" y="656"/>
      <point x="199" y="656" type="curve"/>
      <point x="199" y="656"/>
      <point x="152" y="656"/>
      <point x="152" y="656" type="curve"/>
      <point x="152" y="656"/>
      <point x="152" y="643"/>
      <point x="152" y="643" type="curve"/>
      <point x="152" y="643"/>
      <point x="192" y="639"/>
    </contour>
    <contour>
      <point x="59" y="547" type="curve" smooth="yes"/>
      <point x="59" y="655"/>
      <point x="142" y="726"/>
      <point x="238" y="726" type="curve" smooth="yes"/>
      <point x="334" y="726"/>
      <point x="418" y="655"/>
      <point x="418" y="547" type="curve" smooth="yes"/>
      <point x="418" y="438"/>
      <point x="335" y="365"/>
      <point x="238" y="365" type="curve" smooth="yes"/>
      <point x="142" y="365"/>
      <point x="59" y="438"/>
    </contour>
    <contour>
      <point x="181" y="446" type="curve"/>
      <point x="181" y="446"/>
      <point x="215" y="446"/>
      <point x="215" y="446" type="curve"/>
      <point x="215" y="446"/>
      <point x="215" y="656"/>
      <point x="215" y="656" type="curve"/>
      <point x="215" y="656"/>
      <point x="181" y="656"/>
      <point x="181" y="656" type="curve"/>
      <point x="181" y="656"/>
      <point x="181" y="446"/>
    </contour>
    <contour>
      <point x="31" y="547" type="curve" smooth="yes"/>
      <point x="31" y="422"/>
      <point x="128" y="341"/>
      <point x="238" y="341" type="curve" smooth="yes"/>
      <point x="347" y="341"/>
      <point x="445" y="422"/>
      <point x="445" y="547" type="curve" smooth="yes"/>
      <point x="445" y="671"/>
      <point x="347" y="750"/>
      <point x="238" y="750" type="curve" smooth="yes"/>
      <point x="130" y="750"/>
      <point x="31" y="671"/>
    </contour>
  </outline>
</glyph>
<glyph name="cid41538" format="2">
  <advance height="1000" width="416"/>
  <unicode hex="00AF"/>
  <outline>
    <contour>
      <point x="86" y="643" type="curve"/>
      <point x="86" y="643"/>
      <point x="330" y="643"/>
      <point x="330" y="643" type="curve"/>
      <point x="330" y="643"/>
      <point x="330" y="687"/>
      <point x="330" y="687" type="curve"/>
      <point x="330" y="687"/>
      <point x="86" y="687"/>
      <point x="86" y="687" type="curve"/>
      <point x="86" y="687"/>
      <point x="86" y="643"/>
    </contour>
  </outline>
</glyph>
<glyph name="cid41225" format="2">
  <advance height="1000" width="327"/>
  <unicode hex="00B0"/>
  <outline>
    <contour>
      <point x="163" y="501" type="curve" smooth="yes"/>
      <point x="113" y="501"/>
      <point x="73" y="540"/>
      <point x="73" y="598" type="curve" smooth="yes"/>
      <point x="73" y="655"/>
      <point x="113" y="695"/>
      <point x="163" y="695" type="curve" smooth="yes"/>
      <point x="214" y="695"/>
      <point x="255" y="655"/>
      <point x="255" y="598" type="curve" smooth="yes"/>
      <point x="255" y="540"/>
      <point x="214" y="501"/>
    </contour>
    <contour>
      <point x="163" y="472" type="curve" smooth="yes"/>
      <point x="231" y="472"/>
      <point x="288" y="522"/>
      <point x="288" y="598" type="curve" smooth="yes"/>
      <point x="288" y="674"/>
      <point x="231" y="724"/>
      <point x="163" y="724" type="curve" smooth="yes"/>
      <point x="96" y="724"/>
      <point x="40" y="674"/>
      <point x="40" y="598" type="curve" smooth="yes"/>
      <point x="40" y="522"/>
      <point x="96" y="472"/>
    </contour>
  </outline>
</glyph>
<glyph name="cid41361" format="2">
  <advance height="1000" width="545"/>
  <unicode hex="00B1"/>
  <outline>
    <contour>
      <point x="252" y="113" type="curve"/>
      <point x="252" y="113"/>
      <point x="294" y="113"/>
      <point x="294" y="113" type="curve"/>
      <point x="294" y="113"/>
      <point x="294" y="594"/>
      <point x="294" y="594" type="curve"/>
      <point x="294" y="594"/>
      <point x="252" y="594"/>
      <point x="252" y="594" type="curve"/>
      <point x="252" y="594"/>
      <point x="252" y="113"/>
    </contour>
    <contour>
      <point x="510" y="337" type="curve"/>
      <point x="510" y="337"/>
      <point x="510" y="377"/>
      <point x="510" y="377" type="curve"/>
      <point x="510" y="377"/>
      <point x="35" y="377"/>
      <point x="35" y="377" type="curve"/>
      <point x="35" y="377"/>
      <point x="35" y="337"/>
      <point x="35" y="337" type="curve"/>
      <point x="35" y="337"/>
      <point x="510" y="337"/>
    </contour>
    <contour>
      <point x="510" y="10" type="curve"/>
      <point x="510" y="10"/>
      <point x="510" y="50"/>
      <point x="510" y="50" type="curve"/>
      <point x="510" y="50"/>
      <point x="35" y="50"/>
      <point x="35" y="50" type="curve"/>
      <point x="35" y="50"/>
      <point x="35" y="10"/>
      <point x="35" y="10" type="curve"/>
      <point x="35" y="10"/>
      <point x="510" y="10"/>
    </contour>
  </outline>
</glyph>
<glyph name="cid41010" format="2">
  <advance height="1000" width="361"/>
  <unicode hex="00B2"/>
  <outline>
    <contour>
      <point x="50" y="455" type="line"/>
      <point x="321" y="455" type="line"/>
      <point x="321" y="504" type="line"/>
      <point x="92" y="504" type="line"/>
      <point x="89" y="512" type="line"/>
      <point x="80" y="487" type="line"/>
      <point x="188" y="590" type="line" smooth="yes"/>
      <point x="268" y="669"/>
      <point x="303" y="714"/>
      <point x="303" y="769" type="curve" smooth="yes"/>
      <point x="303" y="831"/>
      <point x="264" y="877"/>
      <point x="180" y="877" type="curve" smooth="yes"/>
      <point x="114" y="877"/>
      <point x="59" y="845"/>
      <point x="48" y="785" type="curve"/>
      <point x="53" y="772"/>
      <point x="62" y="766"/>
      <point x="75" y="766" type="curve" smooth="yes"/>
      <point x="89" y="766"/>
      <point x="99" y="775"/>
      <point x="106" y="802" type="curve"/>
      <point x="124" y="859" type="line"/>
      <point x="93" y="835" type="line"/>
      <point x="120" y="849"/>
      <point x="141" y="853"/>
      <point x="164" y="853" type="curve" smooth="yes"/>
      <point x="220" y="853"/>
      <point x="251" y="819"/>
      <point x="251" y="764" type="curve" smooth="yes"/>
      <point x="251" y="714"/>
      <point x="224" y="667"/>
      <point x="163" y="606" type="curve" smooth="yes"/>
      <point x="50" y="492" type="line"/>
    </contour>
  </outline>
</glyph>
<glyph name="cid41012" format="2">
  <advance height="1000" width="361"/>
  <unicode hex="00B3"/>
  <outline>
    <contour>
      <point x="173" y="447" type="curve" smooth="yes"/>
      <point x="254" y="447"/>
      <point x="318" y="489"/>
      <point x="318" y="565" type="curve" smooth="yes"/>
      <point x="318" y="631"/>
      <point x="271" y="674"/>
      <point x="185" y="676" type="curve"/>
      <point x="185" y="676"/>
      <point x="188" y="669"/>
      <point x="188" y="669" type="curve"/>
      <point x="258" y="675"/>
      <point x="303" y="720"/>
      <point x="303" y="776" type="curve" smooth="yes"/>
      <point x="303" y="836"/>
      <point x="255" y="877"/>
      <point x="179" y="877" type="curve" smooth="yes"/>
      <point x="121" y="877"/>
      <point x="68" y="850"/>
      <point x="56" y="792" type="curve"/>
      <point x="60" y="780"/>
      <point x="71" y="773"/>
      <point x="82" y="773" type="curve" smooth="yes"/>
      <point x="97" y="773"/>
      <point x="107" y="783"/>
      <point x="112" y="807" type="curve"/>
      <point x="112" y="807"/>
      <point x="127" y="860"/>
      <point x="127" y="860" type="curve"/>
      <point x="127" y="860"/>
      <point x="102" y="839"/>
      <point x="102" y="839" type="curve"/>
      <point x="127" y="850"/>
      <point x="147" y="853"/>
      <point x="168" y="853" type="curve" smooth="yes"/>
      <point x="222" y="853"/>
      <point x="252" y="822"/>
      <point x="252" y="772" type="curve" smooth="yes"/>
      <point x="252" y="718"/>
      <point x="214" y="686"/>
      <point x="153" y="686" type="curve"/>
      <point x="153" y="686"/>
      <point x="127" y="686"/>
      <point x="127" y="686" type="curve"/>
      <point x="127" y="686"/>
      <point x="127" y="658"/>
      <point x="127" y="658" type="curve"/>
      <point x="127" y="658"/>
      <point x="157" y="658"/>
      <point x="157" y="658" type="curve"/>
      <point x="232" y="658"/>
      <point x="266" y="623"/>
      <point x="266" y="566" type="curve" smooth="yes"/>
      <point x="266" y="509"/>
      <point x="229" y="471"/>
      <point x="161" y="471" type="curve" smooth="yes"/>
      <point x="136" y="471"/>
      <point x="115" y="475"/>
      <point x="94" y="486" type="curve"/>
      <point x="94" y="486"/>
      <point x="116" y="462"/>
      <point x="116" y="462" type="curve"/>
      <point x="116" y="462"/>
      <point x="101" y="519"/>
      <point x="101" y="519" type="curve"/>
      <point x="95" y="546"/>
      <point x="85" y="554"/>
      <point x="70" y="554" type="curve" smooth="yes"/>
      <point x="58" y="554"/>
      <point x="48" y="549"/>
      <point x="44" y="534" type="curve"/>
      <point x="56" y="476"/>
      <point x="103" y="447"/>
    </contour>
  </outline>
</glyph>
<glyph name="cid41522" format="2">
  <advance height="1000" width="416"/>
  <unicode hex="00B4"/>
  <outline>
    <contour>
      <point x="156" y="601" type="curve"/>
      <point x="174" y="587" type="line"/>
      <point x="220" y="632"/>
      <point x="260" y="671"/>
      <point x="295" y="705" type="curve" smooth="yes"/>
      <point x="320" y="729"/>
      <point x="328" y="741"/>
      <point x="328" y="754" type="curve" smooth="yes"/>
      <point x="328" y="772"/>
      <point x="314" y="781"/>
      <point x="301" y="781" type="curve" smooth="yes"/>
      <point x="286" y="781"/>
      <point x="275" y="771"/>
      <point x="256" y="744" type="curve" smooth="yes"/>
      <point x="225" y="701"/>
      <point x="189" y="650"/>
    </contour>
  </outline>
</glyph>
<glyph name="cid40990" format="2">
  <advance height="1000" width="623"/>
  <unicode hex="00B6"/>
  <outline>
    <contour>
      <point x="342" y="181" type="curve"/>
      <point x="342" y="181"/>
      <point x="342" y="677"/>
      <point x="342" y="677" type="curve"/>
      <point x="342" y="677"/>
      <point x="435" y="677"/>
      <point x="435" y="677" type="curve"/>
      <point x="435" y="677"/>
      <point x="435" y="710"/>
      <point x="435" y="710" type="curve"/>
      <point x="435" y="710"/>
      <point x="373" y="710"/>
      <point x="373" y="710" type="curve"/>
      <point x="170" y="710"/>
      <point x="45" y="605"/>
      <point x="45" y="447" type="curve" smooth="yes"/>
      <point x="45" y="285"/>
      <point x="165" y="181"/>
    </contour>
    <contour>
      <point x="409" y="-125" type="curve"/>
      <point x="409" y="-125"/>
      <point x="466" y="-125"/>
      <point x="466" y="-125" type="curve"/>
      <point x="463" y="-22"/>
      <point x="463" y="91"/>
      <point x="463" y="199" type="curve"/>
      <point x="463" y="199"/>
      <point x="463" y="386"/>
      <point x="463" y="386" type="curve"/>
      <point x="463" y="495"/>
      <point x="463" y="608"/>
      <point x="466" y="710" type="curve"/>
      <point x="466" y="710"/>
      <point x="412" y="710"/>
      <point x="412" y="710" type="curve"/>
      <point x="412" y="710"/>
      <point x="412" y="199"/>
      <point x="412" y="199" type="curve"/>
      <point x="412" y="90"/>
      <point x="412" y="-22"/>
    </contour>
    <contour>
      <point x="434" y="670" type="curve"/>
      <point x="434" y="670"/>
      <point x="442" y="670"/>
      <point x="442" y="670" type="curve"/>
      <point x="442" y="670"/>
      <point x="569" y="682"/>
      <point x="569" y="682" type="curve"/>
      <point x="569" y="682"/>
      <point x="569" y="710"/>
      <point x="569" y="710" type="curve"/>
      <point x="569" y="710"/>
      <point x="434" y="710"/>
      <point x="434" y="710" type="curve"/>
      <point x="434" y="710"/>
      <point x="434" y="670"/>
    </contour>
  </outline>
</glyph>
<glyph name="cid40928" format="2">
  <advance height="1000" width="305"/>
  <unicode hex="00B7"/>
  <outline>
    <contour>
      <point x="153" y="295" type="curve" smooth="yes"/>
      <point x="182" y="295"/>
      <point x="205" y="319"/>
      <point x="205" y="347" type="curve" smooth="yes"/>
      <point x="205" y="376"/>
      <point x="182" y="399"/>
      <point x="153" y="399" type="curve" smooth="yes"/>
      <point x="123" y="399"/>
      <point x="100" y="376"/>
      <point x="100" y="347" type="curve" smooth="yes"/>
      <point x="100" y="319"/>
      <point x="123" y="295"/>
    </contour>
  </outline>
</glyph>
<glyph name="cid41550" format="2">
  <advance height="1000" width="416"/>
  <unicode hex="00B8"/>
  <outline>
    <contour>
      <point x="161" y="-75" type="curve"/>
      <point x="220" y="-78"/>
      <point x="245" y="-99"/>
      <point x="245" y="-135" type="curve" smooth="yes"/>
      <point x="245" y="-167"/>
      <point x="224" y="-189"/>
      <point x="179" y="-189" type="curve" smooth="yes"/>
      <point x="161" y="-189"/>
      <point x="145" y="-186"/>
      <point x="127" y="-182" type="curve"/>
      <point x="127" y="-182"/>
      <point x="121" y="-205"/>
      <point x="121" y="-205" type="curve"/>
      <point x="138" y="-212"/>
      <point x="159" y="-217"/>
      <point x="185" y="-217" type="curve" smooth="yes"/>
      <point x="253" y="-217"/>
      <point x="290" y="-181"/>
      <point x="290" y="-135" type="curve" smooth="yes"/>
      <point x="290" y="-84"/>
      <point x="243" y="-52"/>
      <point x="179" y="-49" type="curve"/>
      <point x="179" y="-49"/>
      <point x="191" y="-67"/>
      <point x="191" y="-67" type="curve"/>
      <point x="191" y="-67"/>
      <point x="203" y="11"/>
      <point x="203" y="11" type="curve"/>
      <point x="203" y="11"/>
      <point x="175" y="11"/>
      <point x="175" y="11" type="curve"/>
      <point x="175" y="11"/>
      <point x="161" y="-75"/>
    </contour>
  </outline>
</glyph>
<glyph name="cid41008" format="2">
  <advance height="1000" width="361"/>
  <unicode hex="00B9"/>
  <outline>
    <contour>
      <point x="67" y="455" type="curve"/>
      <point x="67" y="455"/>
      <point x="311" y="455"/>
      <point x="311" y="455" type="curve"/>
      <point x="311" y="455"/>
      <point x="311" y="476"/>
      <point x="311" y="476" type="curve"/>
      <point x="311" y="476"/>
      <point x="209" y="488"/>
      <point x="209" y="488" type="curve"/>
      <point x="209" y="488"/>
      <point x="172" y="488"/>
      <point x="172" y="488" type="curve"/>
      <point x="172" y="488"/>
      <point x="67" y="476"/>
      <point x="67" y="476" type="curve"/>
      <point x="67" y="476"/>
      <point x="67" y="455"/>
    </contour>
    <contour>
      <point x="166" y="455" type="curve"/>
      <point x="166" y="455"/>
      <point x="215" y="455"/>
      <point x="215" y="455" type="curve"/>
      <point x="215" y="455"/>
      <point x="215" y="869"/>
      <point x="215" y="869" type="curve"/>
      <point x="215" y="869"/>
      <point x="207" y="875"/>
      <point x="207" y="875" type="curve"/>
      <point x="207" y="875"/>
      <point x="76" y="842"/>
      <point x="76" y="842" type="curve"/>
      <point x="76" y="842"/>
      <point x="76" y="818"/>
      <point x="76" y="818" type="curve"/>
      <point x="76" y="818"/>
      <point x="166" y="828"/>
      <point x="166" y="828" type="curve"/>
      <point x="166" y="828"/>
      <point x="166" y="455"/>
    </contour>
  </outline>
</glyph>
<glyph name="cid40919" format="2">
  <advance height="1000" width="491"/>
  <unicode hex="00BB"/>
  <outline>
    <contour>
      <point x="245" y="480" type="curve"/>
      <point x="245" y="480"/>
      <point x="228" y="461"/>
      <point x="228" y="461" type="curve"/>
      <point x="228" y="461"/>
      <point x="420" y="254"/>
      <point x="420" y="254" type="curve"/>
      <point x="420" y="254"/>
      <point x="420" y="285"/>
      <point x="420" y="285" type="curve"/>
      <point x="420" y="285"/>
      <point x="228" y="78"/>
      <point x="228" y="78" type="curve"/>
      <point x="228" y="78"/>
      <point x="245" y="60"/>
      <point x="245" y="60" type="curve"/>
      <point x="245" y="60"/>
      <point x="465" y="253"/>
      <point x="465" y="253" type="curve"/>
      <point x="465" y="253"/>
      <point x="465" y="286"/>
      <point x="465" y="286" type="curve"/>
      <point x="465" y="286"/>
      <point x="245" y="480"/>
    </contour>
    <contour>
      <point x="46" y="480" type="curve"/>
      <point x="46" y="480"/>
      <point x="28" y="461"/>
      <point x="28" y="461" type="curve"/>
      <point x="28" y="461"/>
      <point x="220" y="254"/>
      <point x="220" y="254" type="curve"/>
      <point x="220" y="254"/>
      <point x="220" y="285"/>
      <point x="220" y="285" type="curve"/>
      <point x="220" y="285"/>
      <point x="28" y="78"/>
      <point x="28" y="78" type="curve"/>
      <point x="28" y="78"/>
      <point x="46" y="60"/>
      <point x="46" y="60" type="curve"/>
      <point x="46" y="60"/>
      <point x="265" y="253"/>
      <point x="265" y="253" type="curve"/>
      <point x="265" y="253"/>
      <point x="265" y="286"/>
      <point x="265" y="286" type="curve"/>
      <point x="265" y="286"/>
      <point x="46" y="480"/>
    </contour>
  </outline>
</glyph>
<glyph name="cid41314" format="2">
  <advance height="1000" width="839"/>
  <unicode hex="00BC"/>
  <outline>
    <contour>
      <point x="67" y="297" type="line"/>
      <point x="311" y="297" type="line"/>
      <point x="311" y="318" type="line"/>
      <point x="209" y="330" type="line"/>
      <point x="172" y="330" type="line"/>
      <point x="67" y="318" type="line"/>
    </contour>
    <contour>
      <point x="166" y="297" type="line"/>
      <point x="215" y="297" type="line"/>
      <point x="215" y="711" type="line"/>
      <point x="207" y="717" type="line"/>
      <point x="76" y="684" type="line"/>
      <point x="76" y="660" type="line"/>
      <point x="166" y="670" type="line"/>
    </contour>
    <contour>
      <point x="201" y="-14" type="line"/>
      <point x="692" y="691" type="line"/>
      <point x="668" y="709" type="line"/>
      <point x="178" y="4" type="line"/>
    </contour>
    <contour>
      <point x="692" y="10" type="line"/>
      <point x="739" y="10" type="line"/>
      <point x="739" y="429" type="line"/>
      <point x="706" y="429" type="line"/>
      <point x="509" y="164" type="line"/>
      <point x="509" y="131" type="line"/>
      <point x="811" y="131" type="line"/>
      <point x="811" y="171" type="line"/>
      <point x="539" y="171" type="line"/>
      <point x="539" y="182" type="line"/>
      <point x="534" y="160" type="line"/>
      <point x="623" y="282" type="line"/>
      <point x="713" y="405" type="line"/>
      <point x="686" y="384" type="line"/>
      <point x="692" y="384" type="line"/>
      <point x="692" y="159" type="line"/>
      <point x="692" y="145" type="line"/>
    </contour>
  </outline>
</glyph>
<glyph name="cid41316" format="2">
  <advance height="1000" width="869"/>
  <unicode hex="00BD"/>
  <outline>
    <contour>
      <point x="67" y="297" type="line"/>
      <point x="311" y="297" type="line"/>
      <point x="311" y="318" type="line"/>
      <point x="209" y="330" type="line"/>
      <point x="172" y="330" type="line"/>
      <point x="67" y="318" type="line"/>
    </contour>
    <contour>
      <point x="166" y="297" type="line"/>
      <point x="215" y="297" type="line"/>
      <point x="215" y="711" type="line"/>
      <point x="207" y="717" type="line"/>
      <point x="76" y="684" type="line"/>
      <point x="76" y="660" type="line"/>
      <point x="166" y="670" type="line"/>
    </contour>
    <contour>
      <point x="201" y="-14" type="line"/>
      <point x="692" y="691" type="line"/>
      <point x="668" y="709" type="line"/>
      <point x="178" y="4" type="line"/>
    </contour>
    <contour>
      <point x="558" y="10" type="line"/>
      <point x="830" y="10" type="line"/>
      <point x="830" y="59" type="line"/>
      <point x="600" y="59" type="line"/>
      <point x="598" y="67" type="line"/>
      <point x="589" y="42" type="line"/>
      <point x="697" y="145" type="line" smooth="yes"/>
      <point x="777" y="224"/>
      <point x="811" y="269"/>
      <point x="811" y="324" type="curve" smooth="yes"/>
      <point x="811" y="385"/>
      <point x="773" y="432"/>
      <point x="688" y="432" type="curve" smooth="yes"/>
      <point x="623" y="432"/>
      <point x="568" y="400"/>
      <point x="556" y="340" type="curve"/>
      <point x="562" y="327"/>
      <point x="571" y="321"/>
      <point x="583" y="321" type="curve" smooth="yes"/>
      <point x="598" y="321"/>
      <point x="607" y="330"/>
      <point x="615" y="357" type="curve" smooth="yes"/>
      <point x="632" y="414" type="line"/>
      <point x="601" y="390" type="line"/>
      <point x="628" y="404"/>
      <point x="650" y="408"/>
      <point x="673" y="408" type="curve" smooth="yes"/>
      <point x="729" y="408"/>
      <point x="759" y="374"/>
      <point x="759" y="319" type="curve" smooth="yes"/>
      <point x="759" y="269"/>
      <point x="732" y="222"/>
      <point x="672" y="161" type="curve" smooth="yes"/>
      <point x="558" y="46" type="line"/>
    </contour>
  </outline>
</glyph>
<glyph name="cid41318" format="2">
  <advance height="1000" width="839"/>
  <unicode hex="00BE"/>
  <outline>
    <contour>
      <point x="173" y="289" type="curve" smooth="yes"/>
      <point x="254" y="289"/>
      <point x="318" y="331"/>
      <point x="318" y="407" type="curve" smooth="yes"/>
      <point x="318" y="473"/>
      <point x="271" y="515"/>
      <point x="185" y="518" type="curve"/>
      <point x="188" y="511" type="line"/>
      <point x="258" y="516"/>
      <point x="303" y="562"/>
      <point x="303" y="618" type="curve" smooth="yes"/>
      <point x="303" y="678"/>
      <point x="255" y="719"/>
      <point x="179" y="719" type="curve" smooth="yes"/>
      <point x="121" y="719"/>
      <point x="68" y="692"/>
      <point x="56" y="634" type="curve"/>
      <point x="60" y="622"/>
      <point x="71" y="615"/>
      <point x="82" y="615" type="curve" smooth="yes"/>
      <point x="97" y="615"/>
      <point x="107" y="625"/>
      <point x="112" y="649" type="curve"/>
      <point x="127" y="702" type="line"/>
      <point x="102" y="681" type="line"/>
      <point x="127" y="692"/>
      <point x="147" y="695"/>
      <point x="168" y="695" type="curve" smooth="yes"/>
      <point x="222" y="695"/>
      <point x="252" y="664"/>
      <point x="252" y="614" type="curve" smooth="yes"/>
      <point x="252" y="560"/>
      <point x="214" y="528"/>
      <point x="153" y="528" type="curve" smooth="yes"/>
      <point x="127" y="528" type="line"/>
      <point x="127" y="500" type="line"/>
      <point x="157" y="500" type="line" smooth="yes"/>
      <point x="232" y="500"/>
      <point x="266" y="464"/>
      <point x="266" y="408" type="curve" smooth="yes"/>
      <point x="266" y="351"/>
      <point x="229" y="313"/>
      <point x="161" y="313" type="curve" smooth="yes"/>
      <point x="136" y="313"/>
      <point x="115" y="317"/>
      <point x="94" y="328" type="curve"/>
      <point x="116" y="304" type="line"/>
      <point x="101" y="360" type="line"/>
      <point x="95" y="388"/>
      <point x="85" y="396"/>
      <point x="70" y="396" type="curve" smooth="yes"/>
      <point x="58" y="396"/>
      <point x="48" y="391"/>
      <point x="44" y="376" type="curve"/>
      <point x="56" y="318"/>
      <point x="103" y="289"/>
    </contour>
    <contour>
      <point x="201" y="-14" type="line"/>
      <point x="692" y="691" type="line"/>
      <point x="668" y="709" type="line"/>
      <point x="178" y="4" type="line"/>
    </contour>
    <contour>
      <point x="692" y="10" type="line"/>
      <point x="739" y="10" type="line"/>
      <point x="739" y="429" type="line"/>
      <point x="706" y="429" type="line"/>
      <point x="509" y="164" type="line"/>
      <point x="509" y="131" type="line"/>
      <point x="811" y="131" type="line"/>
      <point x="811" y="171" type="line"/>
      <point x="539" y="171" type="line"/>
      <point x="539" y="182" type="line"/>
      <point x="534" y="160" type="line"/>
      <point x="623" y="282" type="line"/>
      <point x="713" y="405" type="line"/>
      <point x="686" y="384" type="line"/>
      <point x="692" y="384" type="line"/>
      <point x="692" y="159" type="line"/>
      <point x="692" y="145" type="line"/>
    </contour>
  </outline>
</glyph>
<glyph name="cid40896" format="2">
  <advance height="1000" width="400"/>
  <unicode hex="00BF"/>
  <outline>
    <contour>
      <point x="254" y="511" type="curve" smooth="yes"/>
      <point x="226" y="511"/>
      <point x="205" y="489"/>
      <point x="205" y="463" type="curve" smooth="yes"/>
      <point x="205" y="436"/>
      <point x="226" y="416"/>
      <point x="254" y="416" type="curve" smooth="yes"/>
      <point x="281" y="416"/>
      <point x="302" y="436"/>
      <point x="302" y="463" type="curve" smooth="yes"/>
      <point x="302" y="489"/>
      <point x="281" y="511"/>
    </contour>
    <contour>
      <point x="57" y="-1" type="curve" smooth="yes"/>
      <point x="57" y="-129"/>
      <point x="181" y="-198"/>
      <point x="288" y="-219" type="curve"/>
      <point x="313" y="-213"/>
      <point x="327" y="-200"/>
      <point x="327" y="-178" type="curve" smooth="yes"/>
      <point x="327" y="-158"/>
      <point x="315" y="-143"/>
      <point x="272" y="-137" type="curve" smooth="yes"/>
      <point x="107" y="-111" type="line"/>
      <point x="208" y="-167" type="line"/>
      <point x="135" y="-123"/>
      <point x="96" y="-76"/>
      <point x="96" y="-14" type="curve" smooth="yes"/>
      <point x="96" y="34"/>
      <point x="115" y="64"/>
      <point x="170" y="93" type="curve" smooth="yes"/>
      <point x="212" y="113" type="line" smooth="yes"/>
      <point x="270" y="141"/>
      <point x="288" y="160"/>
      <point x="288" y="190" type="curve" smooth="yes"/>
      <point x="288" y="207"/>
      <point x="284" y="223"/>
      <point x="276" y="260" type="curve" smooth="yes"/>
      <point x="266" y="299" type="line"/>
      <point x="240" y="299" type="line"/>
      <point x="243" y="226" type="line" smooth="yes"/>
      <point x="244" y="191"/>
      <point x="234" y="180"/>
      <point x="188" y="157" type="curve" smooth="yes"/>
      <point x="153" y="140" type="line" smooth="yes"/>
      <point x="89" y="109"/>
      <point x="57" y="67"/>
    </contour>
  </outline>
</glyph>
<glyph name="cid40105" format="2">
  <advance height="1000" width="675"/>
  <unicode hex="00C0"/>
  <outline>
    <contour>
      <point x="9" y="10" type="curve"/>
      <point x="9" y="10"/>
      <point x="227" y="10"/>
      <point x="227" y="10" type="curve"/>
      <point x="227" y="10"/>
      <point x="227" y="38"/>
      <point x="227" y="38" type="curve"/>
      <point x="227" y="38"/>
      <point x="121" y="48"/>
      <point x="121" y="48" type="curve"/>
      <point x="121" y="48"/>
      <point x="104" y="48"/>
      <point x="104" y="48" type="curve"/>
      <point x="104" y="48"/>
      <point x="9" y="38"/>
      <point x="9" y="38" type="curve"/>
      <point x="9" y="38"/>
      <point x="9" y="10"/>
    </contour>
    <contour>
      <point x="81" y="10" type="curve"/>
      <point x="81" y="10"/>
      <point x="118" y="10"/>
      <point x="118" y="10" type="curve"/>
      <point x="118" y="10"/>
      <point x="326" y="650"/>
      <point x="326" y="650" type="curve"/>
      <point x="326" y="650"/>
      <point x="330" y="662"/>
      <point x="330" y="662" type="curve"/>
      <point x="330" y="662"/>
      <point x="311" y="662"/>
      <point x="311" y="662" type="curve"/>
      <point x="311" y="662"/>
      <point x="525" y="10"/>
      <point x="525" y="10" type="curve"/>
      <point x="525" y="10"/>
      <point x="590" y="10"/>
      <point x="590" y="10" type="curve"/>
      <point x="590" y="10"/>
      <point x="353" y="717"/>
      <point x="353" y="717" type="curve"/>
      <point x="353" y="717"/>
      <point x="315" y="717"/>
      <point x="315" y="717" type="curve"/>
      <point x="315" y="717"/>
      <point x="81" y="10"/>
    </contour>
    <contour>
      <point x="185" y="254" type="curve"/>
      <point x="185" y="254"/>
      <point x="471" y="254"/>
      <point x="471" y="254" type="curve"/>
      <point x="471" y="254"/>
      <point x="471" y="287"/>
      <point x="471" y="287" type="curve"/>
      <point x="471" y="287"/>
      <point x="185" y="287"/>
      <point x="185" y="287" type="curve"/>
      <point x="185" y="287"/>
      <point x="185" y="254"/>
    </contour>
    <contour>
      <point x="407" y="10" type="curve"/>
      <point x="407" y="10"/>
      <point x="668" y="10"/>
      <point x="668" y="10" type="curve"/>
      <point x="668" y="10"/>
      <point x="668" y="38"/>
      <point x="668" y="38" type="curve"/>
      <point x="668" y="38"/>
      <point x="551" y="48"/>
      <point x="551" y="48" type="curve"/>
      <point x="551" y="48"/>
      <point x="530" y="48"/>
      <point x="530" y="48" type="curve"/>
      <point x="530" y="48"/>
      <point x="407" y="38"/>
      <point x="407" y="38" type="curve"/>
      <point x="407" y="38"/>
      <point x="407" y="10"/>
    </contour>
    <contour>
      <point x="389" y="783" type="curve"/>
      <point x="355" y="814"/>
      <point x="320" y="846"/>
      <point x="287" y="875" type="curve" smooth="yes"/>
      <point x="258" y="902"/>
      <point x="244" y="912"/>
      <point x="231" y="912" type="curve" smooth="yes"/>
      <point x="215" y="912"/>
      <point x="204" y="901"/>
      <point x="204" y="886" type="curve" smooth="yes"/>
      <point x="204" y="871"/>
      <point x="215" y="859"/>
      <point x="253" y="837" type="curve" smooth="yes"/>
      <point x="292" y="813"/>
      <point x="334" y="789"/>
      <point x="376" y="765" type="curve"/>
      <point x="376" y="765"/>
      <point x="389" y="783"/>
    </contour>
  </outline>
</glyph>
<glyph name="cid40107" format="2">
  <advance height="1000" width="675"/>
  <unicode hex="00C1"/>
  <outline>
    <contour>
      <point x="9" y="10" type="curve"/>
      <point x="9" y="10"/>
      <point x="227" y="10"/>
      <point x="227" y="10" type="curve"/>
      <point x="227" y="10"/>
      <point x="227" y="38"/>
      <point x="227" y="38" type="curve"/>
      <point x="227" y="38"/>
      <point x="121" y="48"/>
      <point x="121" y="48" type="curve"/>
      <point x="121" y="48"/>
      <point x="104" y="48"/>
      <point x="104" y="48" type="curve"/>
      <point x="104" y="48"/>
      <point x="9" y="38"/>
      <point x="9" y="38" type="curve"/>
      <point x="9" y="38"/>
      <point x="9" y="10"/>
    </contour>
    <contour>
      <point x="81" y="10" type="curve"/>
      <point x="81" y="10"/>
      <point x="118" y="10"/>
      <point x="118" y="10" type="curve"/>
      <point x="118" y="10"/>
      <point x="326" y="650"/>
      <point x="326" y="650" type="curve"/>
      <point x="326" y="650"/>
      <point x="330" y="662"/>
      <point x="330" y="662" type="curve"/>
      <point x="330" y="662"/>
      <point x="311" y="662"/>
      <point x="311" y="662" type="curve"/>
      <point x="311" y="662"/>
      <point x="525" y="10"/>
      <point x="525" y="10" type="curve"/>
      <point x="525" y="10"/>
      <point x="590" y="10"/>
      <point x="590" y="10" type="curve"/>
      <point x="590" y="10"/>
      <point x="353" y="717"/>
      <point x="353" y="717" type="curve"/>
      <point x="353" y="717"/>
      <point x="315" y="717"/>
      <point x="315" y="717" type="curve"/>
      <point x="315" y="717"/>
      <point x="81" y="10"/>
    </contour>
    <contour>
      <point x="185" y="254" type="curve"/>
      <point x="185" y="254"/>
      <point x="471" y="254"/>
      <point x="471" y="254" type="curve"/>
      <point x="471" y="254"/>
      <point x="471" y="287"/>
      <point x="471" y="287" type="curve"/>
      <point x="471" y="287"/>
      <point x="185" y="287"/>
      <point x="185" y="287" type="curve"/>
      <point x="185" y="287"/>
      <point x="185" y="254"/>
    </contour>
    <contour>
      <point x="407" y="10" type="curve"/>
      <point x="407" y="10"/>
      <point x="668" y="10"/>
      <point x="668" y="10" type="curve"/>
      <point x="668" y="10"/>
      <point x="668" y="38"/>
      <point x="668" y="38" type="curve"/>
      <point x="668" y="38"/>
      <point x="551" y="48"/>
      <point x="551" y="48" type="curve"/>
      <point x="551" y="48"/>
      <point x="530" y="48"/>
      <point x="530" y="48" type="curve"/>
      <point x="530" y="48"/>
      <point x="407" y="38"/>
      <point x="407" y="38" type="curve"/>
      <point x="407" y="38"/>
      <point x="407" y="10"/>
    </contour>
    <contour>
      <point x="277" y="783" type="curve"/>
      <point x="277" y="783"/>
      <point x="289" y="765"/>
      <point x="289" y="765" type="curve"/>
      <point x="331" y="789"/>
      <point x="372" y="814"/>
      <point x="413" y="838" type="curve" smooth="yes"/>
      <point x="450" y="859"/>
      <point x="462" y="871"/>
      <point x="462" y="886" type="curve" smooth="yes"/>
      <point x="462" y="901"/>
      <point x="450" y="912"/>
      <point x="435" y="912" type="curve" smooth="yes"/>
      <point x="420" y="912"/>
      <point x="408" y="902"/>
      <point x="379" y="876" type="curve" smooth="yes"/>
      <point x="345" y="846"/>
      <point x="311" y="815"/>
    </contour>
  </outline>
</glyph>
<glyph name="cid40110" format="2">
  <advance height="1000" width="675"/>
  <unicode hex="00C3"/>
  <outline>
    <contour>
      <point x="9" y="10" type="curve"/>
      <point x="9" y="10"/>
      <point x="227" y="10"/>
      <point x="227" y="10" type="curve"/>
      <point x="227" y="10"/>
      <point x="227" y="38"/>
      <point x="227" y="38" type="curve"/>
      <point x="227" y="38"/>
      <point x="121" y="48"/>
      <point x="121" y="48" type="curve"/>
      <point x="121" y="48"/>
      <point x="104" y="48"/>
      <point x="104" y="48" type="curve"/>
      <point x="104" y="48"/>
      <point x="9" y="38"/>
      <point x="9" y="38" type="curve"/>
      <point x="9" y="38"/>
      <point x="9" y="10"/>
    </contour>
    <contour>
      <point x="81" y="10" type="curve"/>
      <point x="81" y="10"/>
      <point x="118" y="10"/>
      <point x="118" y="10" type="curve"/>
      <point x="118" y="10"/>
      <point x="326" y="650"/>
      <point x="326" y="650" type="curve"/>
      <point x="326" y="650"/>
      <point x="330" y="662"/>
      <point x="330" y="662" type="curve"/>
      <point x="330" y="662"/>
      <point x="311" y="662"/>
      <point x="311" y="662" type="curve"/>
      <point x="311" y="662"/>
      <point x="525" y="10"/>
      <point x="525" y="10" type="curve"/>
      <point x="525" y="10"/>
      <point x="590" y="10"/>
      <point x="590" y="10" type="curve"/>
      <point x="590" y="10"/>
      <point x="353" y="717"/>
      <point x="353" y="717" type="curve"/>
      <point x="353" y="717"/>
      <point x="315" y="717"/>
      <point x="315" y="717" type="curve"/>
      <point x="315" y="717"/>
      <point x="81" y="10"/>
    </contour>
    <contour>
      <point x="185" y="254" type="curve"/>
      <point x="185" y="254"/>
      <point x="471" y="254"/>
      <point x="471" y="254" type="curve"/>
      <point x="471" y="254"/>
      <point x="471" y="287"/>
      <point x="471" y="287" type="curve"/>
      <point x="471" y="287"/>
      <point x="185" y="287"/>
      <point x="185" y="287" type="curve"/>
      <point x="185" y="287"/>
      <point x="185" y="254"/>
    </contour>
    <contour>
      <point x="407" y="10" type="curve"/>
      <point x="407" y="10"/>
      <point x="668" y="10"/>
      <point x="668" y="10" type="curve"/>
      <point x="668" y="10"/>
      <point x="668" y="38"/>
      <point x="668" y="38" type="curve"/>
      <point x="668" y="38"/>
      <point x="551" y="48"/>
      <point x="551" y="48" type="curve"/>
      <point x="551" y="48"/>
      <point x="530" y="48"/>
      <point x="530" y="48" type="curve"/>
      <point x="530" y="48"/>
      <point x="407" y="38"/>
      <point x="407" y="38" type="curve"/>
      <point x="407" y="38"/>
      <point x="407" y="10"/>
    </contour>
    <contour>
      <point x="157" y="784" type="curve"/>
      <point x="157" y="784"/>
      <point x="179" y="778"/>
      <point x="179" y="778" type="curve"/>
      <point x="194" y="827"/>
      <point x="217" y="857"/>
      <point x="252" y="857" type="curve" smooth="yes"/>
      <point x="282" y="857"/>
      <point x="302" y="835"/>
      <point x="326" y="812" type="curve" smooth="yes"/>
      <point x="347" y="791"/>
      <point x="370" y="772"/>
      <point x="409" y="772" type="curve" smooth="yes"/>
      <point x="464" y="772"/>
      <point x="497" y="818"/>
      <point x="509" y="885" type="curve"/>
      <point x="509" y="885"/>
      <point x="487" y="891"/>
      <point x="487" y="891" type="curve"/>
      <point x="471" y="841"/>
      <point x="449" y="812"/>
      <point x="414" y="812" type="curve" smooth="yes"/>
      <point x="384" y="812"/>
      <point x="364" y="834"/>
      <point x="341" y="856" type="curve" smooth="yes"/>
      <point x="318" y="877"/>
      <point x="294" y="896"/>
      <point x="257" y="896" type="curve" smooth="yes"/>
      <point x="202" y="896"/>
      <point x="168" y="851"/>
    </contour>
  </outline>
</glyph>
<glyph name="cid40112" format="2">
  <advance height="1000" width="675"/>
  <unicode hex="00C4"/>
  <outline>
    <contour>
      <point x="9" y="10" type="line"/>
      <point x="227" y="10" type="line"/>
      <point x="227" y="38" type="line"/>
      <point x="121" y="48" type="line"/>
      <point x="104" y="48" type="line"/>
      <point x="9" y="38" type="line"/>
    </contour>
    <contour>
      <point x="81" y="10" type="line"/>
      <point x="118" y="10" type="line"/>
      <point x="326" y="650" type="line"/>
      <point x="330" y="662" type="line"/>
      <point x="311" y="662" type="line"/>
      <point x="525" y="10" type="line"/>
      <point x="590" y="10" type="line"/>
      <point x="353" y="717" type="line"/>
      <point x="315" y="717" type="line"/>
    </contour>
    <contour>
      <point x="185" y="254" type="line"/>
      <point x="471" y="254" type="line"/>
      <point x="471" y="287" type="line"/>
      <point x="185" y="287" type="line"/>
    </contour>
    <contour>
      <point x="407" y="10" type="line"/>
      <point x="668" y="10" type="line"/>
      <point x="668" y="38" type="line"/>
      <point x="551" y="48" type="line"/>
      <point x="530" y="48" type="line"/>
      <point x="407" y="38" type="line"/>
    </contour>
    <contour>
      <point x="224" y="791" type="curve" smooth="yes"/>
      <point x="249" y="791"/>
      <point x="268" y="809"/>
      <point x="268" y="835" type="curve" smooth="yes"/>
      <point x="268" y="861"/>
      <point x="249" y="878"/>
      <point x="224" y="878" type="curve" smooth="yes"/>
      <point x="200" y="878"/>
      <point x="179" y="861"/>
      <point x="179" y="835" type="curve" smooth="yes"/>
      <point x="179" y="809"/>
      <point x="200" y="791"/>
    </contour>
    <contour>
      <point x="442" y="791" type="curve" smooth="yes"/>
      <point x="465" y="791"/>
      <point x="487" y="809"/>
      <point x="487" y="835" type="curve" smooth="yes"/>
      <point x="487" y="861"/>
      <point x="465" y="878"/>
      <point x="442" y="878" type="curve" smooth="yes"/>
      <point x="417" y="878"/>
      <point x="397" y="861"/>
      <point x="397" y="835" type="curve" smooth="yes"/>
      <point x="397" y="809"/>
      <point x="417" y="791"/>
    </contour>
  </outline>
</glyph>
<glyph name="cid40135" format="2">
  <advance height="1000" width="675"/>
  <unicode hex="00C5"/>
  <outline>
    <contour>
      <point x="9" y="10" type="line"/>
      <point x="227" y="10" type="line"/>
      <point x="227" y="38" type="line"/>
      <point x="121" y="48" type="line"/>
      <point x="104" y="48" type="line"/>
      <point x="9" y="38" type="line"/>
    </contour>
    <contour>
      <point x="81" y="10" type="line"/>
      <point x="118" y="10" type="line"/>
      <point x="326" y="650" type="line"/>
      <point x="330" y="662" type="line"/>
      <point x="311" y="662" type="line"/>
      <point x="525" y="10" type="line"/>
      <point x="590" y="10" type="line"/>
      <point x="353" y="717" type="line"/>
      <point x="315" y="717" type="line"/>
    </contour>
    <contour>
      <point x="185" y="254" type="line"/>
      <point x="471" y="254" type="line"/>
      <point x="471" y="287" type="line"/>
      <point x="185" y="287" type="line"/>
    </contour>
    <contour>
      <point x="407" y="10" type="line"/>
      <point x="668" y="10" type="line"/>
      <point x="668" y="38" type="line"/>
      <point x="551" y="48" type="line"/>
      <point x="530" y="48" type="line"/>
      <point x="407" y="38" type="line"/>
    </contour>
    <contour>
      <point x="333" y="762" type="curve" smooth="yes"/>
      <point x="380" y="762"/>
      <point x="424" y="797"/>
      <point x="424" y="851" type="curve" smooth="yes"/>
      <point x="424" y="908"/>
      <point x="380" y="943"/>
      <point x="333" y="943" type="curve" smooth="yes"/>
      <point x="286" y="943"/>
      <point x="241" y="906"/>
      <point x="241" y="851" type="curve" smooth="yes"/>
      <point x="241" y="796"/>
      <point x="286" y="762"/>
    </contour>
    <contour>
      <point x="333" y="788" type="curve" smooth="yes"/>
      <point x="296" y="788"/>
      <point x="274" y="819"/>
      <point x="274" y="851" type="curve" smooth="yes"/>
      <point x="274" y="885"/>
      <point x="296" y="915"/>
      <point x="333" y="915" type="curve" smooth="yes"/>
      <point x="369" y="915"/>
      <point x="392" y="885"/>
      <point x="392" y="851" type="curve" smooth="yes"/>
      <point x="392" y="819"/>
      <point x="369" y="788"/>
    </contour>
  </outline>
</glyph>
<glyph name="cid40138" format="2">
  <advance height="1000" width="938"/>
  <unicode hex="00C6"/>
  <outline>
    <contour>
      <point x="477" y="10" type="curve"/>
      <point x="542" y="10" type="line"/>
      <point x="540" y="113"/>
      <point x="540" y="226"/>
      <point x="540" y="352" type="curve" smooth="yes"/>
      <point x="540" y="378" type="line" smooth="yes"/>
      <point x="540" y="496"/>
      <point x="540" y="608"/>
      <point x="542" y="710" type="curve"/>
      <point x="480" y="710" type="line"/>
      <point x="480" y="299" type="line" smooth="yes"/>
      <point x="480" y="208"/>
      <point x="479" y="104"/>
    </contour>
    <contour>
      <point x="9" y="10" type="line"/>
      <point x="227" y="10" type="line"/>
      <point x="227" y="38" type="line"/>
      <point x="126" y="48" type="line"/>
      <point x="108" y="48" type="line"/>
      <point x="9" y="38" type="line"/>
    </contour>
    <contour>
      <point x="730" y="249" type="line"/>
      <point x="760" y="249" type="line"/>
      <point x="760" y="482" type="line"/>
      <point x="730" y="482" type="line"/>
      <point x="716" y="377" type="line"/>
      <point x="716" y="357" type="line"/>
    </contour>
    <contour>
      <point x="842" y="537" type="line"/>
      <point x="879" y="537" type="line"/>
      <point x="869" y="710" type="line"/>
      <point x="510" y="710" type="line"/>
      <point x="510" y="677" type="line"/>
      <point x="817" y="677" type="line"/>
    </contour>
    <contour>
      <point x="510" y="10" type="line"/>
      <point x="886" y="10" type="line"/>
      <point x="895" y="185" type="line"/>
      <point x="859" y="185" type="line"/>
      <point x="835" y="43" type="line"/>
      <point x="510" y="43" type="line"/>
    </contour>
    <contour>
      <point x="344" y="682" type="line"/>
      <point x="457" y="671" type="line"/>
      <point x="509" y="671" type="line"/>
      <point x="509" y="710" type="line"/>
      <point x="344" y="710" type="line"/>
    </contour>
    <contour>
      <point x="379" y="10" type="line"/>
      <point x="511" y="10" type="line"/>
      <point x="511" y="48" type="line"/>
      <point x="500" y="48" type="line"/>
      <point x="379" y="38" type="line"/>
    </contour>
    <contour>
      <point x="74" y="10" type="line"/>
      <point x="114" y="10" type="line"/>
      <point x="264" y="289" type="line"/>
      <point x="489" y="710" type="line"/>
      <point x="448" y="710" type="line"/>
    </contour>
    <contour>
      <point x="242" y="273" type="line"/>
      <point x="510" y="273" type="line"/>
      <point x="510" y="304" type="line"/>
      <point x="242" y="304" type="line"/>
    </contour>
    <contour>
      <point x="510" y="349" type="line"/>
      <point x="735" y="349" type="line"/>
      <point x="735" y="382" type="line"/>
      <point x="510" y="382" type="line"/>
    </contour>
  </outline>
</glyph>
<glyph name="cid40140" format="2">
  <advance height="1000" width="652"/>
  <unicode hex="00C7"/>
  <outline>
    <contour>
      <point x="394" y="-5" type="curve" smooth="yes"/>
      <point x="466" y="-5"/>
      <point x="529" y="8"/>
      <point x="596" y="47" type="curve"/>
      <point x="596" y="47"/>
      <point x="601" y="197"/>
      <point x="601" y="197" type="curve"/>
      <point x="601" y="197"/>
      <point x="563" y="197"/>
      <point x="563" y="197" type="curve"/>
      <point x="563" y="197"/>
      <point x="537" y="45"/>
      <point x="537" y="45" type="curve"/>
      <point x="537" y="45"/>
      <point x="575" y="54"/>
      <point x="575" y="54" type="curve"/>
      <point x="575" y="54"/>
      <point x="575" y="87"/>
      <point x="575" y="87" type="curve"/>
      <point x="518" y="43"/>
      <point x="458" y="29"/>
      <point x="395" y="29" type="curve" smooth="yes"/>
      <point x="239" y="29"/>
      <point x="127" y="150"/>
      <point x="127" y="359" type="curve" smooth="yes"/>
      <point x="127" y="567"/>
      <point x="241" y="691"/>
      <point x="401" y="691" type="curve" smooth="yes"/>
      <point x="463" y="691"/>
      <point x="512" y="675"/>
      <point x="569" y="630" type="curve"/>
      <point x="569" y="630"/>
      <point x="569" y="666"/>
      <point x="569" y="666" type="curve"/>
      <point x="569" y="666"/>
      <point x="528" y="678"/>
      <point x="528" y="678" type="curve"/>
      <point x="528" y="678"/>
      <point x="554" y="523"/>
      <point x="554" y="523" type="curve"/>
      <point x="554" y="523"/>
      <point x="593" y="523"/>
      <point x="593" y="523" type="curve"/>
      <point x="593" y="523"/>
      <point x="588" y="672"/>
      <point x="588" y="672" type="curve"/>
      <point x="523" y="711"/>
      <point x="462" y="724"/>
      <point x="394" y="724" type="curve" smooth="yes"/>
      <point x="199" y="724"/>
      <point x="57" y="576"/>
      <point x="57" y="360" type="curve" smooth="yes"/>
      <point x="57" y="143"/>
      <point x="192" y="-5"/>
    </contour>
    <contour>
      <point x="367" y="-75" type="curve"/>
      <point x="426" y="-78"/>
      <point x="451" y="-99"/>
      <point x="451" y="-135" type="curve" smooth="yes"/>
      <point x="451" y="-167"/>
      <point x="430" y="-189"/>
      <point x="385" y="-189" type="curve" smooth="yes"/>
      <point x="367" y="-189"/>
      <point x="350" y="-186"/>
      <point x="333" y="-182" type="curve"/>
      <point x="333" y="-182"/>
      <point x="327" y="-205"/>
      <point x="327" y="-205" type="curve"/>
      <point x="344" y="-212"/>
      <point x="365" y="-217"/>
      <point x="391" y="-217" type="curve" smooth="yes"/>
      <point x="459" y="-217"/>
      <point x="496" y="-181"/>
      <point x="496" y="-135" type="curve" smooth="yes"/>
      <point x="496" y="-84"/>
      <point x="449" y="-52"/>
      <point x="385" y="-49" type="curve"/>
      <point x="385" y="-49"/>
      <point x="397" y="-67"/>
      <point x="397" y="-67" type="curve"/>
      <point x="397" y="-67"/>
      <point x="409" y="11"/>
      <point x="409" y="11" type="curve"/>
      <point x="409" y="11"/>
      <point x="381" y="11"/>
      <point x="381" y="11" type="curve"/>
      <point x="381" y="11"/>
      <point x="367" y="-75"/>
    </contour>
  </outline>
</glyph>
<glyph name="cid40161" format="2">
  <advance height="1000" width="614"/>
  <unicode hex="00C8"/>
  <outline>
    <contour>
      <point x="52" y="10" type="line"/>
      <point x="186" y="10" type="line"/>
      <point x="186" y="48" type="line"/>
      <point x="176" y="48" type="line"/>
      <point x="52" y="38" type="line"/>
    </contour>
    <contour>
      <point x="152" y="10" type="curve"/>
      <point x="219" y="10" type="line"/>
      <point x="216" y="113"/>
      <point x="216" y="226"/>
      <point x="216" y="352" type="curve" smooth="yes"/>
      <point x="216" y="378" type="line" smooth="yes"/>
      <point x="216" y="496"/>
      <point x="216" y="608"/>
      <point x="219" y="710" type="curve"/>
      <point x="152" y="710" type="line"/>
      <point x="155" y="607"/>
      <point x="155" y="495"/>
      <point x="155" y="386" type="curve" smooth="yes"/>
      <point x="155" y="334" type="line" smooth="yes"/>
      <point x="155" y="225"/>
      <point x="155" y="112"/>
    </contour>
    <contour>
      <point x="185" y="10" type="line"/>
      <point x="562" y="10" type="line"/>
      <point x="572" y="185" type="line"/>
      <point x="536" y="185" type="line"/>
      <point x="508" y="24" type="line"/>
      <point x="534" y="43" type="line"/>
      <point x="185" y="43" type="line"/>
    </contour>
    <contour>
      <point x="185" y="349" type="line"/>
      <point x="411" y="349" type="line"/>
      <point x="411" y="382" type="line"/>
      <point x="185" y="382" type="line"/>
    </contour>
    <contour>
      <point x="406" y="249" type="line"/>
      <point x="435" y="249" type="line"/>
      <point x="435" y="482" type="line"/>
      <point x="406" y="482" type="line"/>
      <point x="391" y="377" type="line"/>
      <point x="391" y="357" type="line"/>
    </contour>
    <contour>
      <point x="52" y="682" type="line"/>
      <point x="176" y="671" type="line"/>
      <point x="186" y="671" type="line"/>
      <point x="186" y="710" type="line"/>
      <point x="52" y="710" type="line"/>
    </contour>
    <contour>
      <point x="518" y="537" type="line"/>
      <point x="554" y="537" type="line"/>
      <point x="545" y="710" type="line"/>
      <point x="185" y="710" type="line"/>
      <point x="185" y="677" type="line"/>
      <point x="518" y="677" type="line"/>
      <point x="491" y="697" type="line"/>
    </contour>
    <contour>
      <point x="399" y="783" type="line"/>
      <point x="365" y="814"/>
      <point x="331" y="846"/>
      <point x="297" y="875" type="curve" smooth="yes"/>
      <point x="268" y="902"/>
      <point x="255" y="912"/>
      <point x="241" y="912" type="curve" smooth="yes"/>
      <point x="226" y="912"/>
      <point x="214" y="901"/>
      <point x="214" y="886" type="curve" smooth="yes"/>
      <point x="214" y="871"/>
      <point x="226" y="859"/>
      <point x="263" y="837" type="curve" smooth="yes"/>
      <point x="303" y="813"/>
      <point x="344" y="789"/>
      <point x="387" y="765" type="curve"/>
    </contour>
  </outline>
</glyph>
<glyph name="cid40162" format="2">
  <advance height="1000" width="614"/>
  <unicode hex="00C9"/>
  <outline>
    <contour>
      <point x="52" y="10" type="curve"/>
      <point x="52" y="10"/>
      <point x="186" y="10"/>
      <point x="186" y="10" type="curve"/>
      <point x="186" y="10"/>
      <point x="186" y="48"/>
      <point x="186" y="48" type="curve"/>
      <point x="186" y="48"/>
      <point x="176" y="48"/>
      <point x="176" y="48" type="curve"/>
      <point x="176" y="48"/>
      <point x="52" y="38"/>
      <point x="52" y="38" type="curve"/>
      <point x="52" y="38"/>
      <point x="52" y="10"/>
    </contour>
    <contour>
      <point x="152" y="10" type="curve"/>
      <point x="152" y="10"/>
      <point x="219" y="10"/>
      <point x="219" y="10" type="curve"/>
      <point x="216" y="113"/>
      <point x="216" y="226"/>
      <point x="216" y="352" type="curve"/>
      <point x="216" y="352"/>
      <point x="216" y="378"/>
      <point x="216" y="378" type="curve"/>
      <point x="216" y="496"/>
      <point x="216" y="608"/>
      <point x="219" y="710" type="curve"/>
      <point x="219" y="710"/>
      <point x="152" y="710"/>
      <point x="152" y="710" type="curve"/>
      <point x="155" y="607"/>
      <point x="155" y="495"/>
      <point x="155" y="386" type="curve"/>
      <point x="155" y="386"/>
      <point x="155" y="334"/>
      <point x="155" y="334" type="curve"/>
      <point x="155" y="225"/>
      <point x="155" y="112"/>
    </contour>
    <contour>
      <point x="185" y="10" type="curve"/>
      <point x="185" y="10"/>
      <point x="562" y="10"/>
      <point x="562" y="10" type="curve"/>
      <point x="562" y="10"/>
      <point x="572" y="185"/>
      <point x="572" y="185" type="curve"/>
      <point x="572" y="185"/>
      <point x="536" y="185"/>
      <point x="536" y="185" type="curve"/>
      <point x="536" y="185"/>
      <point x="508" y="24"/>
      <point x="508" y="24" type="curve"/>
      <point x="508" y="24"/>
      <point x="534" y="43"/>
      <point x="534" y="43" type="curve"/>
      <point x="534" y="43"/>
      <point x="185" y="43"/>
      <point x="185" y="43" type="curve"/>
      <point x="185" y="43"/>
      <point x="185" y="10"/>
    </contour>
    <contour>
      <point x="185" y="349" type="curve"/>
      <point x="185" y="349"/>
      <point x="411" y="349"/>
      <point x="411" y="349" type="curve"/>
      <point x="411" y="349"/>
      <point x="411" y="382"/>
      <point x="411" y="382" type="curve"/>
      <point x="411" y="382"/>
      <point x="185" y="382"/>
      <point x="185" y="382" type="curve"/>
      <point x="185" y="382"/>
      <point x="185" y="349"/>
    </contour>
    <contour>
      <point x="406" y="249" type="curve"/>
      <point x="406" y="249"/>
      <point x="435" y="249"/>
      <point x="435" y="249" type="curve"/>
      <point x="435" y="249"/>
      <point x="435" y="482"/>
      <point x="435" y="482" type="curve"/>
      <point x="435" y="482"/>
      <point x="406" y="482"/>
      <point x="406" y="482" type="curve"/>
      <point x="406" y="482"/>
      <point x="391" y="377"/>
      <point x="391" y="377" type="curve"/>
      <point x="391" y="377"/>
      <point x="391" y="357"/>
      <point x="391" y="357" type="curve"/>
      <point x="391" y="357"/>
      <point x="406" y="249"/>
    </contour>
    <contour>
      <point x="52" y="682" type="curve"/>
      <point x="52" y="682"/>
      <point x="176" y="671"/>
      <point x="176" y="671" type="curve"/>
      <point x="176" y="671"/>
      <point x="186" y="671"/>
      <point x="186" y="671" type="curve"/>
      <point x="186" y="671"/>
      <point x="186" y="710"/>
      <point x="186" y="710" type="curve"/>
      <point x="186" y="710"/>
      <point x="52" y="710"/>
      <point x="52" y="710" type="curve"/>
      <point x="52" y="710"/>
      <point x="52" y="682"/>
    </contour>
    <contour>
      <point x="518" y="537" type="curve"/>
      <point x="518" y="537"/>
      <point x="554" y="537"/>
      <point x="554" y="537" type="curve"/>
      <point x="554" y="537"/>
      <point x="545" y="710"/>
      <point x="545" y="710" type="curve"/>
      <point x="545" y="710"/>
      <point x="185" y="710"/>
      <point x="185" y="710" type="curve"/>
      <point x="185" y="710"/>
      <point x="185" y="677"/>
      <point x="185" y="677" type="curve"/>
      <point x="185" y="677"/>
      <point x="518" y="677"/>
      <point x="518" y="677" type="curve"/>
      <point x="518" y="677"/>
      <point x="491" y="697"/>
      <point x="491" y="697" type="curve"/>
      <point x="491" y="697"/>
      <point x="518" y="537"/>
    </contour>
    <contour>
      <point x="287" y="783" type="curve"/>
      <point x="287" y="783"/>
      <point x="300" y="765"/>
      <point x="300" y="765" type="curve"/>
      <point x="341" y="789"/>
      <point x="383" y="814"/>
      <point x="423" y="838" type="curve" smooth="yes"/>
      <point x="461" y="859"/>
      <point x="472" y="871"/>
      <point x="472" y="886" type="curve" smooth="yes"/>
      <point x="472" y="901"/>
      <point x="461" y="912"/>
      <point x="445" y="912" type="curve" smooth="yes"/>
      <point x="431" y="912"/>
      <point x="418" y="902"/>
      <point x="389" y="876" type="curve" smooth="yes"/>
      <point x="356" y="846"/>
      <point x="321" y="815"/>
    </contour>
  </outline>
</glyph>
